<svg width="247" height="596" viewBox="0 0 247 596" fill="none" xmlns="http://www.w3.org/2000/svg">
<g clip-path="url(#clip0_61_629)">
<path d="M70.6899 31.0345L56.8577 26.3793V6.2069L70.7068 10.3448L70.6899 31.0345Z" fill="#F68D11"/>
<path d="M74.2973 10.3448L88.1464 6.2069L88.0982 26.3653L74.2973 31.0345V10.3448Z" fill="#F68D11"/>
<path d="M85.3253 4.02259L72.4179 7.15256e-06L59.6788 4.02259L72.4364 7.47104L85.3253 4.02259Z" fill="#F68D11"/>
<path d="M105.569 31.0345L91.7369 26.3793V6.2069L105.586 10.3448L105.569 31.0345Z" fill="#F68D11"/>
<path d="M109.177 10.3448L123.026 6.2069L122.978 26.3653L109.177 31.0345V10.3448Z" fill="#F68D11"/>
<path d="M120.205 4.02259L107.297 7.15256e-06L94.5581 4.02259L107.316 7.47104L120.205 4.02259Z" fill="#F68D11"/>
<path d="M18.3878 39.8276L4.5387 35.6896V55.862L18.371 60.5172L18.3878 39.8276Z" fill="#F68D11"/>
<path d="M21.9783 39.8276L35.8275 35.6896L35.7794 55.8485L21.9783 60.5172V39.8276Z" fill="#F68D11"/>
<path d="M33.0064 33.5054L20.0989 29.4828L7.3598 33.5054L20.1176 36.9538L33.0064 33.5054Z" fill="#F68D11"/>
<path d="M53.2503 60.5172L39.418 55.862V35.6896L53.2672 39.8276L53.2503 60.5172Z" fill="#F68D11"/>
<path d="M56.8577 39.8276L70.7068 35.6896L70.6586 55.8485L56.8577 60.5172V39.8276Z" fill="#F68D11"/>
<path d="M67.8857 33.5054L54.9782 29.4828L42.2391 33.5054L54.9969 36.9538L67.8857 33.5054Z" fill="#F68D11"/>
<path d="M35.8106 90L21.9783 85.3448V65.1724L35.8275 69.3103L35.8106 90Z" fill="#F68D11"/>
<path d="M39.418 69.3103L53.2672 65.1724L53.2191 85.3313L39.418 90V69.3103Z" fill="#F68D11"/>
<path d="M50.4461 62.9881L37.5386 58.9655L24.7995 62.9881L37.5573 66.4366L50.4461 62.9881Z" fill="#F68D11"/>
<path d="M97.0663 72.1681L96.0487 72.1717C95.6753 72.1717 95.1993 72.4261 95.0823 72.8385L91.995 83.8066L88.9415 72.8623C88.8497 72.5192 88.5291 72.1717 88.0931 72.1717H86.8882C86.4543 72.1717 86.1378 72.5239 86.0501 72.8694L83.2095 83.6999L80.2745 72.8358C80.1586 72.4386 79.6708 72.1717 79.2881 72.1717L77.8237 72.1691C77.5108 72.1691 77.22 72.3047 77.0641 72.5229C76.9584 72.6708 76.9292 72.8385 76.9779 72.9843L81.5122 89.1718C81.6122 89.5122 81.9046 89.8551 82.3324 89.8551H83.7886C84.182 89.8551 84.5267 89.566 84.6262 89.1558L87.4171 78.373L90.4541 89.1681C90.5454 89.4987 90.8394 89.8551 91.2692 89.8551H92.7018C93.1004 89.8551 93.4358 89.5759 93.5343 89.1667L97.8988 72.991C97.9501 72.8352 97.9204 72.6621 97.8162 72.5162C97.6629 72.3014 97.3756 72.1681 97.0663 72.1681Z" fill="#100F0D"/>
<path d="M109.658 79.0408H101.965C102.142 76.8637 103.544 74.6064 105.918 74.5195C108.446 74.6028 109.602 76.8083 109.658 79.0408ZM105.913 72.0524C100.716 72.0524 98.3497 76.6851 98.3497 80.9891C98.3497 86.3607 101.292 89.8313 105.845 89.8313C109.104 89.8313 111.588 88.1711 112.661 85.2703C112.718 85.1044 112.7 84.9244 112.611 84.7629C112.501 84.567 112.294 84.4191 112.049 84.3647L110.607 84.0865C110.219 84.0253 109.776 84.2566 109.629 84.5922C108.928 86.2039 107.651 87.1184 106.048 87.1661C104.506 87.118 103.09 86.194 102.441 84.8136C101.914 83.686 101.836 82.5745 101.827 81.4443L112.271 81.4407C112.49 81.4407 112.716 81.3435 112.876 81.18C113.01 81.0444 113.083 80.876 113.082 80.7073C113.056 76.5228 111.16 72.0524 105.913 72.0524Z" fill="#100F0D"/>
<path d="M125.93 81.0149C125.93 82.006 125.752 86.9545 122.266 87.0812C121.097 87.0362 119.916 86.3435 119.257 85.3196C118.771 84.5451 118.487 83.4745 118.415 82.1498V79.2383C118.471 77.0079 120.028 74.5603 122.254 74.4656C125.753 74.6048 125.93 79.9453 125.93 81.0149ZM122.812 71.9022H122.536C120.811 71.9022 119.455 72.6247 118.415 74.1057L118.413 67.2818C118.413 66.8985 118.021 66.5494 117.587 66.5494H116.085C115.693 66.5494 115.254 66.8628 115.253 67.2818V88.5838C115.254 88.9708 115.647 89.3223 116.08 89.3223L116.521 89.3199C116.937 89.3199 117.234 88.9815 117.334 88.6671L117.804 87.1635C118.895 88.7265 120.539 89.6446 122.298 89.6446H122.568C127.202 89.6446 129.276 85.0991 129.276 80.5945C129.276 78.3522 128.728 76.2082 127.772 74.7125C126.668 72.9791 124.767 71.9022 122.812 71.9022Z" fill="#100F0D"/>
<path d="M145.721 80.5355C144.745 79.828 143.571 79.5916 142.395 79.3547L140.139 78.9331C138.521 78.6648 137.584 78.2271 137.584 76.7871C137.584 75.2649 139.149 74.683 140.475 74.6468C142.095 74.6881 143.313 75.4169 143.905 76.6986C144.045 77.0007 144.356 77.2039 144.68 77.2039C144.736 77.2039 144.792 77.1977 144.845 77.186L146.253 76.8724C146.483 76.8213 146.697 76.6625 146.812 76.456C146.904 76.2921 146.924 76.1131 146.869 75.9533C146.008 73.4235 143.821 72.0865 140.513 72.0865C137.524 72.0932 134.33 73.4333 134.33 77.1765C134.33 79.7348 135.924 81.3595 139.072 82.006L141.596 82.4911C142.982 82.7586 144.4 83.2345 144.4 84.7351C144.4 86.9566 141.836 87.1831 141.061 87.1992C139.322 87.1615 137.353 86.3793 136.875 84.7231C136.779 84.359 136.325 84.1015 135.926 84.1851L134.454 84.4914C134.233 84.5385 134.03 84.6838 133.912 84.8799C133.813 85.0434 133.785 85.2264 133.831 85.3935C134.59 88.1416 137.221 89.7988 140.868 89.8267L140.949 89.8273C144.206 89.8273 147.686 88.4208 147.686 84.4754C147.686 82.8694 146.97 81.4334 145.721 80.5355Z" fill="#100F0D"/>
<path d="M160.611 79.0568H152.916C153.092 76.8777 154.494 74.6194 156.868 74.5365C159.395 74.6174 160.552 76.8227 160.611 79.0568ZM156.864 72.0673C151.667 72.0673 149.3 76.7003 149.3 81.0041C149.3 86.3753 152.242 89.8455 156.796 89.8455C160.055 89.8455 162.539 88.185 163.613 85.2848C163.67 85.1188 163.652 84.9383 163.562 84.7765C163.453 84.5803 163.245 84.4324 163.001 84.3791L161.556 84.1008C161.218 84.0455 160.747 84.2219 160.581 84.6072C159.879 86.2179 158.602 87.1324 157 87.1821C155.456 87.1324 154.041 86.2086 153.394 84.8286C152.866 83.7036 152.788 82.5912 152.78 81.4583L163.223 81.4557C163.44 81.4557 163.665 81.359 163.825 81.1966C163.96 81.0604 164.033 80.8919 164.031 80.7222C164.007 76.5382 162.112 72.0673 156.864 72.0673Z" fill="#100F0D"/>
<path d="M173.893 72.2643C173.689 72.2417 173.493 72.2308 173.303 72.2308C171.55 72.2308 170.127 73.1917 169.139 75.0275L169.142 73.4198C169.141 73.0305 168.756 72.6884 168.318 72.6884H167.014C166.586 72.6884 166.208 73.0319 166.205 73.426L166.203 89.0431C166.203 89.4351 166.581 89.7792 167.012 89.7792L168.533 89.7786C168.929 89.7786 169.375 89.4652 169.379 89.0431L169.38 81.1697C169.38 79.8714 169.5 78.8933 170.115 77.7361C170.994 76.0878 172.22 75.2792 173.866 75.2663C174.278 75.2633 174.64 74.9002 174.64 74.489V73.0282C174.64 72.6459 174.312 72.3104 173.893 72.2643Z" fill="#100F0D"/>
<path d="M189.871 71.9576L188.669 71.9582C188.293 71.9582 187.81 72.2307 187.693 72.6306L183.797 84.9775L179.819 72.6429C179.702 72.2334 179.218 71.9582 178.839 71.9582L177.123 71.9565C176.808 71.9565 176.503 72.0982 176.347 72.317C176.243 72.4635 176.214 72.6296 176.266 72.7845L181.711 89.072C181.815 89.3943 182.093 89.7709 182.532 89.7709H184.609C184.99 89.7709 185.302 89.5092 185.445 89.0706L190.726 72.7898C190.779 72.6352 190.751 72.4686 190.647 72.3217C190.49 72.1008 190.186 71.9576 189.871 71.9576Z" fill="#100F0D"/>
<path d="M193.819 65.6969C192.713 65.6969 191.812 66.6071 191.812 67.7271C191.812 68.8468 192.713 69.7567 193.819 69.7567C194.927 69.7567 195.828 68.8468 195.828 67.7271C195.828 66.6071 194.927 65.6969 193.819 65.6969Z" fill="#100F0D"/>
<path d="M194.646 71.8584L192.998 71.8567C192.549 71.8567 192.141 72.2225 192.141 72.6233L192.133 89.2056C192.133 89.4062 192.236 89.6054 192.413 89.7533C192.576 89.8877 192.783 89.9653 192.992 89.9653L194.652 89.9679H194.653C195.108 89.9639 195.508 89.608 195.508 89.2066V72.6233C195.508 72.2158 195.104 71.8584 194.646 71.8584Z" fill="#100F0D"/>
<path d="M210.048 83.1031L208.671 83.1083C208.287 83.1083 207.965 83.3411 207.822 83.7454C207.319 85.9324 206.181 87.0656 204.454 87.1157C201.091 87.0149 200.83 82.2884 200.83 80.8422C200.83 77.9581 201.821 74.8458 204.586 74.7636C206.255 74.8153 207.469 76.0221 207.833 77.9886C207.902 78.3899 208.208 78.6936 208.625 78.7463L210.098 78.7609C210.538 78.7128 210.883 78.377 210.88 77.9606C210.359 74.4067 207.917 72.1097 204.653 72.1097L204.54 72.1127L204.413 72.1097C199.666 72.1097 197.541 76.5769 197.541 81.004C197.541 85.0629 199.332 89.8024 204.386 89.8024H204.628C207.81 89.8024 210.212 87.553 210.9 83.9058C210.915 83.732 210.856 83.5583 210.734 83.417C210.576 83.234 210.324 83.1166 210.048 83.1031Z" fill="#100F0D"/>
<path d="M223.639 79.0568H215.943C216.119 76.877 217.522 74.6194 219.898 74.5365C222.425 74.6174 223.582 76.8227 223.639 79.0568ZM219.893 72.0673C214.696 72.0673 212.329 76.7003 212.329 81.0041C212.329 86.3753 215.272 89.8455 219.826 89.8455C223.083 89.8455 225.566 88.186 226.641 85.2855C226.697 85.1184 226.679 84.9373 226.589 84.7765C226.478 84.5789 226.277 84.4344 226.028 84.3791L224.586 84.1008C224.246 84.0455 223.776 84.2219 223.61 84.6072C222.907 86.2179 221.629 87.1324 220.028 87.1827C218.484 87.1324 217.069 86.2086 216.423 84.8286C215.894 83.702 215.815 82.5895 215.807 81.4583L226.251 81.4566C226.471 81.4566 226.697 81.359 226.858 81.195C226.991 81.058 227.063 80.8893 227.06 80.7222C227.036 76.5382 225.141 72.0673 219.893 72.0673Z" fill="#100F0D"/>
<path d="M240.144 80.5355C239.166 79.8273 237.99 79.5912 236.816 79.3547L234.561 78.9331C232.944 78.6648 232.008 78.2271 232.008 76.7871C232.008 74.8236 234.424 74.6596 234.896 74.6468C236.517 74.6881 237.735 75.4169 238.325 76.6993C238.467 77.0013 238.779 77.2039 239.104 77.2039C239.16 77.2039 239.215 77.1977 239.27 77.186L240.676 76.8724C240.906 76.8213 241.12 76.6619 241.235 76.4556C241.326 76.2915 241.346 76.1131 241.291 75.9533C240.431 73.4235 238.244 72.0865 234.935 72.0865C231.947 72.0932 228.754 73.4333 228.754 77.1765C228.754 79.7354 230.347 81.3601 233.494 82.006L236.02 82.4911C237.406 82.7586 238.823 83.2345 238.823 84.7351C238.823 86.9566 236.259 87.1831 235.484 87.1992C233.872 87.1645 231.809 86.4931 231.299 84.7252C231.206 84.359 230.752 84.1019 230.346 84.1851L228.877 84.4914C228.654 84.5391 228.451 84.6854 228.333 84.882C228.235 85.0458 228.207 85.2275 228.253 85.3935C229.011 88.1416 231.641 89.7988 235.288 89.8267L235.369 89.8273C238.627 89.8273 242.108 88.4208 242.108 84.4754C242.108 82.8683 241.392 81.432 240.144 80.5355Z" fill="#100F0D"/>
<path fill-rule="evenodd" clip-rule="evenodd" d="M173.147 39.932V36.1665C173.149 35.5955 173.579 35.2122 174.095 35.2127L190.824 35.2122C191.358 35.2122 191.789 35.6048 191.789 36.1624V39.3915C191.784 39.932 191.331 40.6388 190.528 41.7612L181.864 54.2374C185.079 54.1604 188.482 54.6459 191.404 56.3023C192.064 56.6757 192.24 57.2297 192.293 57.7706V61.7885C192.293 62.3425 191.692 62.9828 191.061 62.6492C185.912 59.9287 179.078 59.6317 173.383 62.6807C172.802 62.9937 172.193 62.3633 172.193 61.8093V57.9914C172.193 57.3823 172.205 56.3358 172.815 55.4038L182.856 40.8806L174.115 40.8786C173.58 40.8786 173.152 40.4947 173.147 39.932Z" fill="#100F0D"/>
<path fill-rule="evenodd" clip-rule="evenodd" d="M112.123 63.4417H107.033C106.549 63.4097 106.162 63.0418 106.123 62.5726L106.127 36.2307C106.127 35.7036 106.567 35.2826 107.109 35.2826L111.849 35.28C112.345 35.3079 112.742 35.6855 112.776 36.1645V39.6063H112.87C114.104 36.2788 116.433 34.7291 119.568 34.7291C122.75 34.7291 124.746 36.2788 126.172 39.6063C127.408 36.2788 130.21 34.7291 133.205 34.7291C135.343 34.7291 137.668 35.6146 139.094 37.6091C140.709 39.8276 140.376 43.0405 140.376 45.8688L140.373 62.4926C140.373 63.0182 139.934 63.4417 139.392 63.4417H134.309C133.797 63.4097 133.395 62.998 133.395 62.495V48.5291C133.395 47.4211 133.489 44.6484 133.252 43.5961C132.87 41.8208 131.73 41.3247 130.259 41.3247C129.022 41.3247 127.739 42.1562 127.216 43.4836C126.694 44.8161 126.742 47.0332 126.742 48.5291V62.4926C126.742 63.0182 126.303 63.4417 125.761 63.4417H120.677C120.167 63.4097 119.764 62.998 119.764 62.495L119.757 48.5291C119.757 45.591 120.233 41.2692 116.623 41.2692C112.965 41.2692 113.108 45.4809 113.108 48.5291L113.105 62.4926C113.107 63.0182 112.667 63.4417 112.123 63.4417Z" fill="#100F0D"/>
<path fill-rule="evenodd" clip-rule="evenodd" d="M206.238 40.104C202.483 40.104 202.246 45.2586 202.246 48.4748C202.246 51.6892 202.199 58.562 206.192 58.562C210.136 58.562 210.325 53.0188 210.325 49.638C210.325 47.4211 210.231 44.7612 209.566 42.6546C208.994 40.8247 207.855 40.104 206.238 40.104ZM206.192 34.7291C213.745 34.7291 217.832 41.2692 217.832 49.5808C217.832 57.6201 213.316 63.9951 206.192 63.9951C198.78 63.9951 194.74 57.4532 194.74 49.305C194.74 41.1015 198.825 34.7291 206.192 34.7291Z" fill="#100F0D"/>
<path fill-rule="evenodd" clip-rule="evenodd" d="M227.629 63.4417H222.558C222.047 63.4097 221.644 62.998 221.644 62.495L221.637 36.1412C221.679 35.6612 222.101 35.2826 222.612 35.2826L227.335 35.28C227.78 35.3048 228.145 35.61 228.239 36.0181V40.0488H228.335C229.759 36.4453 231.755 34.7291 235.269 34.7291C237.55 34.7291 239.785 35.5583 241.209 37.8315C242.539 39.9371 242.539 43.4836 242.539 46.0338V62.611C242.482 63.0782 242.069 63.4417 241.566 63.4417H236.462C235.991 63.4107 235.612 63.06 235.555 62.611V48.3075C235.555 45.4253 235.889 41.2116 232.371 41.2116C231.137 41.2116 229.998 42.045 229.427 43.3183C228.714 44.9252 228.619 46.5325 228.619 48.3075V62.4926C228.611 63.0182 228.17 63.4417 227.629 63.4417Z" fill="#100F0D"/>
<path fill-rule="evenodd" clip-rule="evenodd" d="M164.942 63.375C164.604 63.6787 164.121 63.6989 163.741 63.4945C162.051 62.0777 161.747 61.4208 160.823 60.0734C158.029 62.943 156.051 63.8038 152.433 63.8038C148.147 63.8038 144.815 61.1369 144.815 55.8041C144.815 51.6389 147.051 48.8056 150.241 47.4159C153.003 46.1935 156.86 45.9709 159.812 45.6365V44.9708C159.812 43.7493 159.907 42.3043 159.192 41.2494C158.574 40.305 157.384 39.9171 156.335 39.9171C154.394 39.9171 152.669 40.9207 152.244 42.9998C152.158 43.4614 151.821 43.9201 151.36 43.9423L146.428 43.4035C146.011 43.3089 145.549 42.9731 145.669 42.332C146.803 36.2959 152.207 34.4721 157.051 34.4721C159.525 34.4721 162.764 35.1383 164.716 37.0268C167.191 39.3609 166.953 42.4714 166.953 45.8604V53.8562C166.953 56.2614 167.944 57.317 168.876 58.6134C169.199 59.0809 169.272 59.6349 168.857 59.9778C167.818 60.8561 165.971 62.4725 164.956 63.3864L164.942 63.375ZM159.812 50.8598C159.812 52.8601 159.859 54.5282 158.859 56.3044C158.049 57.75 156.763 58.638 155.334 58.638C153.384 58.638 152.242 57.1386 152.242 54.9155C152.242 50.5452 156.131 49.7495 159.812 49.7495V50.8598Z" fill="#100F0D"/>
<path fill-rule="evenodd" clip-rule="evenodd" d="M98.223 63.375C97.8865 63.6787 97.3997 63.6989 97.0191 63.4945C95.329 62.0777 95.0264 61.4208 94.1016 60.0734C91.3092 62.943 89.3298 63.8038 85.71 63.8038C81.425 63.8038 78.092 61.1369 78.092 55.8041C78.092 51.6389 80.3309 48.8056 83.5208 47.4159C86.283 46.1935 90.1397 45.9709 93.0911 45.6365V44.9708C93.0911 43.7493 93.187 42.3043 92.472 41.2494C91.8534 40.305 90.6619 39.9171 89.616 39.9171C87.6746 39.9171 85.9475 40.9207 85.5244 42.9998C85.4361 43.4614 85.1012 43.9201 84.6406 43.9423L79.7067 43.4035C79.2902 43.3089 78.8275 42.9731 78.947 42.332C80.0806 36.2959 85.4854 34.4721 90.3285 34.4721C92.8059 34.4721 96.0425 35.1383 97.9952 37.0268C100.471 39.3609 100.232 42.4714 100.232 45.8604V53.8562C100.232 56.2614 101.224 57.317 102.154 58.6134C102.478 59.0809 102.551 59.6349 102.138 59.9778C101.097 60.8561 99.2494 62.4725 98.2348 63.3864L98.223 63.375ZM93.0911 50.8598C93.0911 52.8601 93.1378 54.5282 92.1396 56.3044C91.3307 57.75 90.0433 58.638 88.6168 58.638C86.6625 58.638 85.5208 57.1386 85.5208 54.9155C85.5208 50.5452 89.4088 49.7495 93.0911 49.7495V50.8598Z" fill="#100F0D"/>
</g>
<path d="M36.3144 148.519V148.831H47.9936V158.521H41.1287V181H30.1413V127.12H48.8277V137.194H41.1287V145.898L36.3144 148.519ZM71.8998 137.218H66.8703V181H55.8829V137.218H50.8534V127.12H71.8998V137.218ZM80.0755 148.519V148.831H91.7547V158.521H84.8898V168.065L80.0755 170.59V170.902H92.5888V180.977H73.9024V127.12H92.5888V137.194H84.8898V145.898L80.0755 148.519ZM107.343 161.141H105.579V181H94.5914V127.12H108.558C115.732 127.12 120.546 131.495 120.546 138.132V150.442C120.546 153.759 119.33 156.453 117.256 158.28L121.523 180.977H110.535L107.341 161.141H107.343ZM107.581 137.219H105.604V148.831L100.789 151.452V151.765H107.583C108.727 151.765 109.561 150.995 109.561 149.769V139.142C109.561 137.989 108.727 137.219 107.583 137.219H107.581ZM122.526 127.12H134.038L136.016 164.05V169.891H137.159V164.05L139.067 127.12H150.128L144.645 181H128.009L122.526 127.12ZM158.302 148.519V148.831H169.981V158.521H163.116V168.065L158.302 170.59V170.902H170.815V180.977H152.129V127.12H170.815V137.194H163.116V145.898L158.302 148.519ZM185.544 161.141H183.78V181H172.793V127.12H186.759C193.933 127.12 198.747 131.495 198.747 138.132V150.442C198.747 153.759 197.533 156.453 195.459 158.28L199.726 180.977H188.736L185.544 161.141ZM185.759 137.219H183.782V148.831L178.967 151.452V151.765H185.761C186.905 151.765 187.739 150.995 187.739 149.769V139.142C187.739 137.989 186.903 137.219 185.759 137.219ZM234.025 148.519V148.831H245.705V158.521H238.84V168.065L234.025 170.59V170.902H246.539V180.977H227.852V127.12H246.539V137.194H238.84V145.898L234.025 148.519ZM200.729 169.363V161.67H211.382V169.363C211.382 170.493 212.193 171.238 213.313 171.238C214.505 171.238 215.243 170.491 215.243 169.363V163.473C215.243 157.944 200.894 156.91 200.894 144.913V138.637C200.894 131.617 205.853 127 213.313 127C220.774 127 225.731 131.617 225.731 138.637V145.418H215.053V138.494C215.053 137.461 214.386 136.787 213.288 136.787C212.264 136.787 211.526 137.461 211.526 138.494V143.64C211.526 149.073 225.875 150.203 225.875 162.129V169.367C225.875 176.387 220.845 181.004 213.313 181.004C205.733 181.004 200.729 176.387 200.729 169.367V169.363ZM22.6576 127.12H6.01988L0.538696 181H11.5972L12.7176 159.554H7.75918V159.265L12.8118 156.669L13.5037 144.07V138.203H14.6472V144.07L16.6267 181H28.1637L22.6576 127.12Z" fill="white"/>
<g clip-path="url(#clip1_61_629)">
<path d="M183.539 218H63.5387V372H183.539V218Z" fill="#FF0000"/>
<path d="M94.1246 315.554H81.1824C81.1824 315.554 74.8121 316.414 74.7324 320.665C74.6528 324.917 74.7324 325.654 74.7324 325.654C74.7324 325.654 76.3543 329.088 80.5731 329.905H87.6746C87.6746 329.905 89.784 331.091 87.5528 332.276H74.6949V338.082H88.7715C88.7715 338.082 94.0074 337.511 94.1293 333.953C94.2512 330.396 94.1293 328.148 94.1293 328.148C94.1293 328.148 92.8309 324.057 89.5449 324.057C86.259 324.057 81.1074 324.014 81.1074 324.014C81.1074 324.014 79.8887 323.074 81.1074 321.6C82.7293 321.6 94.1856 321.558 94.1856 321.558L94.1293 315.549L94.1246 315.554Z" fill="white"/>
<path d="M108.571 315.554C102.079 315.511 96.4824 315.554 96.4824 315.554V338.082H102.164V331.294H110.521C110.521 331.294 114.253 331.214 115.959 325.814V320.906C115.959 320.906 115.068 315.592 108.576 315.549L108.571 315.554ZM108.815 325.328H102.567V321.728H108.815C111.248 323.688 108.815 325.328 108.815 325.328Z" fill="white"/>
<path d="M128.531 315.54H123.173L112.706 338.087H118.546L120.253 334.572H131.207L132.829 338.087H138.187L128.531 315.54ZM123.501 328.516L125.854 323.202L128.128 328.516H123.501Z" fill="white"/>
<path d="M156.984 321.728V315.554H146.09C146.09 315.554 136.289 317.661 136.786 326.811C137.282 335.956 145.443 338.087 145.443 338.087H156.989V331.955H146.203C146.203 331.955 138.628 327.321 146.203 321.733H156.989L156.984 321.728Z" fill="white"/>
<path d="M159.178 315.54V338.087H176.709V331.951H164.915V329.99H176.709V323.528H165.454V321.156H176.709V315.54H159.178Z" fill="white"/>
<path d="M96.4778 340.35V363.138H102.567V354.743H111.895V363.138H117.956V340.35H111.572V348.635H102.567V340.35H96.4778Z" fill="white"/>
<path d="M94.1246 340.402H81.1824C81.1824 340.402 74.8121 341.261 74.7324 345.513C74.6528 349.764 74.7324 350.501 74.7324 350.501C74.7324 350.501 76.3543 353.936 80.5731 354.753H87.6746C87.6746 354.753 89.784 355.939 87.5528 357.124H74.6949V362.93H88.7715C88.7715 362.93 94.0074 362.358 94.1293 358.801C94.2512 355.244 94.1293 352.996 94.1293 352.996C94.1293 352.996 92.8309 348.905 89.5449 348.905C86.259 348.905 81.1074 348.862 81.1074 348.862C81.1074 348.862 79.8887 347.922 81.1074 346.448C82.7293 346.448 94.1856 346.406 94.1856 346.406L94.1293 340.397L94.1246 340.402Z" fill="white"/>
<path d="M120.014 340.392V362.944H137.54V356.808H125.746V354.847H137.54V348.385H126.286V346.014H137.54V340.392H120.014Z" fill="white"/>
<path d="M139.453 340.468V363.015H156.984V356.883H145.19V354.923H156.984V348.461H145.729V346.089H156.984V340.468H139.453Z" fill="white"/>
<path d="M171.272 340.487C164.779 340.444 159.182 340.487 159.182 340.487V363.015H164.864V356.227H173.222C173.222 356.227 176.953 356.146 178.659 350.747V345.839C178.659 345.839 177.768 340.524 171.276 340.482L171.272 340.487ZM171.515 350.26H165.267V346.661H171.515C173.948 348.621 171.515 350.26 171.515 350.26Z" fill="white"/>
<path d="M82.9684 248.299L80.1371 252.711C80.1371 252.711 80.1324 252.721 80.1278 252.726C80.0434 252.877 78.5246 255.584 77.5356 258.489C76.5465 261.394 77.1653 263.406 77.1653 263.406C77.1653 263.406 78.0699 266.42 83.5403 265.206C88.1856 264.176 95.1043 259.703 97.0778 258.38C97.3215 258.215 97.6543 258.38 97.6778 258.673L98.3809 267.422C98.3809 267.469 98.3809 267.511 98.3668 267.554C98.2684 267.913 97.7856 269.656 97.3356 270.743C97.3121 270.795 97.2793 270.847 97.2324 270.884C95.7981 272.16 95.2449 273.067 95.2449 273.067C95.2449 273.067 94.4528 274.078 94.0778 276.015C94.0731 276.043 94.0684 276.071 94.0684 276.1C94.0684 278.084 94.2418 279.751 94.2793 280.091C94.2793 280.134 94.2934 280.172 94.3121 280.209C94.434 280.474 94.9778 281.598 95.5449 282.189C95.6903 282.34 95.6762 282.581 95.5309 282.732C95.1043 283.167 94.6778 283.757 94.5137 283.993C94.4668 284.059 94.4434 284.135 94.4434 284.215C94.4528 285.056 94.6074 289.96 97.134 290.659C97.2887 290.701 97.3871 290.843 97.4059 291.004C97.8981 295.236 101.006 299.96 107.775 299.294C108.009 299.27 108.211 299.455 108.206 299.691C108.168 301.377 107.929 302.884 107.878 303.177C107.873 303.215 107.859 303.248 107.845 303.281L105.792 307.523C105.792 307.523 105.778 307.551 105.773 307.566C105.679 307.844 104.897 310.4 108.281 309.819C108.398 309.8 108.501 309.72 108.562 309.616C110.99 305.128 111.984 302.577 112.12 302.228C112.129 302.199 112.139 302.171 112.143 302.138C112.448 299.611 112.767 298.5 112.865 298.193C112.884 298.132 112.917 298.08 112.964 298.038L116.198 294.896C116.264 294.835 116.343 294.792 116.432 294.787C118.472 294.731 116.484 301.765 115.036 303.824C114.811 304.146 114.825 304.67 115.059 304.986C116.048 306.337 116.714 307.495 117.553 305.459C118.622 302.861 121.054 296.332 121.509 295.099C121.556 294.976 121.659 294.887 121.786 294.858C122.456 294.707 124.668 294.079 126.351 292.038C126.431 291.944 126.548 291.892 126.67 291.896C130.945 292.151 131.643 291.674 131.643 291.674C131.643 291.674 134.015 291.226 135.197 289.719C135.295 289.591 135.454 289.534 135.604 289.577C137.489 290.087 139.429 289.79 139.987 289.69C140.076 289.676 140.09 290.583 140.057 290.673L136.851 300.371C136.851 300.371 136.232 302.61 139.406 301.604C139.5 301.576 139.579 301.514 139.626 301.429C141.37 298.467 143.329 292.969 143.522 292.421C143.531 292.388 143.54 292.359 143.54 292.326L143.99 287.291C144.009 287.087 144.178 286.936 144.379 286.936L146.85 286.955C147.117 286.955 147.576 287.347 147.525 287.612C147.164 289.454 145.49 295.321 145.228 296.361C145.214 296.412 145.214 296.469 145.218 296.526C145.504 298.25 147.365 297.726 147.923 297.527C148.022 297.49 148.101 297.414 148.143 297.319L151.232 290.21C151.247 290.177 151.256 290.139 151.261 290.106L152.02 284.286C152.034 284.192 152.076 284.107 152.147 284.045C152.578 283.667 154.186 282.146 154.701 279.869C154.72 279.789 154.762 279.713 154.828 279.661C157.565 277.408 159.473 273.407 158.831 271.097C158.184 266.68 156.337 265.376 155.906 264.705C155.864 264.639 155.84 264.559 155.845 264.479C155.882 263.572 156 257.851 152.84 255.91C152.648 255.791 152.597 255.522 152.742 255.352C153.304 254.672 154.218 254.469 154.472 254.426C154.523 254.417 154.565 254.398 154.607 254.374C155.395 253.859 162.075 250.028 150.182 242.035C150.145 242.012 149.507 241.61 149.465 241.605C145.256 240.935 144.084 240.439 143.784 240.273C143.728 240.24 143.681 240.193 143.648 240.136L142.134 237.595C142.068 237.481 142.059 237.345 142.115 237.226C142.472 236.48 143.545 233.702 140.151 233.121C140.118 233.117 140.09 233.112 140.057 233.117C139.678 233.14 137.086 233.395 137.629 236.197C137.704 237.892 138.656 238.303 139.19 238.322C139.326 238.327 139.729 238.554 139.795 238.672L140.423 240.028C140.554 240.273 140.301 240.486 140.029 240.519C139.5 240.58 139.195 240.618 138.707 240.869C138.525 240.963 138.473 240.665 138.361 240.495C137.109 238.625 137.643 238.488 137.643 238.488C137.643 238.488 137.976 237.108 137.39 235.616C136.851 234.241 134.77 234.624 134.465 234.666C134.437 234.666 134.414 234.675 134.386 234.69C134.09 234.808 132.201 235.649 132.572 237.604C132.942 239.56 133.12 239.626 134.822 240.198C134.939 240.236 135.365 240.363 135.403 240.476C135.745 241.535 136.143 242.224 136.289 242.574C136.34 242.701 136.326 242.843 136.247 242.952C135.895 243.438 134.939 244.799 134.681 245.446C134.62 245.597 134.479 245.701 134.315 245.696C131.278 245.635 115.893 244.463 112.373 244.194C112.068 244.171 111.909 243.816 112.097 243.571C114.178 240.835 122.732 228.964 117.904 224.68C115.964 222.587 110.353 224.802 109.931 224.973C109.912 224.982 109.898 224.987 109.879 224.996L100.636 230.504C100.547 230.556 100.439 230.57 100.34 230.547C99.1028 230.211 90.7449 228.119 87.1449 232.177C83.2684 236.546 80.8918 237.061 83.034 247.997C83.0528 248.096 83.034 248.2 82.9824 248.285L82.9684 248.299Z" fill="black" stroke="white" stroke-miterlimit="10"/>
<path d="M85.3074 246.174C85.3074 246.174 82.7105 239.073 87.7777 234.713C92.8449 230.353 95.0105 232.224 99.0277 232.285C86.2965 245.555 85.3074 246.178 85.3074 246.178V246.174Z" fill="white" stroke="white" stroke-miterlimit="10"/>
<path d="M129.998 250.661C128.639 249.853 127.153 248.729 126.722 247.86C126.703 247.827 126.661 247.789 126.604 247.747L126.468 245.243L118.007 244.634L117.862 245.096C114.548 244.256 111.576 243.561 111.576 243.561H101.315C96.9278 243.561 96.5575 247.921 96.5575 247.921L97.0731 258.385L96.009 272.098C96.009 272.098 97.2043 271.56 98.0997 271.281C99.0418 265.509 99.7684 265.424 107.001 265.674C111.389 260.378 111.886 262.06 117.262 262.06C118.19 258.073 122.147 257.639 125.854 258.385C126.164 253.897 133.828 254.148 133.828 254.148L134.259 249.849C132.468 250.784 131.911 250.534 129.993 250.657L129.998 250.661Z" fill="white" stroke="white" stroke-miterlimit="10"/>
<path d="M138.946 244.756C138.946 244.756 141.173 243.136 144.848 244.478C148.523 245.819 149.081 248.852 149.081 248.852C149.081 248.852 144.478 249.258 142.265 248.729C140.053 248.2 138.848 245.333 138.942 244.756H138.946Z" fill="white" stroke="white" stroke-miterlimit="10"/>
</g>
<g clip-path="url(#clip2_61_629)">
<path d="M8.21705 433.534C8.21705 433.534 8.43396 427.416 16.098 421.408C23.762 415.401 51.3042 410.993 51.3042 410.993C51.3042 410.993 74.6288 406.806 83.1556 410.562C91.6825 414.318 93.196 420.33 93.196 420.33C98.7006 434.981 101.458 448.343 101.945 452.204C102.431 456.066 103.564 466.05 103.564 470.232C103.564 474.415 103.347 480.964 103.077 482.521C102.807 484.078 101.294 488.208 99.0283 490.143C96.7629 492.079 95.0855 493.526 92.714 495.078C90.3376 496.635 81.0541 498.834 79.5405 499.371C78.027 499.907 66.907 502.216 64.8536 502.696C62.8002 503.179 52.543 504.679 49.1978 504.737C45.8526 504.789 33.7011 505.11 31.7586 504.952C29.8161 504.794 25.0634 502.858 23.5499 501.412C22.0364 499.965 19.7709 499.213 17.3416 490.948C14.9122 482.684 11.22 471.459 10.8633 469.217C10.5066 466.984 7.24821 443.514 8.21705 433.534Z" fill="#20C5F5"/>
<path d="M113.85 427.737H137.821C137.821 427.737 138.467 427.574 138.467 428.782V433.29C138.467 433.29 138.303 434.176 137.739 434.258C137.175 434.339 129.964 434.258 129.964 434.258C129.964 434.258 129.154 434.258 129.154 435.144C129.154 436.03 129.072 456.233 129.072 456.233C129.072 456.233 128.749 457.005 128.099 457.005H123.24C123.24 457.005 122.348 457.038 122.348 455.591C122.348 454.145 122.512 435.47 122.512 435.47C122.512 435.47 122.676 434.023 121.056 434.023H114.173C114.173 434.023 113.281 434.344 113.281 433.137V428.791C113.281 428.791 112.877 427.747 113.85 427.747V427.737Z" fill="#666666"/>
<path d="M136.929 449.632C136.929 449.588 136.939 449.555 136.939 449.531C136.866 449.862 136.9 449.938 136.929 449.632Z" fill="#666666"/>
<path d="M136.939 449.531C136.939 449.531 136.943 449.502 136.948 449.488C136.948 449.488 136.943 449.507 136.939 449.531Z" fill="#666666"/>
<path d="M158.306 441.583C158.142 440.697 157.738 439.973 157.256 439.005C156.769 438.038 155.959 437.314 154.585 436.025C153.207 434.737 152.966 434.9 151.264 434.416C149.563 433.932 147.456 434.176 144.299 434.416C141.142 434.655 138.467 436.509 138.467 436.509C137.657 438.522 140.573 440.615 140.573 440.615C140.573 440.615 144.135 439.087 147.639 439.005C151.139 438.924 152.074 442.364 152.074 442.364V443.753H148.348C148.348 443.753 142.034 443.351 139.358 445.799C137.657 447.356 137.107 448.841 136.948 449.488C137.001 449.416 136.996 452.223 137.575 453.737C138.221 455.429 140.65 456.554 141.706 457C142.757 457.446 144.376 457.436 145.673 457.436C146.969 457.436 148.102 457.599 149.153 457.019C150.204 456.444 150.854 455.984 151.418 455.5C151.987 455.017 152.551 454.193 152.551 454.193C152.551 454.193 152.387 454.537 152.387 455.903C152.387 457.268 153.684 456.995 153.684 456.995H156.923C158.056 456.995 158.301 455.261 158.301 455.261C158.301 455.261 158.465 442.464 158.301 441.578L158.306 441.583ZM151.91 450.595L149.481 452.846C149.481 452.846 146.646 453.733 145.35 452.846C144.053 451.96 143.325 451.95 143.325 450.465C143.325 448.98 142.757 449.301 144.053 448.496L145.35 447.691H151.91V450.59V450.595Z" fill="#666666"/>
<path d="M186.976 440.553C185.68 434.981 176.936 434.143 176.936 434.143C176.936 434.143 172.241 433.534 169.812 436.596L168.515 434.143C168.515 434.143 163.17 433.534 163.17 436.112V465.413C163.17 465.413 167.219 468.469 169.484 465.413L169.32 454.787C169.32 454.787 171.427 456.971 174.179 457.005C176.931 457.038 179.847 458.61 185.029 454.202C187.458 448.832 188.268 446.125 186.972 440.558L186.976 440.553ZM181.009 447.778C180.522 450.542 177.394 452.123 177.394 452.123C177.394 452.123 176.42 452.525 173.721 452.123C171.022 451.72 169.484 447.912 169.484 447.912V443.969C169.807 440.428 173.316 439.245 176.15 439.14C178.985 439.034 180.792 442.977 181.009 443.514C181.226 444.05 181.496 445.018 181.009 447.778Z" fill="#666666"/>
<path d="M215.401 440.601C214.104 435.029 205.36 434.191 205.36 434.191C205.36 434.191 200.666 433.582 198.236 436.644L196.94 434.191C196.94 434.191 191.594 433.582 191.594 436.16V465.461C191.594 465.461 195.643 468.517 197.908 465.461L197.745 454.835C197.745 454.835 199.851 457.019 202.603 457.053C205.356 457.086 208.272 458.658 213.453 454.25C215.883 448.879 216.693 446.173 215.396 440.606L215.401 440.601ZM209.433 447.83C208.947 450.595 205.818 452.176 205.818 452.176C205.818 452.176 204.845 452.578 202.145 452.176C199.446 451.773 197.908 447.964 197.908 447.964V444.021C198.231 440.481 201.74 439.298 204.575 439.192C207.409 439.087 209.217 443.03 209.433 443.566C209.65 444.103 209.92 445.071 209.433 447.83Z" fill="#666666"/>
<path d="M235.525 439.973C235.525 439.973 237.467 438.929 237.467 436.715C237.467 434.502 230.179 434.128 230.179 434.128C230.179 434.128 218.153 433.937 219.165 442.67C219.773 444.601 220.096 445.085 220.096 445.085C220.096 445.085 221.19 446.494 222.404 446.934C223.619 447.375 225.846 447.902 228.112 448.223C230.377 448.544 231.515 448.626 232.199 449.268C232.883 449.909 233.211 450.714 232.768 451.241C232.324 451.768 231.837 452.731 229.972 452.77C228.107 452.808 225.075 452.865 224.424 452.353C223.773 451.84 221.792 450.959 220.742 451.237C219.691 451.514 218.717 454.739 219.286 455.342C219.855 455.946 221.918 457.034 223.132 457.153C224.347 457.273 223.499 457.474 229.042 457.517C234.585 457.561 237.222 454.619 237.222 454.619C237.222 454.619 240.827 449.828 237.867 446.771C234.908 443.715 226.569 443.03 226.569 443.03C226.569 443.03 223.089 441.583 226.772 439.187C231.389 439.187 232.965 438.766 235.52 439.973H235.525Z" fill="#666666"/>
<path d="M136.355 469.892C136.355 470.084 136.341 470.256 136.307 470.419C136.273 470.582 136.23 470.716 136.177 470.827C136.124 470.937 136.052 471.023 135.965 471.08C135.878 471.138 135.787 471.167 135.695 471.167C135.502 471.167 135.194 471.023 134.76 470.726C134.326 470.434 133.743 470.113 133.02 469.768C132.292 469.423 131.41 469.107 130.378 468.81C129.342 468.517 128.113 468.369 126.691 468.369C124.874 468.369 123.254 468.68 121.832 469.303C120.41 469.926 119.21 470.779 118.232 471.861C117.253 472.944 116.506 474.233 115.99 475.718C115.475 477.203 115.219 478.808 115.219 480.519C115.219 482.44 115.513 484.15 116.096 485.65C116.68 487.149 117.489 488.419 118.526 489.449C119.562 490.484 120.791 491.269 122.223 491.811C123.654 492.352 125.211 492.625 126.903 492.625C127.992 492.625 129.101 492.501 130.219 492.251C131.342 492.002 132.393 491.624 133.372 491.106V481.898H125.549C125.298 481.898 125.105 481.798 124.98 481.592C124.855 481.386 124.792 481.093 124.792 480.715C124.792 480.509 124.806 480.332 124.84 480.178C124.874 480.025 124.917 479.9 124.98 479.805C125.043 479.709 125.12 479.637 125.216 479.584C125.313 479.532 125.423 479.508 125.549 479.508H134.933C135.073 479.508 135.228 479.532 135.382 479.575C135.541 479.618 135.685 479.694 135.82 479.795C135.955 479.896 136.061 480.039 136.139 480.221C136.216 480.404 136.259 480.629 136.259 480.892V491.461C136.259 491.811 136.201 492.112 136.081 492.362C135.96 492.611 135.69 492.85 135.261 493.075C134.837 493.301 134.268 493.55 133.555 493.823C132.842 494.096 132.109 494.321 131.352 494.503C130.595 494.685 129.829 494.824 129.067 494.92C128.301 495.016 127.544 495.064 126.802 495.064C124.479 495.064 122.406 494.714 120.579 494.019C118.752 493.325 117.215 492.342 115.957 491.073C114.699 489.808 113.739 488.299 113.079 486.545C112.414 484.797 112.086 482.866 112.086 480.753C112.086 478.64 112.448 476.523 113.166 474.698C113.884 472.872 114.896 471.315 116.198 470.026C117.499 468.738 119.061 467.736 120.878 467.027C122.695 466.318 124.7 465.959 126.898 465.959C128.002 465.959 129.053 466.055 130.041 466.246C131.029 466.438 131.916 466.668 132.707 466.941C133.497 467.214 134.167 467.506 134.721 467.818C135.276 468.134 135.647 468.383 135.849 468.565C136.047 468.747 136.182 468.929 136.254 469.102C136.327 469.279 136.36 469.533 136.36 469.873L136.355 469.892Z" fill="#666666"/>
<path d="M157.95 493.919C157.95 494.058 157.901 494.168 157.8 494.244C157.704 494.321 157.574 494.379 157.415 494.412C157.256 494.446 157.039 494.465 156.769 494.465C156.508 494.465 156.292 494.446 156.108 494.412C155.925 494.379 155.785 494.321 155.689 494.244C155.593 494.168 155.54 494.058 155.54 493.919V491.791C154.614 492.716 153.597 493.435 152.479 493.938C151.365 494.441 150.209 494.695 149.013 494.695C147.938 494.695 146.969 494.565 146.116 494.307C145.258 494.048 144.535 493.674 143.942 493.19C143.349 492.707 142.896 492.122 142.578 491.432C142.26 490.747 142.101 489.976 142.101 489.118C142.101 488.064 142.337 487.149 142.805 486.373C143.272 485.597 143.942 484.945 144.805 484.428C145.668 483.91 146.709 483.518 147.919 483.259C149.134 483 150.478 482.871 151.968 482.871H155.058V481.228C155.058 480.413 154.961 479.694 154.768 479.072C154.576 478.449 154.257 477.927 153.819 477.505C153.38 477.083 152.816 476.767 152.117 476.556C151.418 476.346 150.57 476.24 149.567 476.24C148.565 476.24 147.721 476.341 146.945 476.547C146.169 476.748 145.485 476.978 144.902 477.232C144.318 477.486 143.836 477.711 143.456 477.917C143.075 478.123 142.805 478.224 142.641 478.224C142.544 478.224 142.453 478.209 142.376 478.181C142.294 478.152 142.226 478.099 142.169 478.022C142.111 477.946 142.072 477.845 142.048 477.725C142.024 477.606 142.009 477.462 142.009 477.294C142.009 476.997 142.034 476.762 142.082 476.59C142.13 476.417 142.255 476.24 142.458 476.063C142.66 475.886 143.022 475.68 143.537 475.445C144.053 475.205 144.651 474.985 145.326 474.784C145.996 474.583 146.724 474.415 147.5 474.29C148.276 474.166 149.056 474.099 149.833 474.099C151.341 474.099 152.609 474.257 153.65 474.573C154.686 474.889 155.525 475.34 156.166 475.929C156.807 476.518 157.265 477.246 157.54 478.109C157.815 478.971 157.954 479.948 157.954 481.045V493.923L157.95 493.919ZM155.54 484.787H151.732C150.623 484.787 149.654 484.878 148.825 485.06C147.996 485.242 147.302 485.511 146.748 485.86C146.193 486.21 145.784 486.632 145.514 487.125C145.244 487.619 145.109 488.179 145.109 488.807C145.109 489.899 145.49 490.776 146.251 491.427C147.013 492.079 148.088 492.405 149.471 492.405C150.565 492.405 151.582 492.151 152.527 491.638C153.472 491.126 154.474 490.335 155.54 489.271V484.787Z" fill="#666666"/>
<path d="M195.065 493.727C195.065 493.818 195.041 493.895 194.992 493.971C194.944 494.048 194.867 494.105 194.761 494.149C194.655 494.192 194.51 494.23 194.322 494.259C194.134 494.288 193.908 494.302 193.628 494.302C193.339 494.302 193.098 494.288 192.91 494.259C192.722 494.23 192.573 494.192 192.462 494.149C192.351 494.105 192.274 494.048 192.23 493.971C192.192 493.899 192.168 493.818 192.168 493.727V481.97C192.168 481.089 192.081 480.284 191.907 479.556C191.734 478.827 191.459 478.209 191.088 477.692C190.717 477.174 190.249 476.772 189.681 476.489C189.112 476.207 188.442 476.063 187.671 476.063C186.716 476.063 185.752 476.403 184.774 477.079C183.795 477.754 182.725 478.751 181.559 480.059V493.717C181.559 493.808 181.535 493.89 181.486 493.962C181.438 494.038 181.361 494.096 181.255 494.139C181.149 494.182 180.999 494.22 180.811 494.249C180.624 494.278 180.392 494.292 180.113 494.292C179.833 494.292 179.602 494.278 179.414 494.249C179.226 494.22 179.076 494.182 178.961 494.139C178.845 494.096 178.768 494.034 178.729 493.962C178.686 493.885 178.667 493.804 178.667 493.717V481.965C178.667 481.084 178.575 480.279 178.392 479.551C178.209 478.827 177.934 478.205 177.563 477.687C177.192 477.17 176.724 476.767 176.155 476.485C175.586 476.202 174.916 476.058 174.145 476.058C173.191 476.058 172.227 476.398 171.248 477.074C170.27 477.749 169.209 478.746 168.057 480.054V493.713C168.057 493.804 168.033 493.88 167.985 493.957C167.937 494.034 167.86 494.091 167.754 494.134C167.648 494.177 167.503 494.216 167.315 494.244C167.127 494.273 166.891 494.288 166.597 494.288C166.322 494.288 166.091 494.273 165.903 494.244C165.715 494.216 165.565 494.177 165.455 494.134C165.339 494.091 165.262 494.034 165.223 493.957C165.185 493.885 165.161 493.804 165.161 493.713V474.683C165.161 474.683 165.199 474.52 165.238 474.453C165.276 474.381 165.349 474.324 165.459 474.276C165.565 474.228 165.7 474.19 165.864 474.171C166.028 474.151 166.235 474.137 166.501 474.137C166.766 474.137 166.978 474.147 167.146 474.171C167.315 474.19 167.445 474.228 167.537 474.276C167.628 474.324 167.696 474.386 167.734 474.453C167.773 474.525 168.057 474.683 168.057 474.683V477.38C169.248 476.168 170.381 475.292 171.451 474.745C172.521 474.204 173.581 473.931 174.637 473.931C175.509 473.931 176.285 474.027 176.965 474.214C177.645 474.401 178.247 474.669 178.768 475.009C179.288 475.349 179.732 475.761 180.098 476.231C180.464 476.7 180.763 477.227 180.995 477.797C181.713 477.074 182.388 476.461 183.024 475.967C183.66 475.474 184.263 475.076 184.836 474.774C185.41 474.472 185.964 474.257 186.499 474.127C187.034 473.993 187.56 473.931 188.08 473.931C189.382 473.931 190.476 474.142 191.372 474.559C192.264 474.975 192.987 475.541 193.527 476.255C194.067 476.964 194.457 477.797 194.698 478.741C194.934 479.69 195.055 480.696 195.055 481.755V493.717L195.065 493.727Z" fill="#666666"/>
<path d="M219.165 483.46C219.165 483.963 219.021 484.313 218.727 484.5C218.433 484.691 218.148 484.782 217.874 484.782H203.635C203.635 485.961 203.76 487.029 204.016 487.983C204.271 488.936 204.69 489.755 205.274 490.436C205.857 491.116 206.619 491.638 207.558 492.002C208.498 492.366 209.65 492.548 211.019 492.548C211.988 492.548 212.856 492.472 213.627 492.318C214.398 492.165 215.063 491.993 215.623 491.801C216.182 491.609 216.644 491.442 217.006 491.284C217.367 491.13 217.623 491.054 217.777 491.054C217.869 491.054 217.955 491.073 218.033 491.116C218.11 491.159 218.172 491.226 218.216 491.317C218.259 491.408 218.298 491.523 218.322 491.662C218.346 491.801 218.356 491.978 218.356 492.189C218.356 492.29 218.346 492.381 218.331 492.472C218.317 492.563 218.298 492.649 218.274 492.726C218.249 492.802 218.216 492.879 218.168 492.946C218.119 493.018 218.062 493.085 217.984 493.157C217.907 493.229 217.671 493.349 217.271 493.526C216.871 493.703 216.35 493.876 215.704 494.053C215.059 494.23 214.307 494.388 213.453 494.527C212.6 494.666 211.68 494.738 210.696 494.738C209.082 494.738 207.65 494.517 206.406 494.077C205.163 493.636 204.112 492.984 203.269 492.122C202.42 491.26 201.779 490.191 201.34 488.912C200.902 487.638 200.685 486.157 200.685 484.471C200.685 482.785 200.911 481.414 201.365 480.135C201.818 478.861 202.468 477.773 203.317 476.882C204.16 475.991 205.182 475.311 206.373 474.841C207.563 474.372 208.894 474.137 210.354 474.137C211.921 474.137 213.261 474.377 214.369 474.851C215.478 475.33 216.389 475.972 217.102 476.777C217.816 477.582 218.341 478.521 218.669 479.584C218.997 480.648 219.165 481.774 219.165 482.952V483.455V483.46ZM216.249 482.392C216.297 480.37 215.786 478.794 214.726 477.658C213.666 476.523 212.118 475.953 210.089 475.953C209.043 475.953 208.122 476.13 207.332 476.489C206.541 476.849 205.871 477.318 205.322 477.907C204.777 478.497 204.358 479.182 204.064 479.958C203.77 480.739 203.601 481.549 203.558 482.387H216.249V482.392Z" fill="#666666"/>
<path d="M237.168 488.668C237.168 489.578 236.985 490.397 236.614 491.121C236.243 491.844 235.718 492.457 235.033 492.96C234.349 493.464 233.529 493.852 232.575 494.12C231.621 494.388 230.565 494.518 229.413 494.518C228.69 494.518 228.005 494.465 227.36 494.359C226.714 494.254 226.13 494.12 225.605 493.962C225.08 493.804 224.641 493.626 224.279 493.444C223.918 493.262 223.653 493.099 223.484 492.96C223.315 492.822 223.19 492.644 223.113 492.433C223.036 492.223 222.997 491.94 222.997 491.59C222.997 491.408 223.012 491.245 223.046 491.106C223.074 490.967 223.113 490.848 223.161 490.747C223.209 490.651 223.267 490.575 223.344 490.527C223.421 490.479 223.503 490.455 223.6 490.455C223.769 490.455 224.014 490.555 224.337 490.747C224.66 490.944 225.065 491.159 225.547 491.389C226.029 491.619 226.608 491.835 227.278 492.031C227.948 492.227 228.719 492.328 229.596 492.328C230.305 492.328 230.951 492.256 231.534 492.117C232.117 491.978 232.628 491.768 233.057 491.485C233.486 491.202 233.823 490.843 234.06 490.402C234.296 489.961 234.416 489.444 234.416 488.855C234.416 488.265 234.262 487.767 233.953 487.36C233.645 486.953 233.24 486.598 232.744 486.296C232.242 485.995 231.674 485.726 231.037 485.496C230.401 485.266 229.746 485.027 229.076 484.782C228.406 484.538 227.75 484.265 227.114 483.973C226.477 483.681 225.904 483.321 225.407 482.9C224.906 482.478 224.501 481.975 224.198 481.386C223.889 480.796 223.735 480.087 223.735 479.259C223.735 478.597 223.875 477.951 224.149 477.313C224.424 476.676 224.853 476.101 225.431 475.598C226.01 475.095 226.747 474.688 227.649 474.377C228.55 474.07 229.615 473.912 230.844 473.912C231.365 473.912 231.886 473.95 232.401 474.027C232.917 474.103 233.385 474.204 233.809 474.333C234.233 474.458 234.595 474.597 234.903 474.745C235.212 474.894 235.443 475.023 235.607 475.134C235.766 475.244 235.877 475.34 235.93 475.416C235.983 475.493 236.021 475.574 236.045 475.656C236.07 475.737 236.089 475.843 236.103 475.962C236.118 476.082 236.127 476.226 236.127 476.394C236.127 476.561 236.118 476.715 236.094 476.849C236.07 476.983 236.036 477.098 235.992 477.194C235.944 477.294 235.886 477.366 235.819 477.414C235.751 477.462 235.669 477.486 235.578 477.486C235.453 477.486 235.269 477.409 235.024 477.256C234.778 477.103 234.455 476.935 234.055 476.753C233.655 476.571 233.177 476.403 232.623 476.25C232.069 476.097 231.433 476.02 230.71 476.02C229.987 476.02 229.35 476.097 228.806 476.25C228.261 476.403 227.808 476.624 227.456 476.901C227.104 477.179 226.834 477.51 226.661 477.888C226.482 478.267 226.396 478.679 226.396 479.129C226.396 479.747 226.55 480.265 226.858 480.686C227.167 481.108 227.572 481.472 228.083 481.779C228.589 482.085 229.167 482.363 229.813 482.598C230.459 482.837 231.114 483.077 231.784 483.312C232.454 483.546 233.11 483.815 233.756 484.102C234.402 484.39 234.98 484.739 235.486 485.142C235.992 485.549 236.402 486.038 236.711 486.603C237.019 487.173 237.173 487.853 237.173 488.653L237.168 488.668Z" fill="#666666"/>
<path d="M26.0371 461.868H81.8638C81.8638 461.868 86.3996 460.617 86.7225 457C87.0455 453.383 86.7225 432.672 86.7225 432.672C86.7225 432.672 85.209 427.737 81.8638 427.522C78.5187 427.306 66.4249 427.09 52.2779 428.379C38.1308 429.668 24.2054 432.351 24.2054 432.351C24.2054 432.351 17.8332 434.176 18.7008 439.432C19.5684 444.687 21.617 456.995 21.617 456.995C21.617 456.995 23.2366 460.895 26.0419 461.863L26.0371 461.868Z" fill="white"/>
<path d="M43.1244 440.553H42.4158C41.2552 440.553 40.3143 441.488 40.3143 442.642V450.183C40.3143 451.336 41.2552 452.271 42.4158 452.271H43.1244C44.2851 452.271 45.226 451.336 45.226 450.183V442.642C45.226 441.488 44.2851 440.553 43.1244 440.553Z" fill="#59585D"/>
<path d="M63.4268 440.553H62.7183C61.5576 440.553 60.6167 441.488 60.6167 442.642V450.183C60.6167 451.336 61.5576 452.271 62.7183 452.271H63.4268C64.5875 452.271 65.5284 451.336 65.5284 450.183V442.642C65.5284 441.488 64.5875 440.553 63.4268 440.553Z" fill="#59585D"/>
<path d="M52.0175 466.773H61.4939C61.4939 466.773 65.5814 467.899 67.6492 472.93C69.7171 477.96 71.862 482.991 71.862 482.991C71.862 482.991 72.5899 491.202 67.0853 491.724C61.5807 492.247 49.0242 494.379 47.9734 493.737C46.9227 493.095 42.4689 492.366 43.4811 485.645C44.4933 478.923 45.626 472.082 45.626 472.082C45.626 472.082 47.6891 467.818 52.0224 466.769L52.0175 466.773Z" fill="white"/>
</g>
<defs>
<clipPath id="clip0_61_629">
<rect width="238" height="90" fill="white" transform="translate(4.5387)"/>
</clipPath>
<clipPath id="clip1_61_629">
<rect width="120" height="154" fill="white" transform="translate(63.5387 218)"/>
</clipPath>
<clipPath id="clip2_61_629">
<rect width="231" height="96" fill="white" transform="translate(8.0387 409)"/>
</clipPath>
</defs>
</svg>
