<svg width="519" height="199" viewBox="0 0 519 199" fill="none" xmlns="http://www.w3.org/2000/svg">
<g clip-path="url(#clip0_60_285)">
<path d="M123.579 41.708L110.909 37.444L110.909 18.9668L123.595 22.757L123.579 41.708Z" fill="#F68D11"/>
<path d="M126.883 22.757L139.569 18.9668L139.525 37.4312L126.883 41.708L126.883 22.757Z" fill="#F68D11"/>
<path d="M136.985 16.966L125.162 13.2815L113.493 16.966L125.179 20.1247L136.985 16.966Z" fill="#F68D11"/>
<path d="M155.527 41.708L142.858 37.444L142.858 18.9668L155.543 22.757L155.527 41.708Z" fill="#F68D11"/>
<path d="M158.832 22.757L171.517 18.9668L171.473 37.4312L158.832 41.708L158.832 22.757Z" fill="#F68D11"/>
<path d="M168.933 16.966L157.11 13.2815L145.442 16.966L157.127 20.1247L168.933 16.966Z" fill="#F68D11"/>
<path d="M75.6722 49.7622L62.9868 45.972L62.9868 64.4493L75.6568 68.7133L75.6722 49.7622Z" fill="#F68D11"/>
<path d="M78.9609 49.7622L91.6463 45.972L91.6023 64.4369L78.9609 68.7133L78.9609 49.7622Z" fill="#F68D11"/>
<path d="M89.0623 43.9712L77.2395 40.2867L65.5709 43.9712L77.2566 47.1299L89.0623 43.9712Z" fill="#F68D11"/>
<path d="M107.605 68.7133L94.9351 64.4493L94.9351 45.972L107.62 49.7622L107.605 68.7133Z" fill="#F68D11"/>
<path d="M110.909 49.7622L123.595 45.972L123.55 64.4369L110.909 68.7133L110.909 49.7622Z" fill="#F68D11"/>
<path d="M121.011 43.9712L109.188 40.2867L97.5192 43.9712L109.205 47.1299L121.011 43.9712Z" fill="#F68D11"/>
<path d="M91.6309 95.7184L78.9609 91.4545L78.9609 72.9772L91.6463 76.7674L91.6309 95.7184Z" fill="#F68D11"/>
<path d="M94.9351 76.7674L107.62 72.9772L107.576 91.4421L94.9351 95.7184L94.9351 76.7674Z" fill="#F68D11"/>
<path d="M105.036 70.9765L93.2136 67.2919L81.545 70.9765L93.2307 74.1352L105.036 70.9765Z" fill="#F68D11"/>
<path d="M147.739 79.385L146.807 79.3883C146.465 79.3883 146.029 79.6214 145.922 79.9991L143.094 90.0456L140.297 80.0209C140.213 79.7067 139.919 79.3883 139.52 79.3883L138.416 79.3883C138.019 79.3883 137.729 79.7109 137.649 80.0274L135.047 89.9478L132.358 79.9967C132.252 79.6328 131.805 79.3883 131.455 79.3883L130.113 79.386C129.827 79.386 129.56 79.5102 129.418 79.71C129.321 79.8455 129.294 79.9991 129.339 80.1327L133.492 94.9599C133.584 95.2717 133.851 95.5858 134.243 95.5858L135.577 95.5858C135.937 95.5858 136.253 95.3209 136.344 94.9452L138.901 85.0685L141.682 94.9565C141.766 95.2593 142.035 95.5858 142.429 95.5858L143.741 95.5858C144.106 95.5858 144.414 95.33 144.504 94.9552L148.502 80.1388C148.549 79.9961 148.521 79.8375 148.426 79.7039C148.285 79.5072 148.022 79.385 147.739 79.385Z" fill="#100F0D"/>
<path d="M159.272 85.6801L152.226 85.6801C152.388 83.686 153.672 81.6184 155.847 81.5389C158.162 81.6151 159.221 83.6353 159.272 85.6801ZM155.842 79.279C151.082 79.279 148.915 83.5224 148.915 87.4647C148.915 92.385 151.609 95.5639 155.78 95.5639C158.765 95.5639 161.04 94.0432 162.023 91.3862C162.076 91.2342 162.059 91.0693 161.977 90.9215C161.877 90.7419 161.687 90.6065 161.463 90.5567L160.142 90.3019C159.787 90.2458 159.38 90.4577 159.246 90.7651C158.604 92.2414 157.434 93.079 155.966 93.1227C154.553 93.0786 153.256 92.2323 152.662 90.9679C152.179 89.9351 152.107 88.917 152.1 87.8817L161.666 87.8784C161.866 87.8784 162.074 87.7894 162.221 87.6396C162.343 87.5154 162.41 87.3611 162.408 87.2066C162.385 83.3738 160.648 79.279 155.842 79.279Z" fill="#100F0D"/>
<path d="M174.177 87.4884C174.177 88.3962 174.014 92.9289 170.821 93.0449C169.75 93.0036 168.669 92.3692 168.065 91.4313C167.62 90.7219 167.36 89.7413 167.293 88.5279L167.293 85.8611C167.345 83.8181 168.771 81.5762 170.81 81.4894C174.015 81.6169 174.177 86.5086 174.177 87.4884ZM171.322 79.1414L171.068 79.1414C169.488 79.1414 168.247 79.8033 167.293 81.1598L167.292 74.9093C167.292 74.5582 166.932 74.2384 166.535 74.2384L165.16 74.2384C164.8 74.2384 164.398 74.5255 164.397 74.9093L164.397 94.4213C164.399 94.7757 164.758 95.0977 165.155 95.0977L165.559 95.0955C165.94 95.0955 166.212 94.7855 166.303 94.4975L166.734 93.1202C167.733 94.5519 169.239 95.3929 170.851 95.3929L171.097 95.3929C175.342 95.3929 177.242 91.2294 177.242 87.1033C177.242 85.0494 176.74 83.0856 175.865 81.7156C174.853 80.1279 173.112 79.1414 171.322 79.1414Z" fill="#100F0D"/>
<path d="M192.305 87.0493C191.411 86.4012 190.335 86.1847 189.258 85.9677L187.192 85.5815C185.71 85.3358 184.852 84.9349 184.852 83.6159C184.852 82.2216 186.285 81.6886 187.5 81.6555C188.984 81.6932 190.1 82.3608 190.641 83.5349C190.77 83.8115 191.055 83.9977 191.352 83.9977C191.402 83.9977 191.454 83.992 191.503 83.9812L192.792 83.694C193.003 83.6472 193.199 83.5017 193.304 83.3126C193.388 83.1625 193.407 82.9985 193.356 82.8521C192.568 80.5349 190.565 79.3103 187.535 79.3103C184.797 79.3164 181.871 80.544 181.871 83.9725C181.871 86.3159 183.332 87.804 186.215 88.3962L188.527 88.8406C189.797 89.0856 191.095 89.5214 191.095 90.896C191.095 92.9308 188.746 93.1383 188.037 93.1531C186.444 93.1184 184.641 92.402 184.203 90.885C184.115 90.5515 183.699 90.3156 183.334 90.3922L181.985 90.6728C181.782 90.7159 181.597 90.849 181.489 91.0287C181.398 91.1784 181.372 91.346 181.414 91.4991C182.11 94.0162 184.519 95.5341 187.86 95.5597L187.934 95.5602C190.918 95.5602 194.105 94.272 194.105 90.6581C194.105 89.1871 193.449 87.8718 192.305 87.0493Z" fill="#100F0D"/>
<path d="M205.944 85.6947L198.895 85.6947C199.056 83.6988 200.34 81.6303 202.516 81.5544C204.83 81.6284 205.89 83.6484 205.944 85.6947ZM202.512 79.2927C197.751 79.2927 195.583 83.5363 195.583 87.4784C195.583 92.3983 198.278 95.5768 202.45 95.5768C205.435 95.5768 207.71 94.056 208.694 91.3995C208.746 91.2473 208.73 91.0821 208.647 90.9339C208.547 90.7542 208.357 90.6187 208.133 90.5698L206.81 90.315C206.5 90.2643 206.068 90.4258 205.916 90.7787C205.274 92.2541 204.103 93.0917 202.637 93.1373C201.222 93.0917 199.926 92.2456 199.334 90.9816C198.85 89.9511 198.778 88.9322 198.771 87.8944L208.336 87.8921C208.535 87.8921 208.741 87.8036 208.888 87.6548C209.011 87.5301 209.078 87.3757 209.076 87.2203C209.054 83.3878 207.319 79.2927 202.512 79.2927Z" fill="#100F0D"/>
<path d="M218.109 79.4731C217.923 79.4524 217.743 79.4424 217.569 79.4424C215.964 79.4424 214.66 80.3226 213.755 82.0041L213.758 80.5315C213.757 80.1749 213.404 79.8616 213.003 79.8616L211.808 79.8616C211.417 79.8616 211.071 80.1762 211.068 80.5373L211.066 94.842C211.066 95.201 211.412 95.5162 211.807 95.5162L213.201 95.5156C213.563 95.5156 213.972 95.2286 213.975 94.842L213.976 87.6302C213.976 86.441 214.086 85.5451 214.649 84.4851C215.454 82.9754 216.578 82.2347 218.085 82.2229C218.463 82.2201 218.794 81.8875 218.794 81.5109L218.794 80.1729C218.794 79.8227 218.493 79.5153 218.109 79.4731Z" fill="#100F0D"/>
<path d="M232.745 79.1922L231.644 79.1927C231.299 79.1927 230.857 79.4424 230.75 79.8087L227.182 91.118L223.538 79.82C223.43 79.4448 222.987 79.1927 222.64 79.1927L221.068 79.1913C220.78 79.1913 220.501 79.321 220.358 79.5215C220.262 79.6556 220.236 79.8078 220.283 79.9497L225.27 94.8685C225.366 95.1636 225.62 95.5086 226.023 95.5086L227.925 95.5086C228.274 95.5086 228.56 95.2689 228.691 94.8672L233.529 79.9545C233.577 79.8129 233.551 79.6603 233.456 79.5257C233.312 79.3234 233.033 79.1922 232.745 79.1922Z" fill="#100F0D"/>
<path d="M236.362 73.4576C235.348 73.4576 234.523 74.2913 234.523 75.3172C234.523 76.3428 235.348 77.1762 236.362 77.1762C237.376 77.1762 238.201 76.3428 238.201 75.3172C238.201 74.2913 237.376 73.4576 236.362 73.4576Z" fill="#100F0D"/>
<path d="M237.119 79.1013L235.609 79.0998C235.198 79.0998 234.824 79.4348 234.824 79.802L234.817 94.9908C234.817 95.1745 234.911 95.357 235.073 95.4925C235.222 95.6156 235.413 95.6866 235.604 95.6866L237.124 95.689L237.125 95.689C237.542 95.6853 237.908 95.3594 237.908 94.9917L237.908 79.802C237.908 79.4287 237.539 79.1013 237.119 79.1013Z" fill="#100F0D"/>
<path d="M251.226 89.4011L249.966 89.406C249.614 89.406 249.319 89.6192 249.187 89.9895C248.727 91.9927 247.684 93.0307 246.103 93.0766C243.022 92.9843 242.783 88.655 242.783 87.3302C242.783 84.6885 243.691 81.8378 246.223 81.7625C247.752 81.8098 248.864 82.9153 249.198 84.7165C249.261 85.0841 249.541 85.3622 249.923 85.4105L251.272 85.4238C251.675 85.3798 251.991 85.0722 251.989 84.6908C251.511 81.4356 249.274 79.3316 246.285 79.3316L246.182 79.3344L246.065 79.3316C241.717 79.3316 239.77 83.4234 239.77 87.4785C239.77 91.1963 241.411 95.5375 246.04 95.5375L246.262 95.5375C249.177 95.5375 251.377 93.4771 252.007 90.1364C252.021 89.9773 251.967 89.8181 251.855 89.6887C251.71 89.5211 251.479 89.4136 251.226 89.4011Z" fill="#100F0D"/>
<path d="M263.676 85.6947L256.626 85.6947C256.787 83.6982 258.072 81.6303 260.249 81.5544C262.563 81.6284 263.623 83.6484 263.676 85.6947ZM260.244 79.2927C255.484 79.2927 253.316 83.5363 253.316 87.4784C253.316 92.3983 256.011 95.5768 260.182 95.5768C263.166 95.5768 265.441 94.0569 266.426 91.4C266.477 91.247 266.46 91.0812 266.378 90.9339C266.276 90.7528 266.091 90.6205 265.864 90.5698L264.542 90.315C264.231 90.2643 263.801 90.4258 263.649 90.7787C263.005 92.2541 261.834 93.0917 260.368 93.1378C258.954 93.0917 257.658 92.2456 257.066 90.9816C256.581 89.9496 256.509 88.9306 256.502 87.8944L266.068 87.893C266.269 87.893 266.477 87.8036 266.624 87.6533C266.746 87.5278 266.812 87.3733 266.809 87.2203C266.787 83.3878 265.051 79.2927 260.244 79.2927Z" fill="#100F0D"/>
<path d="M278.793 87.0493C277.897 86.4006 276.82 86.1842 275.745 85.9677L273.679 85.5815C272.198 85.3357 271.341 84.9349 271.341 83.6159C271.341 81.8174 273.554 81.6671 273.986 81.6554C275.471 81.6932 276.587 82.3607 277.128 83.5354C277.257 83.812 277.543 83.9976 277.84 83.9976C277.892 83.9976 277.943 83.9919 277.993 83.9812L279.281 83.6939C279.491 83.6471 279.687 83.5011 279.793 83.3122C279.876 83.1619 279.894 82.9985 279.844 82.8521C279.056 80.5349 277.053 79.3102 274.022 79.3102C271.285 79.3163 268.36 80.5439 268.36 83.9725C268.36 86.3164 269.82 87.8045 272.702 88.3962L275.016 88.8405C276.285 89.0856 277.583 89.5214 277.583 90.8959C277.583 92.9307 275.235 93.1382 274.525 93.153C273.049 93.1212 271.158 92.5062 270.692 90.8868C270.606 90.5515 270.191 90.3159 269.819 90.3921L268.473 90.6727C268.269 90.7164 268.083 90.8504 267.975 91.0304C267.885 91.1805 267.859 91.3469 267.902 91.499C268.596 94.0162 271.005 95.5341 274.346 95.5596L274.42 95.5602C277.404 95.5602 280.592 94.2719 280.592 90.6581C280.592 89.186 279.936 87.8704 278.793 87.0493Z" fill="#100F0D"/>
<path fill-rule="evenodd" clip-rule="evenodd" d="M217.426 49.8579L217.426 46.4088C217.428 45.8858 217.822 45.5347 218.294 45.5352L233.618 45.5347C234.107 45.5347 234.502 45.8943 234.502 46.405L234.502 49.3628C234.497 49.8579 234.082 50.5053 233.347 51.5333L225.41 62.9611C228.355 62.8906 231.473 63.3353 234.149 64.8525C234.754 65.1945 234.915 65.702 234.964 66.1974L234.964 69.8777C234.964 70.3851 234.413 70.9716 233.835 70.6661C229.119 68.1741 222.859 67.9021 217.643 70.6949C217.111 70.9816 216.552 70.4042 216.552 69.8967L216.552 66.3997C216.552 65.8417 216.564 64.8832 217.122 64.0295L226.319 50.7268L218.313 50.7249C217.823 50.7249 217.431 50.3733 217.426 49.8579Z" fill="#100F0D"/>
<path fill-rule="evenodd" clip-rule="evenodd" d="M161.531 71.3919L156.868 71.3919C156.425 71.3627 156.07 71.0257 156.035 70.5959L156.038 46.4676C156.038 45.9848 156.441 45.5991 156.937 45.5991L161.279 45.5968C161.734 45.6223 162.097 45.9682 162.128 46.4069L162.128 49.5596L162.215 49.5596C163.345 46.5116 165.478 45.0922 168.349 45.0922C171.265 45.0922 173.093 46.5116 174.398 49.5596C175.531 46.5116 178.097 45.0922 180.841 45.0922C182.799 45.0922 184.929 45.9033 186.235 47.7302C187.714 49.7622 187.409 52.7052 187.409 55.2958L187.407 70.5226C187.407 71.004 187.004 71.3919 186.508 71.3919L181.852 71.3919C181.383 71.3627 181.015 70.9855 181.015 70.5248L181.015 57.7325C181.015 56.7177 181.101 54.1779 180.884 53.2141C180.534 51.5879 179.49 51.1335 178.143 51.1335C177.01 51.1335 175.834 51.8951 175.356 53.111C174.877 54.3315 174.921 56.3623 174.921 57.7325L174.921 70.5226C174.921 71.004 174.519 71.3919 174.022 71.3919L169.365 71.3919C168.899 71.3627 168.529 70.9855 168.529 70.5248L168.523 57.7325C168.523 55.0413 168.959 51.0827 165.653 51.0827C162.302 51.0827 162.432 54.9404 162.432 57.7325L162.43 70.5226C162.431 71.004 162.028 71.3919 161.531 71.3919Z" fill="#100F0D"/>
<path fill-rule="evenodd" clip-rule="evenodd" d="M247.737 50.0154C244.297 50.0154 244.08 54.7368 244.08 57.6828C244.08 60.627 244.037 66.9223 247.694 66.9223C251.307 66.9223 251.48 61.845 251.48 58.7482C251.48 56.7177 251.394 54.2812 250.785 52.3517C250.261 50.6755 249.218 50.0154 247.737 50.0154ZM247.694 45.0922C254.613 45.0922 258.356 51.0827 258.356 58.6958C258.356 66.0595 254.22 71.8988 247.694 71.8988C240.905 71.8988 237.205 65.9067 237.205 58.4432C237.205 50.9291 240.947 45.0922 247.694 45.0922Z" fill="#100F0D"/>
<path fill-rule="evenodd" clip-rule="evenodd" d="M267.33 71.3919L262.685 71.3919C262.217 71.3627 261.848 70.9855 261.848 70.5248L261.841 46.3856C261.88 45.9459 262.267 45.5991 262.735 45.5991L267.061 45.5968C267.468 45.6195 267.803 45.899 267.888 46.2728L267.888 49.9648L267.977 49.9648C269.281 46.6642 271.11 45.0922 274.328 45.0922C276.418 45.0922 278.464 45.8517 279.769 47.9339C280.987 49.8625 280.987 53.111 280.987 55.4469L280.987 70.6311C280.935 71.059 280.556 71.3919 280.096 71.3919L275.42 71.3919C274.989 71.3636 274.642 71.0423 274.59 70.6311L274.59 57.5295C274.59 54.8895 274.895 51.0299 271.674 51.0299C270.543 51.0299 269.5 51.7933 268.977 52.9596C268.324 54.4315 268.237 55.9037 268.237 57.5295L268.237 70.5226C268.229 71.004 267.826 71.3919 267.33 71.3919Z" fill="#100F0D"/>
<path fill-rule="evenodd" clip-rule="evenodd" d="M209.911 71.3309C209.602 71.609 209.159 71.6275 208.811 71.4403C207.262 70.1425 206.984 69.5409 206.138 68.3067C203.579 70.9352 201.767 71.7236 198.453 71.7236C194.527 71.7236 191.475 69.2808 191.475 64.3962C191.475 60.581 193.524 57.9857 196.446 56.7128C198.975 55.5932 202.508 55.3893 205.212 55.083L205.212 54.4732C205.212 53.3544 205.299 52.0308 204.644 51.0645C204.078 50.1995 202.988 49.8442 202.027 49.8442C200.249 49.8442 198.669 50.7634 198.28 52.6678C198.201 53.0907 197.893 53.5108 197.47 53.5312L192.953 53.0376C192.57 52.951 192.147 52.6433 192.258 52.0561C193.296 46.5273 198.246 44.8567 202.683 44.8567C204.949 44.8567 207.916 45.467 209.704 47.1967C211.971 49.3347 211.753 52.1838 211.753 55.288L211.753 62.6119C211.753 64.815 212.661 65.7819 213.514 66.9693C213.81 67.3976 213.877 67.905 213.497 68.2191C212.545 69.0236 210.853 70.5042 209.924 71.3412L209.911 71.3309ZM205.212 59.8673C205.212 61.6995 205.255 63.2274 204.339 64.8544C203.597 66.1785 202.419 66.9919 201.111 66.9919C199.324 66.9919 198.278 65.6185 198.278 63.5822C198.278 59.5792 201.84 58.8504 205.212 58.8504L205.212 59.8673Z" fill="#100F0D"/>
<path fill-rule="evenodd" clip-rule="evenodd" d="M148.798 71.3309C148.49 71.609 148.044 71.6275 147.696 71.4403C146.148 70.1425 145.87 69.5409 145.023 68.3067C142.466 70.9352 140.653 71.7236 137.337 71.7236C133.412 71.7236 130.359 69.2808 130.359 64.3962C130.359 60.581 132.41 57.9857 135.332 56.7128C137.862 55.5932 141.394 55.3893 144.098 55.083L144.098 54.4732C144.098 53.3544 144.186 52.0308 143.531 51.0645C142.964 50.1995 141.873 49.8442 140.915 49.8442C139.136 49.8442 137.555 50.7634 137.167 52.6678C137.086 53.0907 136.779 53.5108 136.357 53.5312L131.838 53.0376C131.457 52.951 131.033 52.6433 131.142 52.0561C132.181 46.5273 137.131 44.8567 141.567 44.8567C143.837 44.8567 146.801 45.467 148.59 47.1967C150.858 49.3347 150.639 52.1838 150.639 55.288L150.639 62.6119C150.639 64.815 151.547 65.7819 152.399 66.9693C152.696 67.3976 152.763 67.905 152.384 68.2191C151.431 69.0236 149.739 70.5042 148.809 71.3412L148.798 71.3309ZM144.098 59.8673C144.098 61.6995 144.141 63.2274 143.226 64.8544C142.485 66.1785 141.306 66.9919 140 66.9919C138.209 66.9919 137.164 65.6185 137.164 63.5822C137.164 59.5792 140.725 58.8504 144.098 58.8504L144.098 59.8673Z" fill="#100F0D"/>
</g>
<g clip-path="url(#clip1_60_285)">
<path d="M455.987 -9.54123e-08L370.987 0L370.987 109L455.987 109L455.987 -9.54123e-08Z" fill="#FF0000"/>
<path d="M392.652 69.0478L383.484 69.0478C383.484 69.0478 378.972 69.6563 378.916 72.6655C378.859 75.6747 378.916 76.1963 378.916 76.1963C378.916 76.1963 380.065 78.6271 383.053 79.2055L388.083 79.2055C388.083 79.2055 389.577 80.0447 387.997 80.884L378.889 80.884L378.889 84.9932L388.86 84.9932C388.86 84.9932 392.569 84.5886 392.655 82.0709C392.742 79.5532 392.655 77.9617 392.655 77.9617C392.655 77.9617 391.735 75.0662 389.408 75.0662C387.08 75.0662 383.431 75.0361 383.431 75.0361C383.431 75.0361 382.568 74.3707 383.431 73.3275C384.58 73.3275 392.695 73.2974 392.695 73.2974L392.655 69.0444L392.652 69.0478Z" fill="white"/>
<path d="M402.885 69.0478C398.286 69.0177 394.322 69.0478 394.322 69.0478L394.322 84.9932L398.346 84.9932L398.346 80.1885L404.266 80.1885C404.266 80.1885 406.909 80.1317 408.118 76.31L408.118 72.8361C408.118 72.8361 407.487 69.0745 402.888 69.0445L402.885 69.0478ZM403.058 75.9656L398.632 75.9656L398.632 73.4178L403.058 73.4178C404.781 74.8054 403.058 75.9656 403.058 75.9656Z" fill="white"/>
<path d="M417.023 69.0378L413.228 69.0378L405.814 84.9966L409.951 84.9966L411.159 82.509L418.919 82.509L420.068 84.9966L423.863 84.9966L417.023 69.0378ZM413.46 78.2225L415.127 74.461L416.737 78.2225L413.46 78.2225Z" fill="white"/>
<path d="M437.177 73.4178L437.177 69.0478L429.461 69.0478C429.461 69.0478 422.518 70.539 422.87 77.0155C423.222 83.4886 429.003 84.9966 429.003 84.9966L437.181 84.9966L437.181 80.6566L429.541 80.6566C429.541 80.6566 424.175 77.3766 429.541 73.4212L437.181 73.4212L437.177 73.4178Z" fill="white"/>
<path d="M438.731 69.0378L438.731 84.9966L451.149 84.9966L451.149 80.6533L442.795 80.6533L442.795 79.2657L451.149 79.2657L451.149 74.6917L443.177 74.6917L443.177 73.0133L451.149 73.0133L451.149 69.0378L438.731 69.0378Z" fill="white"/>
<path d="M394.319 86.5981L394.319 102.727L398.632 102.727L398.632 96.786L405.239 96.786L405.239 102.727L409.532 102.727L409.532 86.5981L405.01 86.5981L405.01 92.4627L398.632 92.4627L398.632 86.5981L394.319 86.5981Z" fill="white"/>
<path d="M392.652 86.6349L383.484 86.6349C383.484 86.6349 378.972 87.2435 378.916 90.2527C378.859 93.2619 378.916 93.7835 378.916 93.7835C378.916 93.7835 380.065 96.2142 383.053 96.7927L388.083 96.7927C388.083 96.7927 389.577 97.6319 387.997 98.4711L378.889 98.4711L378.889 102.58L388.86 102.58C388.86 102.58 392.569 102.176 392.655 99.6581C392.742 97.1404 392.655 95.5489 392.655 95.5489C392.655 95.5489 391.735 92.6533 389.408 92.6533C387.08 92.6533 383.431 92.6232 383.431 92.6232C383.431 92.6232 382.568 91.9579 383.431 90.9147C384.58 90.9147 392.695 90.8846 392.695 90.8846L392.655 86.6316L392.652 86.6349Z" fill="white"/>
<path d="M410.99 86.6282L410.99 102.59L423.405 102.59L423.405 98.2471L415.051 98.2471L415.051 96.8595L423.405 96.8595L423.405 92.2855L415.433 92.2855L415.433 90.6071L423.405 90.6071L423.405 86.6282L410.99 86.6282Z" fill="white"/>
<path d="M424.759 86.6817L424.759 102.641L437.177 102.641L437.177 98.3006L428.823 98.3006L428.823 96.913L437.177 96.913L437.177 92.339L429.205 92.339L429.205 90.6605L437.177 90.6605L437.177 86.6817L424.759 86.6817Z" fill="white"/>
<path d="M447.298 86.6951C442.699 86.665 438.734 86.6951 438.734 86.6951L438.734 102.641L442.759 102.641L442.759 97.8358L448.679 97.8358C448.679 97.8358 451.322 97.779 452.53 93.9573L452.53 90.4833C452.53 90.4833 451.9 86.7218 447.301 86.6917L447.298 86.6951ZM447.47 93.6129L443.044 93.6129L443.044 91.0651L447.47 91.0651C449.193 92.4527 447.47 93.6129 447.47 93.6129Z" fill="white"/>
<path d="M384.749 21.4456L382.744 24.5685C382.744 24.5685 382.741 24.5752 382.737 24.5785C382.678 24.6855 381.602 26.6014 380.901 28.6577C380.201 30.714 380.639 32.1383 380.639 32.1383C380.639 32.1383 381.28 34.2715 385.155 33.4122C388.445 32.6833 393.346 29.517 394.744 28.5808C394.916 28.4637 395.152 28.5808 395.169 28.7881L395.667 34.9803C395.667 35.0138 395.667 35.0439 395.657 35.074C395.587 35.3281 395.245 36.5618 394.926 37.3309C394.91 37.3676 394.886 37.4044 394.853 37.4312C393.837 38.3339 393.445 38.9759 393.445 38.9759C393.445 38.9759 392.884 39.6914 392.619 41.0623C392.615 41.0823 392.612 41.1024 392.612 41.1224C392.612 42.5267 392.735 43.707 392.761 43.9478C392.761 43.9778 392.771 44.0046 392.785 44.0313C392.871 44.2186 393.256 45.0144 393.658 45.4323C393.761 45.5393 393.751 45.7098 393.648 45.8168C393.346 46.1244 393.044 46.5424 392.927 46.7095C392.894 46.7563 392.878 46.8098 392.878 46.8667C392.884 47.4618 392.994 50.9324 394.783 51.4273C394.893 51.4574 394.963 51.5577 394.976 51.6714C395.325 54.6672 397.526 58.0108 402.321 57.5393C402.487 57.5226 402.629 57.653 402.626 57.8202C402.599 59.0138 402.43 60.0804 402.394 60.2877C402.39 60.3145 402.38 60.3379 402.37 60.3613L400.916 63.3638C400.916 63.3638 400.906 63.3839 400.903 63.3939C400.836 63.5912 400.282 65.4 402.679 64.9888C402.762 64.9754 402.835 64.9186 402.878 64.845C404.598 61.6686 405.302 59.8631 405.398 59.6157C405.405 59.5956 405.412 59.5755 405.415 59.5521C405.631 57.7633 405.857 56.9776 405.926 56.7603C405.94 56.7168 405.963 56.68 405.996 56.6499L408.287 54.4265C408.334 54.383 408.39 54.3529 408.453 54.3496C409.898 54.3094 408.49 59.288 407.464 60.7458C407.304 60.9732 407.314 61.3443 407.48 61.5683C408.181 62.5246 408.652 63.3437 409.247 61.9027C410.004 60.0637 411.727 55.4429 412.049 54.5702C412.082 54.4833 412.155 54.4198 412.245 54.3997C412.72 54.2927 414.287 53.848 415.479 52.4036C415.535 52.3367 415.618 52.3 415.705 52.3033C418.733 52.4839 419.228 52.1462 419.228 52.1462C419.228 52.1462 420.908 51.8285 421.744 50.7619C421.814 50.6717 421.927 50.6315 422.033 50.6616C423.368 51.0227 424.743 50.8121 425.138 50.7419C425.201 50.7318 425.211 51.3738 425.188 51.4373L422.916 58.3016C422.916 58.3016 422.478 59.8865 424.726 59.1743C424.792 59.1543 424.849 59.1108 424.882 59.0506C426.117 56.9542 427.505 53.0623 427.641 52.6744C427.648 52.651 427.655 52.631 427.655 52.6076L427.973 49.0433C427.987 48.8996 428.106 48.7926 428.249 48.7926L429.999 48.8059C430.188 48.8059 430.513 49.0835 430.477 49.2707C430.221 50.5747 429.036 54.7274 428.85 55.463C428.84 55.4998 428.84 55.5399 428.843 55.58C429.046 56.8004 430.364 56.4293 430.759 56.2888C430.829 56.2621 430.885 56.2086 430.915 56.1417L433.103 51.1097C433.113 51.0863 433.12 51.0595 433.123 51.0361L433.661 46.9168C433.671 46.85 433.701 46.7898 433.751 46.7463C434.056 46.4788 435.195 45.4022 435.56 43.7906C435.574 43.7338 435.603 43.6803 435.65 43.6435C437.589 42.0486 438.94 39.2166 438.485 37.5816C438.027 34.4554 436.719 33.5326 436.414 33.0578C436.384 33.011 436.367 32.9541 436.37 32.8973C436.397 32.2553 436.48 28.2063 434.242 26.8321C434.106 26.7485 434.069 26.5579 434.172 26.4375C434.571 25.9561 435.218 25.8123 435.398 25.7822C435.434 25.7755 435.464 25.7621 435.494 25.7454C436.052 25.381 440.783 22.6693 432.359 17.012C432.333 16.9953 431.881 16.7111 431.851 16.7078C428.87 16.233 428.04 15.8819 427.827 15.7649C427.787 15.7415 427.754 15.7081 427.731 15.6679L426.658 13.8691C426.612 13.7889 426.605 13.6919 426.645 13.6083C426.898 13.08 427.658 11.114 425.254 10.7028C425.231 10.6994 425.211 10.6961 425.188 10.6994C424.919 10.7161 423.082 10.8967 423.468 12.8794C423.521 14.0797 424.195 14.3706 424.573 14.384C424.67 14.3874 424.955 14.5478 425.002 14.6314L425.447 15.591C425.54 15.7649 425.36 15.9154 425.168 15.9388C424.792 15.9822 424.577 16.009 424.231 16.1862C424.102 16.2531 424.065 16.0424 423.986 15.922C423.099 14.598 423.478 14.501 423.478 14.501C423.478 14.501 423.713 13.5247 423.298 12.4682C422.916 11.4952 421.442 11.766 421.226 11.7961C421.207 11.7961 421.19 11.8028 421.17 11.8128C420.961 11.8964 419.623 12.4916 419.885 13.8758C420.147 15.26 420.274 15.3068 421.479 15.7114C421.562 15.7382 421.864 15.8284 421.89 15.9087C422.133 16.6576 422.415 17.1458 422.518 17.3932C422.555 17.4835 422.545 17.5838 422.488 17.6607C422.239 18.0051 421.562 18.968 421.379 19.4261C421.336 19.5331 421.236 19.6067 421.12 19.6033C418.969 19.5598 408.071 18.7306 405.578 18.5401C405.362 18.5233 405.249 18.2726 405.382 18.0987C406.856 16.1628 412.916 7.76042 409.496 4.72782C408.121 3.24662 404.147 4.81475 403.848 4.93512C403.835 4.9418 403.825 4.94515 403.811 4.95183L397.264 8.85042C397.201 8.8872 397.124 8.89723 397.055 8.88052C396.178 8.64312 390.258 7.16193 387.708 10.034C384.962 13.1268 383.279 13.4913 384.796 21.2316C384.809 21.3018 384.796 21.3754 384.759 21.4356L384.749 21.4456Z" fill="black" stroke="white" stroke-miterlimit="10"/>
<path d="M386.406 19.941C386.406 19.941 384.567 14.9157 388.156 11.8296C391.745 8.74345 393.279 10.0675 396.125 10.111C387.107 19.503 386.406 19.9444 386.406 19.9444L386.406 19.941Z" fill="white" stroke="white" stroke-miterlimit="10"/>
<path d="M418.062 23.1174C417.099 22.5457 416.047 21.7499 415.741 21.1347C415.728 21.1113 415.698 21.0845 415.658 21.0544L415.562 19.2823L409.569 18.851L409.466 19.1787C407.118 18.5835 405.013 18.092 405.013 18.092L397.745 18.092C394.637 18.092 394.375 21.1781 394.375 21.1781L394.74 28.5841L393.987 38.2905C393.987 38.2905 394.833 37.9093 395.467 37.712C396.135 33.6262 396.649 33.566 401.773 33.7432C404.881 29.9951 405.232 31.1854 409.041 31.1854C409.698 28.3635 412.501 28.0558 415.127 28.5841C415.346 25.4077 420.775 25.585 420.775 25.585L421.08 22.5423C419.812 23.2043 419.417 23.0271 418.059 23.1141L418.062 23.1174Z" fill="white" stroke="white" stroke-miterlimit="10"/>
<path d="M424.401 18.9379C424.401 18.9379 425.978 17.7911 428.581 18.7406C431.184 19.6902 431.579 21.8368 431.579 21.8368C431.579 21.8368 428.319 22.1243 426.751 21.7499C425.184 21.3754 424.331 19.3458 424.397 18.9379L424.401 18.9379Z" fill="white" stroke="white" stroke-miterlimit="10"/>
</g>
<path d="M72.1327 163.766L72.1327 164.001L81.1514 164.001L81.1514 171.29L75.8503 171.29L75.8503 188.2L67.3659 188.2L67.3659 147.668L81.7955 147.668L81.7955 155.247L75.8503 155.247L75.8503 161.795L72.1327 163.766ZM99.6116 155.265L95.7278 155.265L95.7278 188.2L87.2434 188.2L87.2434 155.265L83.3597 155.265L83.3597 147.668L99.6116 147.668L99.6116 155.265ZM105.925 163.766L105.925 164.001L114.943 164.001L114.943 171.29L109.642 171.29L109.642 178.47L105.925 180.369L105.925 180.604L115.588 180.604L115.588 188.183L101.158 188.183L101.158 147.668L115.588 147.668L115.588 155.247L109.642 155.247L109.642 161.795L105.925 163.766ZM126.981 173.262L125.618 173.262L125.618 188.2L117.134 188.2L117.134 147.668L127.919 147.668C133.459 147.668 137.176 150.96 137.176 155.952L137.176 165.213C137.176 167.708 136.237 169.735 134.635 171.109L137.93 188.183L129.446 188.183L126.979 173.262L126.981 173.262ZM127.165 155.266L125.638 155.266L125.638 164.001L121.92 165.973L121.92 166.208L127.166 166.208C128.049 166.208 128.693 165.629 128.693 164.706L128.693 156.712C128.693 155.845 128.049 155.266 127.166 155.266L127.165 155.266ZM138.705 147.668L147.594 147.668L149.121 175.449L149.121 179.844L150.004 179.844L150.004 175.449L151.478 147.668L160.019 147.668L155.785 188.2L142.939 188.2L138.705 147.668ZM166.331 163.766L166.331 164.001L175.349 164.001L175.349 171.29L170.048 171.29L170.048 178.47L166.331 180.369L166.331 180.604L175.993 180.604L175.993 188.183L161.564 188.183L161.564 147.668L175.993 147.668L175.993 155.247L170.048 155.247L170.048 161.795L166.331 163.766ZM187.367 173.262L186.005 173.262L186.005 188.2L177.52 188.2L177.52 147.668L188.305 147.668C193.845 147.668 197.563 150.96 197.563 155.952L197.563 165.213C197.563 167.708 196.625 169.735 195.023 171.109L198.318 188.183L189.832 188.183L187.367 173.262ZM187.533 155.266L186.006 155.266L186.006 164.001L182.289 165.973L182.289 166.208L187.535 166.208C188.418 166.208 189.062 165.629 189.062 164.706L189.062 156.712C189.062 155.845 188.416 155.266 187.533 155.266ZM224.804 163.766L224.804 164.001L233.823 164.001L233.823 171.29L228.522 171.29L228.522 178.47L224.804 180.369L224.804 180.604L234.467 180.604L234.467 188.183L220.037 188.183L220.037 147.668L234.467 147.668L234.467 155.247L228.522 155.247L228.522 161.795L224.804 163.766ZM199.093 179.446L199.093 173.659L207.319 173.659L207.319 179.446C207.319 180.296 207.945 180.856 208.81 180.856C209.73 180.856 210.3 180.295 210.3 179.446L210.3 175.016C210.3 170.856 199.22 170.079 199.22 161.053L199.22 156.332C199.22 151.051 203.049 147.578 208.81 147.578C214.571 147.578 218.399 151.051 218.399 156.332L218.399 161.433L210.153 161.433L210.153 156.225C210.153 155.447 209.638 154.941 208.791 154.941C208 154.941 207.43 155.447 207.43 156.225L207.43 160.096C207.43 164.183 218.51 165.033 218.51 174.004L218.51 179.449C218.51 184.73 214.626 188.203 208.81 188.203C202.957 188.203 199.093 184.73 199.093 179.449L199.093 179.446ZM61.587 147.668L48.7395 147.668L44.507 188.2L53.0462 188.2L53.9114 172.068L50.0826 172.068L50.0826 171.85L53.9842 169.897L54.5184 160.419L54.5184 156.006L55.4014 156.006L55.4014 160.419L56.93 188.2L65.8388 188.2L61.587 147.668Z" fill="white"/>
<g clip-path="url(#clip2_60_285)">
<path d="M351.603 152.845C351.603 152.845 351.743 148.894 356.72 145.014C361.697 141.134 379.581 138.287 379.581 138.287C379.581 138.287 394.727 135.583 400.264 138.009C405.801 140.434 406.784 144.318 406.784 144.318C410.358 153.779 412.148 162.409 412.465 164.903C412.781 167.397 413.516 173.845 413.516 176.546C413.516 179.247 413.375 183.477 413.2 184.482C413.025 185.488 412.042 188.155 410.571 189.405C409.1 190.655 408.011 191.59 406.471 192.592C404.928 193.598 398.899 195.018 397.917 195.364C396.934 195.711 389.713 197.202 388.38 197.512C387.046 197.824 380.386 198.793 378.213 198.83C376.041 198.864 368.151 199.071 366.889 198.969C365.628 198.867 362.542 197.617 361.559 196.682C360.576 195.748 359.105 195.262 357.528 189.925C355.95 184.588 353.553 177.338 353.321 175.89C353.089 174.448 350.973 159.29 351.603 152.845Z" fill="#20C5F5"/>
<path d="M420.196 149.101L435.761 149.101C435.761 149.101 436.18 148.996 436.18 149.776L436.18 152.687C436.18 152.687 436.074 153.26 435.708 153.312C435.341 153.365 430.659 153.312 430.659 153.312C430.659 153.312 430.133 153.312 430.133 153.885C430.133 154.457 430.08 167.505 430.08 167.505C430.08 167.505 429.87 168.003 429.448 168.003L426.293 168.003C426.293 168.003 425.714 168.025 425.714 167.09C425.714 166.156 425.82 154.095 425.82 154.095C425.82 154.095 425.926 153.161 424.875 153.161L420.405 153.161C420.405 153.161 419.826 153.368 419.826 152.588L419.826 149.782C419.826 149.782 419.563 149.107 420.196 149.107L420.196 149.101Z" fill="#666666"/>
<path d="M435.182 163.241C435.182 163.213 435.188 163.192 435.188 163.176C435.141 163.39 435.163 163.439 435.182 163.241Z" fill="#666666"/>
<path d="M435.188 163.176C435.188 163.176 435.191 163.158 435.194 163.148C435.194 163.148 435.191 163.161 435.188 163.176Z" fill="#666666"/>
<path d="M449.063 158.043C448.957 157.471 448.694 157.004 448.381 156.378C448.065 155.753 447.539 155.286 446.647 154.454C445.752 153.622 445.595 153.727 444.49 153.414C443.385 153.102 442.018 153.26 439.968 153.414C437.917 153.569 436.18 154.766 436.18 154.766C435.654 156.066 437.548 157.418 437.548 157.418C437.548 157.418 439.861 156.431 442.137 156.378C444.409 156.326 445.016 158.547 445.016 158.547L445.016 159.445L442.597 159.445C442.597 159.445 438.496 159.185 436.759 160.766C435.654 161.772 435.298 162.731 435.194 163.148C435.229 163.102 435.226 164.915 435.601 165.893C436.021 166.985 437.598 167.712 438.284 168C438.966 168.288 440.018 168.282 440.86 168.282C441.702 168.282 442.437 168.387 443.119 168.012C443.802 167.641 444.224 167.344 444.59 167.032C444.96 166.719 445.326 166.187 445.326 166.187C445.326 166.187 445.22 166.41 445.22 167.291C445.22 168.173 446.062 167.997 446.062 167.997L448.165 167.997C448.9 167.997 449.06 166.877 449.06 166.877C449.06 166.877 449.166 158.612 449.06 158.04L449.063 158.043ZM444.91 163.863L443.332 165.317C443.332 165.317 441.492 165.89 440.65 165.317C439.808 164.745 439.335 164.739 439.335 163.78C439.335 162.82 438.966 163.028 439.808 162.508L440.65 161.988L444.91 161.988L444.91 163.86L444.91 163.863Z" fill="#666666"/>
<path d="M467.68 157.378C466.838 153.779 461.16 153.238 461.16 153.238C461.16 153.238 458.112 152.845 456.534 154.822L455.692 153.238C455.692 153.238 452.221 152.845 452.221 154.51L452.221 173.433C452.221 173.433 454.85 175.407 456.322 173.433L456.215 166.57C456.215 166.57 457.583 167.981 459.37 168.003C461.157 168.025 463.051 169.04 466.416 166.193C467.993 162.725 468.519 160.976 467.677 157.381L467.68 157.378ZM463.805 162.044C463.489 163.829 461.458 164.85 461.458 164.85C461.458 164.85 460.826 165.11 459.073 164.85C457.32 164.59 456.322 162.13 456.322 162.13L456.322 159.584C456.531 157.297 458.81 156.533 460.65 156.465C462.491 156.397 463.664 158.943 463.805 159.29C463.946 159.637 464.121 160.262 463.805 162.044Z" fill="#666666"/>
<path d="M486.137 157.409C485.295 153.81 479.618 153.269 479.618 153.269C479.618 153.269 476.569 152.876 474.992 154.853L474.15 153.269C474.15 153.269 470.679 152.876 470.679 154.541L470.679 173.464C470.679 173.464 473.308 175.438 474.779 173.464L474.672 166.601C474.672 166.601 476.04 168.012 477.827 168.034C479.615 168.056 481.508 169.071 484.873 166.224C486.45 162.755 486.976 161.007 486.134 157.412L486.137 157.409ZM482.263 162.078C481.946 163.863 479.915 164.884 479.915 164.884C479.915 164.884 479.283 165.144 477.53 164.884C475.777 164.624 474.779 162.164 474.779 162.164L474.779 159.618C474.989 157.331 477.267 156.567 479.108 156.499C480.948 156.431 482.122 158.978 482.263 159.324C482.403 159.671 482.579 160.296 482.263 162.078Z" fill="#666666"/>
<path d="M499.205 157.004C499.205 157.004 500.466 156.329 500.466 154.899C500.466 153.47 495.734 153.229 495.734 153.229C495.734 153.229 487.925 153.105 488.582 158.745C488.976 159.992 489.186 160.305 489.186 160.305C489.186 160.305 489.897 161.215 490.685 161.499C491.474 161.784 492.92 162.124 494.391 162.332C495.862 162.539 496.601 162.591 497.045 163.006C497.49 163.421 497.703 163.941 497.415 164.281C497.127 164.621 496.811 165.243 495.599 165.268C494.388 165.293 492.419 165.33 491.997 164.999C491.574 164.668 490.288 164.098 489.605 164.278C488.923 164.457 488.291 166.54 488.66 166.929C489.03 167.319 490.369 168.022 491.158 168.099C491.947 168.176 491.396 168.306 494.995 168.334C498.595 168.362 500.307 166.462 500.307 166.462C500.307 166.462 502.648 163.368 500.726 161.394C498.804 159.42 493.39 158.978 493.39 158.978C493.39 158.978 491.13 158.043 493.521 156.496C496.52 156.496 497.543 156.224 499.202 157.004L499.205 157.004Z" fill="#666666"/>
<path d="M434.809 176.326C434.809 176.45 434.8 176.561 434.778 176.667C434.756 176.772 434.728 176.858 434.694 176.93C434.659 177.001 434.612 177.056 434.556 177.094C434.5 177.131 434.44 177.149 434.381 177.149C434.255 177.149 434.055 177.056 433.773 176.865C433.492 176.676 433.113 176.469 432.643 176.246C432.171 176.023 431.598 175.819 430.928 175.627C430.255 175.438 429.457 175.342 428.534 175.342C427.354 175.342 426.302 175.543 425.379 175.946C424.455 176.348 423.676 176.899 423.041 177.598C422.405 178.297 421.92 179.13 421.585 180.089C421.25 181.048 421.085 182.084 421.085 183.189C421.085 184.43 421.275 185.534 421.654 186.503C422.033 187.471 422.559 188.291 423.232 188.956C423.905 189.625 424.703 190.132 425.632 190.482C426.562 190.832 427.573 191.008 428.672 191.008C429.379 191.008 430.099 190.927 430.825 190.767C431.554 190.606 432.237 190.361 432.872 190.027L432.872 184.08L427.792 184.08C427.629 184.08 427.504 184.015 427.423 183.882C427.341 183.749 427.301 183.56 427.301 183.316C427.301 183.183 427.31 183.068 427.332 182.969C427.354 182.87 427.382 182.79 427.423 182.728C427.463 182.666 427.513 182.62 427.576 182.586C427.639 182.552 427.711 182.536 427.792 182.536L433.886 182.536C433.977 182.536 434.077 182.552 434.177 182.58C434.28 182.607 434.374 182.657 434.462 182.722C434.55 182.787 434.618 182.88 434.669 182.997C434.719 183.115 434.747 183.26 434.747 183.43L434.747 190.256C434.747 190.482 434.709 190.677 434.631 190.838C434.553 190.999 434.377 191.153 434.099 191.299C433.823 191.444 433.454 191.605 432.991 191.781C432.528 191.958 432.052 192.103 431.56 192.221C431.069 192.338 430.571 192.428 430.077 192.49C429.579 192.552 429.088 192.583 428.606 192.583C427.097 192.583 425.751 192.357 424.565 191.908C423.379 191.46 422.38 190.825 421.563 190.005C420.746 189.189 420.124 188.214 419.695 187.081C419.263 185.952 419.05 184.705 419.05 183.341C419.05 181.976 419.285 180.609 419.751 179.43C420.218 178.251 420.875 177.245 421.72 176.413C422.565 175.581 423.579 174.934 424.759 174.476C425.939 174.018 427.241 173.786 428.668 173.786C429.385 173.786 430.067 173.848 430.709 173.972C431.351 174.095 431.927 174.244 432.44 174.42C432.953 174.597 433.388 174.785 433.748 174.987C434.108 175.191 434.349 175.352 434.481 175.469C434.609 175.587 434.697 175.704 434.744 175.816C434.791 175.93 434.813 176.094 434.813 176.314L434.809 176.326Z" fill="#666666"/>
<path d="M448.832 191.843C448.832 191.933 448.8 192.004 448.735 192.054C448.672 192.103 448.587 192.14 448.484 192.162C448.381 192.184 448.24 192.196 448.065 192.196C447.896 192.196 447.755 192.184 447.636 192.162C447.517 192.14 447.426 192.103 447.364 192.054C447.301 192.004 447.267 191.933 447.267 191.843L447.267 190.469C446.666 191.067 446.005 191.531 445.279 191.856C444.556 192.181 443.805 192.345 443.029 192.345C442.331 192.345 441.702 192.261 441.148 192.094C440.59 191.927 440.121 191.685 439.736 191.373C439.351 191.06 439.057 190.683 438.85 190.237C438.644 189.795 438.54 189.297 438.54 188.743C438.54 188.062 438.694 187.471 438.997 186.97C439.301 186.469 439.736 186.048 440.296 185.714C440.856 185.38 441.533 185.126 442.318 184.959C443.107 184.792 443.98 184.708 444.947 184.708L446.954 184.708L446.954 183.647C446.954 183.121 446.891 182.657 446.766 182.255C446.641 181.852 446.434 181.515 446.149 181.243C445.864 180.971 445.498 180.766 445.044 180.63C444.591 180.494 444.04 180.426 443.389 180.426C442.738 180.426 442.19 180.491 441.686 180.624C441.182 180.754 440.738 180.902 440.359 181.066C439.98 181.23 439.667 181.376 439.42 181.509C439.173 181.642 438.997 181.707 438.891 181.707C438.828 181.707 438.769 181.698 438.719 181.679C438.666 181.661 438.622 181.626 438.584 181.577C438.547 181.527 438.522 181.463 438.506 181.385C438.49 181.308 438.481 181.215 438.481 181.107C438.481 180.915 438.496 180.763 438.528 180.652C438.559 180.54 438.64 180.426 438.772 180.311C438.903 180.197 439.138 180.064 439.473 179.912C439.808 179.758 440.196 179.615 440.634 179.485C441.069 179.355 441.542 179.247 442.046 179.167C442.55 179.086 443.057 179.043 443.561 179.043C444.54 179.043 445.364 179.145 446.04 179.349C446.713 179.553 447.257 179.844 447.674 180.225C448.09 180.605 448.387 181.076 448.566 181.633C448.744 182.19 448.835 182.821 448.835 183.529L448.835 191.846L448.832 191.843ZM447.267 185.946L444.794 185.946C444.074 185.946 443.445 186.005 442.907 186.122C442.368 186.24 441.918 186.413 441.558 186.639C441.198 186.865 440.932 187.137 440.756 187.456C440.581 187.775 440.493 188.137 440.493 188.542C440.493 189.247 440.741 189.814 441.235 190.234C441.73 190.655 442.428 190.866 443.326 190.866C444.037 190.866 444.697 190.702 445.31 190.37C445.924 190.039 446.575 189.529 447.267 188.842L447.267 185.946Z" fill="#666666"/>
<path d="M472.932 191.72C472.932 191.778 472.917 191.828 472.885 191.877C472.854 191.927 472.804 191.964 472.735 191.992C472.666 192.02 472.572 192.044 472.45 192.063C472.328 192.082 472.181 192.091 472 192.091C471.812 192.091 471.655 192.082 471.533 192.063C471.411 192.044 471.314 192.02 471.242 191.992C471.17 191.964 471.12 191.927 471.092 191.877C471.067 191.831 471.051 191.778 471.051 191.72L471.051 184.127C471.051 183.557 470.995 183.037 470.882 182.567C470.769 182.097 470.591 181.698 470.35 181.364C470.109 181.029 469.805 180.769 469.436 180.587C469.067 180.404 468.632 180.312 468.131 180.312C467.511 180.312 466.885 180.531 466.25 180.967C465.614 181.404 464.92 182.047 464.162 182.892L464.162 191.713C464.162 191.772 464.146 191.825 464.115 191.871C464.084 191.921 464.034 191.958 463.965 191.986C463.896 192.013 463.799 192.038 463.677 192.057C463.555 192.075 463.405 192.085 463.223 192.085C463.042 192.085 462.891 192.075 462.769 192.057C462.647 192.038 462.55 192.013 462.475 191.986C462.4 191.958 462.35 191.918 462.325 191.871C462.297 191.822 462.284 191.769 462.284 191.713L462.284 184.123C462.284 183.554 462.225 183.034 462.106 182.564C461.987 182.097 461.808 181.695 461.567 181.36C461.326 181.026 461.023 180.766 460.653 180.584C460.284 180.401 459.849 180.308 459.348 180.308C458.729 180.308 458.103 180.528 457.467 180.964C456.832 181.401 456.143 182.044 455.395 182.889L455.395 191.71C455.395 191.769 455.379 191.819 455.348 191.868C455.317 191.918 455.267 191.955 455.198 191.983C455.129 192.01 455.035 192.035 454.913 192.054C454.791 192.072 454.638 192.082 454.447 192.082C454.268 192.082 454.118 192.072 453.996 192.054C453.874 192.035 453.777 192.01 453.705 191.983C453.63 191.955 453.58 191.918 453.555 191.868C453.53 191.822 453.514 191.769 453.514 191.71L453.514 179.42C453.514 179.42 453.539 179.315 453.564 179.272C453.589 179.225 453.636 179.188 453.708 179.157C453.777 179.126 453.865 179.102 453.971 179.089C454.077 179.077 454.212 179.068 454.384 179.068C454.556 179.068 454.694 179.074 454.804 179.089C454.913 179.102 454.998 179.126 455.057 179.157C455.117 179.188 455.16 179.229 455.185 179.272C455.21 179.318 455.395 179.42 455.395 179.42L455.395 181.162C456.168 180.38 456.904 179.813 457.599 179.461C458.293 179.111 458.982 178.935 459.668 178.935C460.234 178.935 460.738 178.997 461.179 179.117C461.621 179.238 462.012 179.411 462.35 179.631C462.688 179.85 462.976 180.117 463.214 180.42C463.452 180.723 463.646 181.063 463.796 181.432C464.262 180.964 464.7 180.568 465.114 180.25C465.527 179.931 465.918 179.674 466.291 179.479C466.663 179.284 467.023 179.145 467.37 179.061C467.718 178.975 468.059 178.935 468.397 178.935C469.242 178.935 469.953 179.071 470.535 179.34C471.114 179.609 471.583 179.974 471.934 180.435C472.284 180.893 472.538 181.432 472.694 182.041C472.848 182.654 472.926 183.304 472.926 183.987L472.926 191.713L472.932 191.72Z" fill="#666666"/>
<path d="M488.582 185.089C488.582 185.414 488.488 185.64 488.297 185.76C488.106 185.884 487.922 185.943 487.743 185.943L478.497 185.943C478.497 186.704 478.579 187.394 478.745 188.01C478.91 188.625 479.183 189.155 479.562 189.594C479.94 190.033 480.435 190.371 481.045 190.606C481.655 190.841 482.403 190.958 483.292 190.958C483.922 190.958 484.485 190.909 484.986 190.81C485.487 190.711 485.918 190.599 486.282 190.476C486.645 190.352 486.945 190.244 487.18 190.142C487.415 190.043 487.58 189.993 487.681 189.993C487.74 189.993 487.796 190.005 487.846 190.033C487.897 190.061 487.937 190.104 487.965 190.163C487.994 190.222 488.019 190.296 488.034 190.386C488.05 190.476 488.056 190.59 488.056 190.726C488.056 190.791 488.05 190.85 488.041 190.909C488.031 190.968 488.019 191.023 488.003 191.073C487.987 191.122 487.965 191.172 487.934 191.215C487.903 191.262 487.865 191.305 487.815 191.351C487.765 191.398 487.612 191.475 487.352 191.59C487.092 191.704 486.754 191.815 486.335 191.93C485.915 192.044 485.427 192.147 484.873 192.236C484.319 192.326 483.721 192.372 483.083 192.372C482.034 192.372 481.105 192.23 480.297 191.945C479.49 191.661 478.807 191.24 478.259 190.683C477.709 190.126 477.292 189.436 477.007 188.61C476.723 187.787 476.582 186.831 476.582 185.742C476.582 184.653 476.729 183.768 477.023 182.942C477.317 182.118 477.74 181.416 478.291 180.841C478.838 180.265 479.502 179.826 480.275 179.523C481.048 179.219 481.912 179.068 482.86 179.068C483.878 179.068 484.748 179.222 485.468 179.529C486.188 179.838 486.779 180.253 487.242 180.773C487.706 181.292 488.047 181.899 488.26 182.586C488.472 183.273 488.582 184 488.582 184.761L488.582 185.086L488.582 185.089ZM486.688 184.399C486.72 183.093 486.388 182.075 485.699 181.342C485.011 180.609 484.006 180.24 482.688 180.24C482.009 180.24 481.411 180.355 480.898 180.587C480.385 180.819 479.95 181.122 479.593 181.503C479.239 181.883 478.967 182.326 478.776 182.827C478.585 183.331 478.475 183.854 478.447 184.396L486.688 184.396L486.688 184.399Z" fill="#666666"/>
<path d="M500.272 188.452C500.272 189.04 500.153 189.569 499.912 190.036C499.671 190.504 499.33 190.9 498.886 191.224C498.441 191.549 497.909 191.8 497.29 191.973C496.67 192.147 495.984 192.23 495.236 192.23C494.767 192.23 494.322 192.196 493.903 192.128C493.484 192.06 493.105 191.973 492.764 191.871C492.422 191.769 492.138 191.655 491.903 191.537C491.668 191.419 491.496 191.314 491.386 191.224C491.277 191.135 491.196 191.02 491.145 190.884C491.095 190.748 491.07 190.565 491.07 190.34C491.07 190.222 491.08 190.117 491.102 190.027C491.12 189.937 491.145 189.86 491.177 189.795C491.208 189.733 491.246 189.684 491.296 189.653C491.346 189.622 491.399 189.606 491.462 189.606C491.571 189.606 491.731 189.671 491.94 189.795C492.15 189.922 492.413 190.061 492.726 190.21C493.039 190.358 493.415 190.497 493.85 190.624C494.285 190.751 494.786 190.816 495.355 190.816C495.815 190.816 496.235 190.77 496.613 190.68C496.992 190.59 497.324 190.454 497.603 190.271C497.881 190.089 498.1 189.857 498.254 189.572C498.407 189.288 498.485 188.953 498.485 188.573C498.485 188.192 498.385 187.87 498.185 187.607C497.984 187.344 497.721 187.115 497.399 186.921C497.074 186.726 496.704 186.552 496.291 186.404C495.878 186.255 495.452 186.101 495.017 185.943C494.582 185.785 494.156 185.609 493.743 185.42C493.33 185.231 492.958 184.999 492.635 184.727C492.31 184.455 492.047 184.13 491.85 183.749C491.649 183.368 491.549 182.911 491.549 182.375C491.549 181.948 491.64 181.531 491.818 181.119C491.997 180.708 492.275 180.336 492.651 180.011C493.027 179.686 493.505 179.423 494.091 179.222C494.676 179.024 495.368 178.922 496.166 178.922C496.504 178.922 496.842 178.947 497.177 178.996C497.512 179.046 497.815 179.111 498.091 179.195C498.366 179.275 498.601 179.365 498.801 179.461C499.002 179.557 499.152 179.64 499.258 179.711C499.362 179.782 499.434 179.844 499.468 179.894C499.502 179.943 499.527 179.996 499.543 180.049C499.559 180.101 499.571 180.169 499.581 180.247C499.59 180.324 499.596 180.417 499.596 180.525C499.596 180.633 499.59 180.732 499.574 180.819C499.559 180.906 499.537 180.98 499.509 181.042C499.477 181.107 499.44 181.153 499.396 181.184C499.352 181.215 499.299 181.23 499.239 181.23C499.158 181.23 499.039 181.181 498.88 181.082C498.72 180.983 498.51 180.875 498.25 180.757C497.991 180.639 497.681 180.531 497.321 180.432C496.961 180.333 496.548 180.284 496.078 180.284C495.609 180.284 495.196 180.333 494.842 180.432C494.488 180.531 494.194 180.674 493.966 180.853C493.737 181.032 493.562 181.246 493.449 181.49C493.333 181.735 493.277 182.001 493.277 182.292C493.277 182.691 493.377 183.025 493.577 183.297C493.778 183.57 494.041 183.805 494.372 184.003C494.701 184.201 495.077 184.38 495.496 184.532C495.915 184.687 496.341 184.841 496.776 184.993C497.211 185.145 497.637 185.318 498.056 185.503C498.476 185.689 498.851 185.915 499.18 186.175C499.509 186.438 499.775 186.753 499.975 187.119C500.175 187.487 500.276 187.926 500.276 188.443L500.272 188.452Z" fill="#666666"/>
<path d="M363.174 171.144L399.425 171.144C399.425 171.144 402.37 170.336 402.58 168C402.79 165.664 402.58 152.288 402.58 152.288C402.58 152.288 401.597 149.101 399.425 148.962C397.253 148.823 389.4 148.683 380.214 149.516C371.027 150.348 361.985 152.081 361.985 152.081C361.985 152.081 357.847 153.26 358.41 156.654C358.974 160.048 360.304 167.997 360.304 167.997C360.304 167.997 361.356 170.516 363.177 171.141L363.174 171.144Z" fill="white"/>
<path d="M374.27 157.378L373.81 157.378C373.056 157.378 372.445 157.982 372.445 158.727L372.445 163.597C372.445 164.342 373.056 164.946 373.81 164.946L374.27 164.946C375.023 164.946 375.634 164.342 375.634 163.597L375.634 158.727C375.634 157.982 375.023 157.378 374.27 157.378Z" fill="#59585D"/>
<path d="M387.453 157.378L386.993 157.378C386.239 157.378 385.628 157.982 385.628 158.727L385.628 163.597C385.628 164.342 386.239 164.946 386.993 164.946L387.453 164.946C388.207 164.946 388.818 164.342 388.818 163.597L388.818 158.727C388.818 157.982 388.207 157.378 387.453 157.378Z" fill="#59585D"/>
<path d="M380.045 174.312L386.198 174.312C386.198 174.312 388.852 175.039 390.195 178.288C391.538 181.537 392.931 184.786 392.931 184.786C392.931 184.786 393.403 190.089 389.829 190.426C386.254 190.763 378.101 192.14 377.418 191.726C376.736 191.311 373.844 190.841 374.501 186.5C375.159 182.159 375.894 177.74 375.894 177.74C375.894 177.74 377.234 174.987 380.048 174.309L380.045 174.312Z" fill="white"/>
</g>
<defs>
<clipPath id="clip0_60_285">
<rect width="218" height="82.437" fill="white" transform="translate(62.9868 13.2815)"/>
</clipPath>
<clipPath id="clip1_60_285">
<rect width="85" height="109" fill="white" transform="translate(370.987)"/>
</clipPath>
<clipPath id="clip2_60_285">
<rect width="150" height="62" fill="white" transform="translate(351.487 137)"/>
</clipPath>
</defs>
</svg>
