<svg width="236" height="202" viewBox="0 0 236 202" fill="none" xmlns="http://www.w3.org/2000/svg">
<path d="M142.167 28.7951C140.795 28.7951 139.646 29.4236 138.713 30.6768C137.786 31.9311 137.32 33.6916 137.32 35.957C137.32 38.2274 137.763 39.9655 138.651 41.1767C139.537 42.3916 140.702 42.9966 142.146 42.9966C143.59 42.9966 144.763 42.3841 145.664 41.1547C146.565 39.9299 147.016 38.1767 147.016 35.8942C147.016 33.6136 146.55 31.858 145.621 30.6321C144.692 29.4077 143.541 28.7951 142.167 28.7951ZM142.146 51.3334C138.129 51.3334 134.853 50.0226 132.321 47.4014C129.792 44.7779 128.527 40.9498 128.527 35.9173C128.527 30.8817 129.806 27.0691 132.365 24.4729C134.925 21.8801 138.228 20.5826 142.275 20.5826C146.322 20.5826 149.59 21.8567 152.076 24.4123C154.567 26.963 155.81 30.8298 155.81 36.0014C155.81 41.1767 154.538 45.0261 151.991 47.5522C149.445 50.073 146.165 51.3334 142.146 51.3334Z" fill="black"/>
<path d="M167.833 29.0914V41.8841C167.833 42.4815 167.877 42.8581 167.963 43.016C168.048 43.1733 168.306 43.252 168.734 43.252C170.309 43.252 171.502 42.6656 172.317 41.4965C173.134 40.3285 173.539 38.384 173.539 35.6605C173.539 32.9359 173.116 31.1606 172.275 30.3359C171.431 29.5089 170.093 29.0914 168.262 29.0914H167.833ZM159.598 48.9396V23.2789C159.598 22.5655 159.776 22.0026 160.135 21.5851C160.491 21.1741 160.956 20.9653 161.529 20.9653H168.693C173.24 20.9653 176.693 22.1087 179.05 24.39C181.411 26.6706 182.592 30.2617 182.592 35.1669C182.592 45.6607 178.1 50.9065 169.12 50.9065H161.786C160.328 50.9065 159.598 50.2522 159.598 48.9396Z" fill="black"/>
<path d="M199.062 28.7951C197.689 28.7951 196.537 29.4236 195.606 30.6768C194.679 31.9311 194.215 33.6916 194.215 35.957C194.215 38.2274 194.659 39.9655 195.544 41.1767C196.43 42.3916 197.595 42.9966 199.04 42.9966C200.484 42.9966 201.658 42.3841 202.558 41.1547C203.459 39.9299 203.91 38.1767 203.91 35.8942C203.91 33.6136 203.445 31.858 202.515 30.6321C201.586 29.4077 200.436 28.7951 199.062 28.7951ZM199.04 51.3334C195.021 51.3334 191.747 50.0226 189.217 47.4014C186.686 44.7779 185.42 40.9498 185.42 35.9173C185.42 30.8817 186.7 27.0691 189.258 24.4729C191.819 21.8801 195.121 20.5826 199.17 20.5826C203.217 20.5826 206.483 21.8567 208.972 24.4123C211.46 26.963 212.704 30.8298 212.704 36.0014C212.704 41.1767 211.431 45.0261 208.885 47.5522C206.34 50.073 203.057 51.3334 199.04 51.3334Z" fill="black"/>
<path d="M228.692 50.2249C228.692 50.7917 227.278 51.0792 224.445 51.0792C221.615 51.0792 220.197 50.7917 220.197 50.2249V28.752H215.051C214.564 28.752 214.22 28.0977 214.021 26.7827C213.935 26.1569 213.894 25.5163 213.894 24.8594C213.894 24.2063 213.935 23.563 214.021 22.936C214.22 21.6245 214.564 20.9653 215.051 20.9653H233.711C234.197 20.9653 234.539 21.6245 234.742 22.936C234.826 23.563 234.869 24.2063 234.869 24.8594C234.869 25.5163 234.826 26.1569 234.742 26.7827C234.539 28.0977 234.197 28.752 233.711 28.752H228.692V50.2249Z" fill="black"/>
<path d="M120.941 35.026C118.632 34.9904 115.989 35.4704 115.989 35.4704V39.9645H118.647L118.617 41.9678C118.617 42.71 117.879 43.0828 116.408 43.0828C114.934 43.0828 113.633 42.4607 112.504 41.22C111.372 39.9778 110.81 38.162 110.81 35.7693C110.81 33.3716 111.359 31.6039 112.461 30.4632C113.559 29.3237 115 28.752 116.772 28.752C117.516 28.752 118.286 28.8717 119.088 29.1161C119.89 29.3582 120.425 29.5851 120.698 29.7976C120.969 30.0162 121.227 30.1196 121.47 30.1196C121.713 30.1196 122.105 29.837 122.648 29.2654C123.192 28.6952 123.679 27.8311 124.109 26.679C124.537 25.5209 124.751 24.6333 124.751 24.0037C124.751 23.379 124.737 22.9482 124.709 22.7209C124.109 22.0655 123 21.5457 121.383 21.1593C119.769 20.7741 117.959 20.5827 115.957 20.5827C111.552 20.5827 108.107 21.9655 105.619 24.731C103.13 27.4977 101.887 31.0891 101.887 35.5098C101.887 40.7002 103.159 44.6349 105.702 47.3151C108.251 49.9951 111.596 51.3335 115.743 51.3335C117.973 51.3335 119.953 51.1422 121.683 50.7569C123.414 50.3731 124.565 49.9791 125.138 49.5806L125.309 36.1962C125.309 35.4185 123.251 35.0654 120.941 35.026Z" fill="black"/>
<path d="M111.898 68.8424C111.661 69.3273 111.225 69.772 110.588 70.1744C109.951 70.5794 109.142 70.7805 108.159 70.7805C106.863 70.7805 105.82 70.3733 105.029 69.5497C104.24 68.7325 103.845 67.5547 103.845 66.0178V62.1854C103.845 60.6818 104.217 59.5286 104.964 58.7236C105.709 57.925 106.708 57.52 107.955 57.52C109.174 57.52 110.119 57.8397 110.788 58.472C111.454 59.1066 111.805 59.9931 111.835 61.125L111.818 61.1754H110.823C110.788 60.3079 110.535 59.6385 110.06 59.1657C109.587 58.6967 108.884 58.4595 107.955 58.4595C107.015 58.4595 106.271 58.7766 105.726 59.4127C105.183 60.0472 104.912 60.9671 104.912 62.1756V66.0299C104.912 67.2831 105.205 68.2385 105.79 68.8966C106.375 69.5497 107.164 69.877 108.159 69.877C108.886 69.877 109.471 69.7486 109.908 69.4856C110.347 69.2265 110.651 68.9102 110.823 68.5348V65.1779H108.141V64.2448H111.898V68.8424Z" fill="black"/>
<path d="M116.826 69.8226C117.416 69.8226 117.941 69.6559 118.4 69.3164C118.86 68.9755 119.182 68.5447 119.373 68.02V65.9485H117.667C116.941 65.9485 116.36 66.1535 115.924 66.5634C115.488 66.9707 115.272 67.4794 115.272 68.0844C115.272 68.5955 115.407 69.0152 115.681 69.3388C115.953 69.6634 116.335 69.8226 116.826 69.8226ZM119.533 70.5954C119.479 70.2635 119.438 69.9942 119.412 69.7832C119.386 69.5684 119.373 69.3547 119.373 69.1376C119.082 69.6127 118.706 70.0067 118.241 70.3154C117.777 70.6265 117.261 70.7806 116.693 70.7806C115.898 70.7806 115.287 70.5352 114.854 70.0434C114.424 69.5498 114.206 68.8845 114.206 68.0447C114.206 67.157 114.519 66.4448 115.146 65.9163C115.773 65.3879 116.624 65.1238 117.695 65.1238H119.373V63.9471C119.373 63.2705 119.2 62.7375 118.86 62.3522C118.513 61.9719 118.036 61.7794 117.42 61.7794C116.847 61.7794 116.374 61.9609 116.003 62.3287C115.633 62.6943 115.45 63.141 115.45 63.6732L114.453 63.6645L114.436 63.6126C114.408 62.8906 114.682 62.2522 115.26 61.6866C115.835 61.1225 116.574 60.8422 117.473 60.8422C118.361 60.8422 119.076 61.1115 119.622 61.6483C120.165 62.1905 120.438 62.9633 120.438 63.9684V68.6644C120.438 69.0065 120.454 69.3388 120.484 69.6559C120.514 69.9771 120.564 70.2866 120.642 70.5954H119.533Z" fill="black"/>
<path d="M123.785 61.0202L123.876 62.5064C124.128 61.9745 124.466 61.5646 124.885 61.2732C125.306 60.9857 125.801 60.8421 126.37 60.8421C126.95 60.8421 127.439 61.0103 127.833 61.3509C128.228 61.6903 128.519 62.2041 128.704 62.8943C128.941 62.2571 129.276 61.7536 129.711 61.3892C130.146 61.024 130.674 60.8421 131.285 60.8421C132.128 60.8421 132.781 61.1819 133.244 61.862C133.709 62.5435 133.941 63.5891 133.941 65.0018V70.5953H132.869V64.9832C132.869 63.8088 132.706 62.9818 132.389 62.5064C132.07 62.0302 131.613 61.7904 131.022 61.7904C130.4 61.7904 129.914 62.0521 129.565 62.5844C129.217 63.1167 129.003 63.7819 128.925 64.5854V64.8336V70.5953H127.858V64.9893C127.858 63.8425 127.697 63.0216 127.367 62.5314C127.039 62.0411 126.582 61.7979 125.996 61.7979C125.435 61.7979 124.982 61.9684 124.642 62.3063C124.3 62.6462 124.057 63.1114 123.91 63.7016V70.5953H122.844V61.0202H123.785Z" fill="black"/>
<path d="M139.269 61.7793C138.601 61.7793 138.052 62.0831 137.622 62.6893C137.192 63.2977 136.969 64.0474 136.952 64.9411H141.382V64.5312C141.382 63.7409 141.196 63.0829 140.824 62.5608C140.449 62.0384 139.932 61.7793 139.269 61.7793ZM139.42 70.7805C138.384 70.7805 137.537 70.3918 136.88 69.6163C136.224 68.8424 135.895 67.8521 135.895 66.6459V65.0559C135.895 63.8474 136.225 62.8397 136.884 62.0384C137.545 61.241 138.338 60.842 139.269 60.842C140.275 60.842 141.054 61.1978 141.611 61.9115C142.169 62.6264 142.447 63.5867 142.447 64.7918V65.8423H136.952V66.6387C136.952 67.5657 137.174 68.3374 137.617 68.9534C138.061 69.5709 138.664 69.877 139.42 69.877C139.945 69.877 140.402 69.7845 140.783 69.6027C141.164 69.4167 141.491 69.1561 141.763 68.814L142.199 69.5671C141.909 69.9338 141.534 70.2301 141.075 70.4498C140.617 70.6684 140.065 70.7805 139.42 70.7805Z" fill="black"/>
<path d="M151.113 61.7793C150.443 61.7793 149.894 62.0831 149.464 62.6893C149.036 63.2977 148.813 64.0474 148.794 64.9411H153.226V64.5312C153.226 63.7409 153.04 63.0829 152.665 62.5608C152.293 62.0384 151.776 61.7793 151.113 61.7793ZM151.263 70.7805C150.227 70.7805 149.382 70.3918 148.725 69.6163C148.067 68.8424 147.737 67.8521 147.737 66.6459V65.0559C147.737 63.8474 148.068 62.8397 148.726 62.0384C149.389 61.241 150.183 60.842 151.113 60.842C152.118 60.842 152.9 61.1978 153.455 61.9115C154.011 62.6264 154.29 63.5867 154.29 64.7918V65.8423H148.794V66.6387C148.794 67.5657 149.017 68.3374 149.463 68.9534C149.904 69.5709 150.505 69.877 151.263 69.877C151.79 69.877 152.245 69.7845 152.625 69.6027C153.008 69.4167 153.334 69.1561 153.609 68.814L154.042 69.5671C153.752 69.9338 153.378 70.2301 152.918 70.4498C152.461 70.6684 151.908 70.7805 151.263 70.7805Z" fill="black"/>
<path d="M157.105 61.0202L157.193 62.603C157.449 62.0411 157.787 61.6051 158.212 61.3017C158.633 60.9967 159.129 60.8421 159.699 60.8421C160.557 60.8421 161.214 61.1585 161.67 61.7941C162.132 62.4287 162.36 63.4152 162.36 64.7536V70.5953H161.287V64.7635C161.287 63.6694 161.126 62.9053 160.806 62.462C160.489 62.0188 160.022 61.7979 159.414 61.7979C158.869 61.7979 158.412 61.9745 158.045 62.3336C157.677 62.6893 157.402 63.1633 157.22 63.7607V70.5953H156.154V61.0202H157.105Z" fill="black"/>
<path d="M165.487 66.646C165.487 67.6177 165.672 68.3905 166.047 68.9656C166.417 69.546 166.98 69.8324 167.732 69.8324C168.248 69.8324 168.681 69.6956 169.037 69.4153C169.392 69.135 169.673 68.7448 169.88 68.2496V63.5066C169.681 62.9966 169.407 62.5845 169.061 62.267C168.715 61.9548 168.277 61.798 167.751 61.798C167 61.798 166.433 62.1238 166.056 62.778C165.676 63.4334 165.487 64.2881 165.487 65.3375V66.646ZM164.411 65.3375C164.411 63.9805 164.686 62.8906 165.238 62.0692C165.786 61.2521 166.548 60.8422 167.519 60.8422C168.059 60.8422 168.532 60.9733 168.936 61.2362C169.341 61.4942 169.676 61.8719 169.944 62.3522L170.049 61.0202H170.953V70.6041C170.953 71.8312 170.668 72.7821 170.095 73.4549C169.52 74.125 168.705 74.4645 167.652 74.4645C167.274 74.4645 166.867 74.4054 166.432 74.2906C165.996 74.1758 165.61 74.025 165.272 73.836L165.567 72.9029C165.855 73.0893 166.178 73.2336 166.535 73.3352C166.889 73.4401 167.255 73.4905 167.635 73.4905C168.398 73.4905 168.964 73.2461 169.329 72.7586C169.696 72.2646 169.88 71.5501 169.88 70.6041V69.446C169.608 69.8771 169.273 70.2078 168.877 70.4363C168.482 70.6659 168.021 70.7806 167.501 70.7806C166.536 70.7806 165.78 70.4041 165.233 69.6509C164.686 68.8993 164.411 67.8965 164.411 66.646V65.3375Z" fill="black"/>
<path d="M174.543 70.5953H173.467V61.0202H174.543V70.5953ZM174.543 58.294H173.467V56.7855H174.543V58.294Z" fill="black"/>
<path d="M178.013 61.0202L178.1 62.603C178.357 62.0411 178.694 61.6051 179.118 61.3017C179.542 60.9967 180.038 60.8421 180.606 60.8421C181.464 60.8421 182.124 61.1585 182.581 61.7941C183.041 62.4287 183.268 63.4152 183.268 64.7536V70.5953H182.194V64.7635C182.194 63.6694 182.034 62.9053 181.715 62.462C181.395 62.0188 180.931 61.7979 180.322 61.7979C179.777 61.7979 179.32 61.9745 178.954 62.3336C178.587 62.6893 178.311 63.1633 178.129 63.7607V70.5953H177.062V61.0202H178.013Z" fill="black"/>
<path d="M188.613 61.7793C187.944 61.7793 187.395 62.0831 186.967 62.6893C186.538 63.2977 186.314 64.0474 186.295 64.9411H190.726V64.5312C190.726 63.7409 190.541 63.0829 190.167 62.5608C189.795 62.0384 189.277 61.7793 188.613 61.7793ZM188.766 70.7805C187.727 70.7805 186.882 70.3918 186.227 69.6163C185.57 68.8424 185.241 67.8521 185.241 66.6459V65.0559C185.241 63.8474 185.57 62.8397 186.229 62.0384C186.89 61.241 187.685 60.842 188.613 60.842C189.619 60.842 190.402 61.1978 190.959 61.9115C191.514 62.6264 191.793 63.5867 191.793 64.7918V65.8423H186.295V66.6387C186.295 67.5657 186.519 68.3374 186.963 68.9534C187.406 69.5709 188.007 69.877 188.766 69.877C189.291 69.877 189.746 69.7845 190.125 69.6027C190.51 69.4167 190.835 69.1561 191.11 68.814L191.546 69.5671C191.253 69.9338 190.879 70.2301 190.42 70.4498C189.963 70.6684 189.41 70.7805 188.766 70.7805Z" fill="black"/>
<path d="M34.7953 0C30.9258 0.857692 27.0978 2.052 23.5091 3.853C23.5911 7.01252 23.796 10.0398 24.2113 13.1148C22.8176 14.0051 21.3529 14.7692 20.0511 15.8114C18.7285 16.8259 17.3774 17.7963 16.1798 18.9829C13.7872 17.405 11.2551 15.9221 8.6463 14.6132C5.83419 17.6307 3.20463 20.8876 1.0567 24.532C2.74475 27.1739 4.55529 29.8292 6.23208 31.8999V49.9001V52.1864V54.2673C6.27311 54.2675 6.31444 54.2688 6.3551 54.2726L20.1082 55.5949C20.8286 55.6642 21.3931 56.2425 21.4433 56.9623L21.8674 63.0154L33.8643 63.8691L34.6905 58.2822C34.7976 57.5578 35.4211 57.0207 36.1559 57.0207H50.6659C51.4004 57.0207 52.0237 57.5578 52.1309 58.2822L52.9571 63.8691L64.9544 63.0154L65.3781 56.9623C65.4286 56.2425 65.9927 55.6646 66.7131 55.5949L80.4608 54.2726C80.5015 54.2689 80.5423 54.2676 80.5834 54.2673V52.4823L80.5893 52.4808V31.8999C82.5259 29.4691 84.3596 26.7879 85.7646 24.532C83.6175 20.8876 80.9867 17.6307 78.1745 14.6132C75.5665 15.9221 73.0332 17.405 70.6406 18.9829C69.4433 17.7963 68.0948 16.8259 66.7702 15.8114C65.4688 14.7692 64.0021 14.0051 62.611 13.1148C63.0252 10.0398 63.2303 7.01252 63.3128 3.853C59.7236 2.052 55.896 0.857692 52.0246 0C50.4789 2.59012 49.0654 5.39523 47.8344 8.13727C46.3745 7.89405 44.908 7.80388 43.4395 7.78646V7.78401C43.4292 7.78401 43.4197 7.78646 43.4109 7.78646C43.4018 7.78646 43.392 7.78401 43.3829 7.78401V7.78646C41.9116 7.80388 40.4462 7.89405 38.986 8.13727C37.7557 5.39523 36.3433 2.59012 34.7953 0ZM23.9146 32.7203C28.4924 32.7203 32.2029 36.417 32.2029 40.9797C32.2029 45.5455 28.4924 49.2441 23.9146 49.2441C19.339 49.2441 15.6277 45.5455 15.6277 40.9797C15.6277 36.417 19.339 32.7203 23.9146 32.7203ZM62.9078 32.7203C67.4829 32.7203 71.1937 36.417 71.1937 40.9797C71.1937 45.5455 67.4829 49.2441 62.9078 49.2441C58.3292 49.2441 54.6189 45.5455 54.6189 40.9797C54.6189 36.417 58.3292 32.7203 62.9078 32.7203ZM43.4099 37.5536C44.8834 37.5536 46.0805 38.6375 46.0805 39.971V47.5784C46.0805 48.913 44.8834 49.9957 43.4099 49.9957C41.9364 49.9957 40.7423 48.913 40.7423 47.5784V39.971C40.7423 38.6375 41.9364 37.5536 43.4099 37.5536Z" fill="black"/>
<path d="M68.2454 58.4146L67.8194 64.4999C67.7681 65.2334 67.183 65.8172 66.4474 65.8698L51.7979 66.912C51.7622 66.9147 51.7265 66.9158 51.6911 66.9158C50.9631 66.9158 50.3351 66.3831 50.2275 65.6543L49.3874 59.9739H37.4342L36.5941 65.6543C36.4812 66.4187 35.7958 66.9684 35.0237 66.912L20.3742 65.8698C19.6386 65.8171 19.0534 65.2334 19.0021 64.4999L18.5762 58.4146L6.20953 57.2258C6.21523 58.551 6.23233 60.0027 6.23233 60.2918C6.23233 73.314 22.8006 79.5732 43.3855 79.6452H43.4106H43.436C64.0209 79.5732 80.5835 73.314 80.5835 60.2918C80.5835 59.9974 80.6014 58.5518 80.6075 57.2258L68.2454 58.4146Z" fill="black"/>
<path d="M30.2086 41.4698C30.2086 44.4983 27.7468 46.9528 24.7071 46.9528C21.6689 46.9528 19.2056 44.4983 19.2056 41.4698C19.2056 38.4414 21.6689 35.9846 24.7071 35.9846C27.7468 35.9846 30.2086 38.4414 30.2086 41.4698Z" fill="black"/>
<path d="M56.6135 41.4698C56.6135 44.4983 59.0745 46.9528 62.1119 46.9528C65.1524 46.9528 67.6134 44.4983 67.6134 41.4698C67.6134 38.4414 65.1524 35.9846 62.1119 35.9846C59.0745 35.9846 56.6135 38.4414 56.6135 41.4698Z" fill="black"/>
<path d="M97.1641 161.951V137.301H107.428V162.314C107.428 166.483 109.589 169.201 114.632 169.201C119.314 169.201 121.655 166.301 121.655 162.133V137.301H131.919V161.951C131.919 171.558 126.156 177.358 114.632 177.358C102.927 177.539 97.1641 171.739 97.1641 161.951ZM136.601 146.726H145.785V150.895H145.965C148.126 147.633 151.007 146.001 155.149 146.001C161.632 146.001 165.413 150.714 165.413 157.42V176.814H155.869V159.233C155.869 156.151 154.248 153.976 151.187 153.976C148.126 153.976 145.965 156.695 145.965 160.32V176.814H136.421V146.726H136.601ZM170.275 134.945H179.819V142.739H170.275V134.945ZM170.275 146.726H179.819V176.633H170.275V146.726ZM187.202 168.839V154.52H183.241V146.726H187.202V137.301H196.386V146.726H201.789V154.52H196.386V166.845C196.386 169.201 197.647 169.745 199.628 169.745H201.789V176.633C200.888 176.814 199.087 177.176 196.566 177.176C191.164 177.176 187.202 175.364 187.202 168.839ZM207.731 179.17H210.973C213.674 179.17 214.934 178.083 214.934 176.089C214.934 174.82 214.394 173.008 213.133 169.926L204.31 146.908H214.214L218.176 159.595C219.076 162.495 219.976 166.483 219.976 166.483H220.156C220.156 166.483 221.057 162.495 221.957 159.595L225.919 146.908H235.463L225.199 177.176C222.858 184.245 219.976 186.601 214.034 186.601H207.911L207.731 179.17Z" fill="black"/>
<path d="M76.9955 175.545V134.945L42.0607 114.645V130.233L55.7465 138.208C56.2867 138.57 56.2867 139.295 55.7465 139.476L39.5396 148.901C38.9994 149.264 38.4591 149.083 38.099 148.901L21.8921 139.476C21.3518 139.295 21.3518 138.389 21.8921 138.208L35.5779 130.233V114.645L0.462952 134.945V175.545L13.7886 167.751V151.801C13.7886 151.258 14.5089 150.895 14.8691 151.076L31.076 160.501C31.6162 160.864 31.7963 161.226 31.7963 161.77V180.62C31.7963 181.164 31.076 181.526 30.7158 181.345L17.03 173.37L3.70433 181.164L38.6392 201.645L73.5741 181.345L60.2484 173.551L46.5626 181.526C46.0223 181.889 45.4821 181.526 45.4821 180.801V161.951C45.4821 161.408 45.8423 160.864 46.2024 160.683L62.4093 151.258C62.9496 150.895 63.4898 151.258 63.4898 151.983V167.933L76.9955 175.545Z" fill="#4C4C4C"/>
<path d="M38.6392 201.645L73.5741 181.345L60.2484 173.551L46.5626 181.526C46.0224 181.889 45.4821 181.526 45.4821 180.801V161.951C45.4821 161.408 45.8423 160.864 46.2024 160.683L62.4093 151.258C62.9496 150.895 63.4898 151.258 63.4898 151.983V167.933L76.8155 175.726V134.945L38.6392 157.239V201.645Z" fill="black"/>
<path d="M42.0607 114.645V130.233L55.7465 138.208C56.2867 138.57 56.2867 139.295 55.7465 139.476L39.5396 148.901C38.9994 149.264 38.4591 149.083 38.099 148.901L21.8921 139.476C21.3518 139.295 21.3518 138.389 21.8921 138.208L35.5779 130.233V114.645L0.462952 134.945L38.6392 157.239L76.8154 134.945L42.0607 114.645Z" fill="#808080"/>
<path d="M30.8959 181.526L17.2101 173.551L3.88441 181.345L38.8193 201.645V157.239L0.462952 134.945V175.545L13.7886 167.751V151.801C13.7886 151.258 14.5089 150.895 14.8691 151.076L31.076 160.501C31.6162 160.864 31.7963 161.226 31.7963 161.77V180.62C31.9764 181.345 31.4361 181.889 30.8959 181.526Z" fill="#4C4C4C"/>
</svg>
