<svg width="535" height="87" viewBox="0 0 535 87" fill="none" xmlns="http://www.w3.org/2000/svg">
<path d="M141.349 32.4725C139.977 32.4725 138.827 33.101 137.895 34.3542C136.967 35.6086 136.501 37.369 136.501 39.6345C136.501 41.9049 136.944 43.643 137.832 44.8541C138.719 46.0691 139.883 46.6741 141.328 46.6741C142.772 46.6741 143.945 46.0615 144.845 44.8322C145.746 43.6074 146.198 41.8541 146.198 39.5716C146.198 37.291 145.732 35.5354 144.802 34.3095C143.874 33.0851 142.723 32.4725 141.349 32.4725ZM141.328 55.0108C137.31 55.0108 134.034 53.7 131.502 51.0788C128.974 48.4554 127.709 44.6272 127.709 39.5947C127.709 34.5592 128.988 30.7465 131.547 28.1503C134.106 25.5576 137.41 24.26 141.457 24.26C145.503 24.26 148.772 25.5341 151.258 28.0897C153.748 30.6405 154.992 34.5073 154.992 39.6788C154.992 44.8541 153.72 48.7035 151.173 51.2296C148.626 53.7504 145.347 55.0108 141.328 55.0108Z" fill="black"/>
<path d="M167.015 32.7688V45.5615C167.015 46.1589 167.059 46.5355 167.145 46.6935C167.23 46.8507 167.488 46.9295 167.916 46.9295C169.49 46.9295 170.683 46.343 171.499 45.1739C172.316 44.006 172.72 42.0614 172.72 39.3379C172.72 36.6133 172.297 34.8381 171.457 34.0133C170.612 33.1863 169.274 32.7688 167.444 32.7688H167.015ZM158.779 52.617V26.9563C158.779 26.243 158.957 25.68 159.316 25.2625C159.673 24.8515 160.137 24.6427 160.711 24.6427H167.875C172.421 24.6427 175.874 25.7861 178.232 28.0675C180.593 30.3481 181.774 33.9391 181.774 38.8443C181.774 49.3381 177.282 54.5839 168.302 54.5839H160.968C159.51 54.5839 158.779 53.9297 158.779 52.617Z" fill="black"/>
<path d="M198.243 32.4725C196.871 32.4725 195.719 33.101 194.788 34.3542C193.861 35.6086 193.396 37.369 193.396 39.6345C193.396 41.9049 193.84 43.643 194.726 44.8541C195.611 46.0691 196.777 46.6741 198.221 46.6741C199.666 46.6741 200.839 46.0615 201.739 44.8322C202.64 43.6074 203.092 41.8541 203.092 39.5716C203.092 37.291 202.626 35.5354 201.697 34.3095C200.767 33.0851 199.617 32.4725 198.243 32.4725ZM198.221 55.0108C194.203 55.0108 190.929 53.7 188.399 51.0788C185.867 48.4554 184.602 44.6272 184.602 39.5947C184.602 34.5592 185.881 30.7465 188.44 28.1503C191.001 25.5576 194.303 24.26 198.351 24.26C202.398 24.26 205.664 25.5341 208.153 28.0897C210.642 30.6405 211.885 34.5073 211.885 39.6788C211.885 44.8541 210.613 48.7035 208.067 51.2296C205.521 53.7504 202.239 55.0108 198.221 55.0108Z" fill="black"/>
<path d="M227.873 53.9024C227.873 54.4691 226.46 54.7567 223.627 54.7567C220.797 54.7567 219.379 54.4691 219.379 53.9024V32.4294H214.232C213.746 32.4294 213.402 31.7751 213.203 30.4602C213.117 29.8343 213.076 29.1937 213.076 28.5368C213.076 27.8837 213.117 27.2404 213.203 26.6134C213.402 25.3019 213.746 24.6427 214.232 24.6427H232.893C233.379 24.6427 233.721 25.3019 233.924 26.6134C234.007 27.2404 234.051 27.8837 234.051 28.5368C234.051 29.1937 234.007 29.8343 233.924 30.4602C233.721 31.7751 233.379 32.4294 232.893 32.4294H227.873V53.9024Z" fill="black"/>
<path d="M120.123 38.7034C117.813 38.6678 115.17 39.1478 115.17 39.1478V43.642H117.828L117.799 45.6453C117.799 46.3874 117.061 46.7602 115.589 46.7602C114.116 46.7602 112.814 46.1381 111.685 44.8974C110.554 43.6552 109.991 41.8394 109.991 39.4467C109.991 37.049 110.541 35.2814 111.642 34.1407C112.741 33.0011 114.181 32.4295 115.953 32.4295C116.697 32.4295 117.468 32.5492 118.269 32.7935C119.071 33.0356 119.606 33.2625 119.88 33.4751C120.151 33.6936 120.408 33.7971 120.652 33.7971C120.894 33.7971 121.287 33.5145 121.83 32.9428C122.373 32.3726 122.861 31.5085 123.29 30.3564C123.718 29.1983 123.932 28.3107 123.932 27.6811C123.932 27.0564 123.919 26.6256 123.891 26.3983C123.29 25.7429 122.182 25.2232 120.564 24.8368C118.95 24.4515 117.141 24.2602 115.139 24.2602C110.733 24.2602 107.288 25.6429 104.801 28.4085C102.311 31.1751 101.069 34.7665 101.069 39.1872C101.069 44.3777 102.341 48.3123 104.884 50.9926C107.432 53.6725 110.777 55.0109 114.925 55.0109C117.155 55.0109 119.135 54.8196 120.864 54.4343C122.596 54.0506 123.747 53.6566 124.319 53.258L124.491 39.8736C124.491 39.0959 122.432 38.7428 120.123 38.7034Z" fill="black"/>
<path d="M111.08 72.5199C110.843 73.0048 110.407 73.4495 109.769 73.8519C109.133 74.2568 108.324 74.458 107.341 74.458C106.045 74.458 105.002 74.0508 104.21 73.2272C103.421 72.41 103.026 71.2322 103.026 69.6952V65.8629C103.026 64.3593 103.398 63.2061 104.145 62.4011C104.891 61.6025 105.89 61.1975 107.137 61.1975C108.355 61.1975 109.3 61.5172 109.969 62.1495C110.636 62.7841 110.986 63.6706 111.017 64.8025L111 64.8529H110.005C109.969 63.9854 109.717 63.316 109.241 62.8432C108.769 62.3742 108.065 62.137 107.137 62.137C106.197 62.137 105.453 62.4541 104.908 63.0902C104.364 63.7247 104.093 64.6446 104.093 65.8531V69.7074C104.093 70.9606 104.386 71.916 104.972 72.574C105.557 73.2272 106.345 73.5545 107.341 73.5545C108.068 73.5545 108.652 73.426 109.09 73.1631C109.528 72.904 109.833 72.5877 110.005 72.2122V68.8554H107.322V67.9223H111.08V72.5199Z" fill="black"/>
<path d="M116.007 73.5C116.597 73.5 117.123 73.3333 117.582 72.9939C118.042 72.6529 118.364 72.2222 118.555 71.6975V69.626H116.848C116.123 69.626 115.541 69.8309 115.106 70.2408C114.67 70.6481 114.454 71.1569 114.454 71.7619C114.454 72.2729 114.589 72.6927 114.862 73.0162C115.135 73.3409 115.516 73.5 116.007 73.5ZM118.714 74.2728C118.661 73.941 118.62 73.6716 118.593 73.4606C118.568 73.2458 118.555 73.0321 118.555 72.815C118.264 73.2901 117.887 73.6841 117.423 73.9929C116.959 74.3039 116.443 74.4581 115.874 74.4581C115.08 74.4581 114.468 74.2126 114.035 73.7208C113.605 73.2272 113.388 72.562 113.388 71.7221C113.388 70.8345 113.701 70.1223 114.328 69.5938C114.954 69.0653 115.806 68.8012 116.877 68.8012H118.555V67.6246C118.555 66.948 118.382 66.4149 118.042 66.0297C117.694 65.6493 117.217 65.4569 116.601 65.4569C116.028 65.4569 115.556 65.6383 115.185 66.0062C114.815 66.3717 114.632 66.8184 114.632 67.3507L113.635 67.342L113.617 67.2901C113.589 66.568 113.863 65.9296 114.441 65.364C115.017 64.7999 115.755 64.5196 116.654 64.5196C117.543 64.5196 118.258 64.789 118.804 65.3258C119.347 65.8679 119.619 66.6407 119.619 67.6458V72.3419C119.619 72.684 119.635 73.0162 119.665 73.3333C119.696 73.6546 119.746 73.9641 119.824 74.2728H118.714Z" fill="black"/>
<path d="M122.966 64.6976L123.058 66.1838C123.31 65.6519 123.648 65.242 124.067 64.9507C124.488 64.6631 124.983 64.5196 125.551 64.5196C126.131 64.5196 126.62 64.6878 127.015 65.0283C127.41 65.3678 127.701 65.8815 127.886 66.5717C128.122 65.9345 128.458 65.431 128.893 65.0666C129.328 64.7014 129.855 64.5196 130.467 64.5196C131.309 64.5196 131.963 64.8594 132.426 65.5394C132.891 66.2209 133.123 67.2665 133.123 68.6792V74.2728H132.05V68.6606C132.05 67.4862 131.887 66.6592 131.57 66.1838C131.251 65.7076 130.794 65.4678 130.203 65.4678C129.581 65.4678 129.096 65.7296 128.746 66.2618C128.399 66.7941 128.185 67.4593 128.107 68.2629V68.511V74.2728H127.04V68.6667C127.04 67.52 126.878 66.699 126.549 66.2088C126.22 65.7186 125.764 65.4754 125.177 65.4754C124.617 65.4754 124.164 65.6458 123.824 65.9838C123.482 66.3236 123.239 66.7888 123.091 67.379V74.2728H122.025V64.6976H122.966Z" fill="black"/>
<path d="M138.451 65.4567C137.783 65.4567 137.234 65.7606 136.804 66.3667C136.373 66.9751 136.151 67.7248 136.133 68.6185H140.564V68.2086C140.564 67.4184 140.378 66.7603 140.005 66.2383C139.631 65.7159 139.114 65.4567 138.451 65.4567ZM138.601 74.4579C137.566 74.4579 136.719 74.0693 136.061 73.2938C135.406 72.5198 135.077 71.5295 135.077 70.3233V68.7333C135.077 67.5248 135.406 66.5171 136.066 65.7159C136.726 64.9184 137.52 64.5195 138.451 64.5195C139.457 64.5195 140.236 64.8752 140.793 65.5889C141.35 66.3038 141.629 67.2642 141.629 68.4693V69.5198H136.133V70.3161C136.133 71.2431 136.356 72.0148 136.799 72.6308C137.243 73.2483 137.846 73.5544 138.601 73.5544C139.127 73.5544 139.584 73.462 139.965 73.2801C140.346 73.0941 140.673 72.8335 140.944 72.4914L141.381 73.2445C141.091 73.6112 140.715 73.9075 140.257 74.1272C139.799 74.3458 139.246 74.4579 138.601 74.4579Z" fill="black"/>
<path d="M150.295 65.4567C149.625 65.4567 149.075 65.7606 148.645 66.3667C148.218 66.9751 147.995 67.7248 147.976 68.6185H152.407V68.2086C152.407 67.4184 152.222 66.7603 151.847 66.2383C151.474 65.7159 150.958 65.4567 150.295 65.4567ZM150.445 74.4579C149.409 74.4579 148.563 74.0693 147.907 73.2938C147.248 72.5198 146.919 71.5295 146.919 70.3233V68.7333C146.919 67.5248 147.25 66.5171 147.908 65.7159C148.57 64.9184 149.364 64.5195 150.295 64.5195C151.299 64.5195 152.082 64.8752 152.637 65.5889C153.193 66.3038 153.472 67.2642 153.472 68.4693V69.5198H147.976V70.3161C147.976 71.2431 148.199 72.0148 148.644 72.6308C149.086 73.2483 149.686 73.5544 150.445 73.5544C150.972 73.5544 151.427 73.462 151.807 73.2801C152.189 73.0941 152.516 72.8335 152.791 72.4914L153.224 73.2445C152.934 73.6112 152.559 73.9075 152.1 74.1272C151.642 74.3458 151.09 74.4579 150.445 74.4579Z" fill="black"/>
<path d="M156.287 64.6976L156.374 66.2804C156.63 65.7186 156.969 65.2825 157.393 64.9791C157.814 64.6741 158.31 64.5196 158.881 64.5196C159.738 64.5196 160.396 64.8359 160.852 65.4716C161.313 66.1061 161.542 67.0926 161.542 68.4311V74.2728H160.468V68.4409C160.468 67.3468 160.308 66.5827 159.988 66.1395C159.67 65.6962 159.203 65.4754 158.596 65.4754C158.05 65.4754 157.593 65.6519 157.227 66.011C156.858 66.3668 156.584 66.8407 156.401 67.4381V74.2728H155.335V64.6976H156.287Z" fill="black"/>
<path d="M164.669 70.3234C164.669 71.2951 164.854 72.068 165.228 72.6431C165.598 73.2234 166.162 73.5098 166.914 73.5098C167.429 73.5098 167.863 73.3731 168.219 73.0927C168.574 72.8124 168.854 72.4222 169.062 71.927V67.184C168.862 66.6741 168.588 66.2619 168.242 65.9444C167.896 65.6323 167.459 65.4754 166.932 65.4754C166.182 65.4754 165.614 65.8012 165.237 66.4555C164.858 67.1109 164.669 67.9655 164.669 69.0149V70.3234ZM163.593 69.0149C163.593 67.6579 163.867 66.568 164.42 65.7467C164.968 64.9295 165.73 64.5196 166.701 64.5196C167.24 64.5196 167.713 64.6507 168.118 64.9136C168.523 65.1716 168.857 65.5493 169.126 66.0297L169.23 64.6977H170.135V74.2815C170.135 75.5086 169.849 76.4595 169.276 77.1323C168.702 77.8025 167.886 78.1419 166.834 78.1419C166.455 78.1419 166.048 78.0828 165.613 77.968C165.177 77.8532 164.792 77.7025 164.454 77.5134L164.748 76.5803C165.037 76.7667 165.359 76.9111 165.717 77.0126C166.071 77.1175 166.437 77.1679 166.816 77.1679C167.579 77.1679 168.145 76.9236 168.511 76.436C168.878 75.942 169.062 75.2275 169.062 74.2815V73.1234C168.789 73.5545 168.455 73.8853 168.059 74.1137C167.664 74.3433 167.203 74.4581 166.682 74.4581C165.718 74.4581 164.961 74.0815 164.415 73.3284C163.867 72.5768 163.593 71.574 163.593 70.3234V69.0149Z" fill="black"/>
<path d="M173.724 74.2728H172.649V64.6977H173.724V74.2728ZM173.724 61.9715H172.649V60.463H173.724V61.9715Z" fill="black"/>
<path d="M177.194 64.6976L177.282 66.2804C177.539 65.7186 177.875 65.2825 178.299 64.9791C178.723 64.6741 179.22 64.5196 179.787 64.5196C180.645 64.5196 181.305 64.8359 181.763 65.4716C182.223 66.1061 182.449 67.0926 182.449 68.4311V74.2728H181.376V68.4409C181.376 67.3468 181.216 66.5827 180.897 66.1395C180.577 65.6962 180.113 65.4754 179.503 65.4754C178.958 65.4754 178.502 65.6519 178.136 66.011C177.768 66.3668 177.493 66.8407 177.311 67.4381V74.2728H176.243V64.6976H177.194Z" fill="black"/>
<path d="M187.795 65.4567C187.125 65.4567 186.576 65.7606 186.148 66.3667C185.719 66.9751 185.495 67.7248 185.476 68.6185H189.908V68.2086C189.908 67.4184 189.723 66.7603 189.349 66.2383C188.976 65.7159 188.459 65.4567 187.795 65.4567ZM187.947 74.4579C186.909 74.4579 186.064 74.0693 185.409 73.2938C184.752 72.5198 184.423 71.5295 184.423 70.3233V68.7333C184.423 67.5248 184.752 66.5171 185.411 65.7159C186.072 64.9184 186.866 64.5195 187.795 64.5195C188.8 64.5195 189.583 64.8752 190.14 65.5889C190.696 66.3038 190.974 67.2642 190.974 68.4693V69.5198H185.476V70.3161C185.476 71.2431 185.701 72.0148 186.144 72.6308C186.587 73.2483 187.188 73.5544 187.947 73.5544C188.473 73.5544 188.927 73.462 189.307 73.2801C189.691 73.0941 190.017 72.8335 190.291 72.4914L190.727 73.2445C190.435 73.6112 190.06 73.9075 189.602 74.1272C189.145 74.3458 188.592 74.4579 187.947 74.4579Z" fill="black"/>
<path d="M33.9769 3.67743C30.1073 4.53512 26.2794 5.72942 22.6907 7.53043C22.7727 10.6899 22.9776 13.7172 23.3929 16.7922C21.9992 17.6825 20.5345 18.4466 19.2327 19.4888C17.91 20.5033 16.559 21.4738 15.3614 22.6603C12.9687 21.0824 10.4367 19.5995 7.82788 18.2907C5.01577 21.3081 2.38621 24.565 0.238281 28.2094C1.92633 30.8513 3.73687 33.5066 5.41365 35.5774V53.5775V55.8639V57.9447C5.45469 57.9449 5.49602 57.9463 5.53668 57.9501L19.2898 59.2724C20.0102 59.3417 20.5747 59.92 20.6248 60.6398L21.049 66.6928L33.0458 67.5465L33.8721 61.9596C33.9792 61.2352 34.6027 60.6982 35.3375 60.6982H49.8475C50.5819 60.6982 51.2053 61.2352 51.3124 61.9596L52.1387 67.5465L64.136 66.6928L64.5597 60.6398C64.6102 59.92 65.1743 59.3421 65.8947 59.2724L79.6424 57.9501C79.6831 57.9463 79.7239 57.9451 79.7649 57.9447V56.1597L79.7708 56.1583V35.5774C81.7075 33.1466 83.5412 30.4653 84.9462 28.2094C82.799 24.565 80.1682 21.3081 77.3561 18.2907C74.7481 19.5995 72.2148 21.0824 69.8221 22.6603C68.6249 21.4738 67.2764 20.5033 65.9518 19.4888C64.6504 18.4466 63.1837 17.6825 61.7926 16.7922C62.2068 13.7172 62.4119 10.6899 62.4943 7.53043C58.9052 5.72942 55.0776 4.53512 51.2061 3.67743C49.6604 6.26755 48.247 9.07266 47.0159 11.8147C45.5561 11.5715 44.0896 11.4813 42.621 11.4639V11.4614C42.6108 11.4614 42.6012 11.4639 42.5925 11.4639C42.5834 11.4639 42.5736 11.4614 42.5644 11.4614V11.4639C41.0932 11.4813 39.6278 11.5715 38.1676 11.8147C36.9372 9.07266 35.5248 6.26755 33.9769 3.67743ZM23.0961 36.3977C27.6739 36.3977 31.3845 40.0944 31.3845 44.6572C31.3845 49.2229 27.6739 52.9215 23.0961 52.9215C18.5206 52.9215 14.8092 49.2229 14.8092 44.6572C14.8092 40.0944 18.5206 36.3977 23.0961 36.3977ZM62.0893 36.3977C66.6645 36.3977 70.3753 40.0944 70.3753 44.6572C70.3753 49.2229 66.6645 52.9215 62.0893 52.9215C57.5108 52.9215 53.8005 49.2229 53.8005 44.6572C53.8005 40.0944 57.5108 36.3977 62.0893 36.3977ZM42.5915 41.231C44.065 41.231 45.2621 42.3149 45.2621 43.6484V51.2558C45.2621 52.5904 44.065 53.6732 42.5915 53.6732C41.118 53.6732 39.9239 52.5904 39.9239 51.2558V43.6484C39.9239 42.3149 41.118 41.231 42.5915 41.231Z" fill="black"/>
<path d="M67.427 62.0921L67.001 68.1774C66.9497 68.9108 66.3646 69.4946 65.629 69.5473L50.9795 70.5894C50.9438 70.5921 50.9081 70.5932 50.8727 70.5932C50.1447 70.5932 49.5166 70.0606 49.4091 69.3317L48.569 63.6514H36.6157L35.7756 69.3317C35.6628 70.0962 34.9773 70.6459 34.2052 70.5894L19.5558 69.5472C18.8202 69.4946 18.235 68.9108 18.1837 68.1774L17.7578 62.0921L5.39111 60.9033C5.39681 62.2284 5.41391 63.6802 5.41391 63.9692C5.41391 76.9914 21.9822 83.2506 42.5671 83.3226H42.5922H42.6176C63.2025 83.2506 79.7651 76.9914 79.7651 63.9692C79.7651 63.6749 79.783 62.2292 79.7891 60.9033L67.427 62.0921Z" fill="black"/>
<path d="M29.3902 45.1473C29.3902 48.1757 26.9284 50.6302 23.8887 50.6302C20.8505 50.6302 18.3872 48.1757 18.3872 45.1473C18.3872 42.1188 20.8505 39.662 23.8887 39.662C26.9284 39.662 29.3902 42.1188 29.3902 45.1473Z" fill="black"/>
<path d="M55.7952 45.1473C55.7952 48.1757 58.2562 50.6302 61.2936 50.6302C64.3341 50.6302 66.7951 48.1757 66.7951 45.1473C66.7951 42.1188 64.3341 39.662 61.2936 39.662C58.2562 39.662 55.7952 42.1188 55.7952 45.1473Z" fill="black"/>
<path d="M386.752 47.3062V22.6562H397.016V47.6687C397.016 51.8374 399.177 54.5562 404.219 54.5562C408.901 54.5562 411.242 51.6562 411.242 47.4874V22.6562H421.507V47.3062C421.507 56.9124 415.744 62.7124 404.219 62.7124C392.514 62.8937 386.752 57.0937 386.752 47.3062ZM426.189 32.0812H435.373V36.2499H435.553C437.714 32.9874 440.595 31.3562 444.737 31.3562C451.219 31.3562 455.001 36.0687 455.001 42.7749V62.1687H445.457V44.5874C445.457 41.5062 443.836 39.3312 440.775 39.3312C437.714 39.3312 435.553 42.0499 435.553 45.6749V62.1687H426.009V32.0812H426.189ZM459.863 20.2999H469.407V28.0937H459.863V20.2999ZM459.863 32.0812H469.407V61.9874H459.863V32.0812ZM476.79 54.1937V39.8749H472.829V32.0812H476.79V22.6562H485.974V32.0812H491.376V39.8749H485.974V52.1999C485.974 54.5562 487.235 55.0999 489.216 55.0999H491.376V61.9874C490.476 62.1687 488.675 62.5312 486.154 62.5312C480.752 62.5312 476.79 60.7187 476.79 54.1937ZM497.319 64.5249H500.56C503.262 64.5249 504.522 63.4374 504.522 61.4437C504.522 60.1749 503.982 58.3624 502.721 55.2812L493.898 32.2624H503.802L507.763 44.9499C508.664 47.8499 509.564 51.8374 509.564 51.8374H509.744C509.744 51.8374 510.645 47.8499 511.545 44.9499L515.507 32.2624H525.051L514.786 62.5312C512.445 69.5999 509.564 71.9562 503.622 71.9562H497.499L497.319 64.5249Z" fill="black"/>
<path d="M366.583 60.9V20.3L331.648 0V15.5875L345.334 23.5625C345.875 23.925 345.875 24.65 345.334 24.8312L329.127 34.2562C328.587 34.6188 328.047 34.4375 327.687 34.2562L311.48 24.8312C310.94 24.65 310.94 23.7437 311.48 23.5625L325.166 15.5875V0L290.051 20.3V60.9L303.376 53.1063V37.1562C303.376 36.6125 304.097 36.25 304.457 36.4313L320.664 45.8563C321.204 46.2188 321.384 46.5812 321.384 47.125V65.975C321.384 66.5188 320.664 66.8812 320.304 66.7L306.618 58.725L293.292 66.5188L328.227 87L363.162 66.7L349.836 58.9063L336.15 66.8812C335.61 67.2438 335.07 66.8812 335.07 66.1562V47.3063C335.07 46.7625 335.43 46.2188 335.79 46.0375L351.997 36.6125C352.537 36.25 353.078 36.6125 353.078 37.3375V53.2875L366.583 60.9Z" fill="#4C4C4C"/>
<path d="M328.227 86.9999L363.162 66.6999L349.836 58.9062L336.15 66.8812C335.61 67.2437 335.07 66.8812 335.07 66.1562V47.3062C335.07 46.7624 335.43 46.2187 335.79 46.0374L351.997 36.6124C352.537 36.2499 353.078 36.6124 353.078 37.3374V53.2874L366.403 61.0812V20.2999L328.227 42.5937V86.9999Z" fill="black"/>
<path d="M331.648 0V15.5875L345.334 23.5625C345.875 23.925 345.875 24.65 345.334 24.8312L329.127 34.2562C328.587 34.6187 328.047 34.4375 327.687 34.2562L311.48 24.8312C310.94 24.65 310.94 23.7437 311.48 23.5625L325.166 15.5875V0L290.051 20.3L328.227 42.5937L366.403 20.3L331.648 0Z" fill="#808080"/>
<path d="M320.484 66.8812L306.798 58.9062L293.472 66.6999L328.407 86.9999V42.5937L290.051 20.2999V60.8999L303.376 53.1062V37.1562C303.376 36.6124 304.097 36.2499 304.457 36.4312L320.664 45.8562C321.204 46.2187 321.384 46.5812 321.384 47.1249V65.9749C321.564 66.6999 321.024 67.2437 320.484 66.8812Z" fill="#4C4C4C"/>
</svg>
