<?xml version="1.0" encoding="utf-8"?>
<!-- Generator: Adobe Illustrator 28.3.0, SVG Export Plug-In . SVG Version: 6.00 Build 0)  -->
<svg version="1.1" id="Layer_1" xmlns="http://www.w3.org/2000/svg" xmlns:xlink="http://www.w3.org/1999/xlink" x="0px" y="0px"
	 viewBox="0 0 800 800" style="enable-background:new 0 0 800 800;" xml:space="preserve">
<style type="text/css">
	.st0{fill-rule:evenodd;clip-rule:evenodd;fill:#231F20;}
	.st1{fill-rule:evenodd;clip-rule:evenodd;fill:#FFFFFF;}
</style>
<g>
	<circle class="st0" cx="400" cy="400" r="386.3"/>
	<path class="st0" d="M599.6,249.1h-12.8v-13.6H208.8v43.7h-36.5v275.5h108.4v-66.4h214.8v51.5c0,11.5,9.3,20.9,20.9,20.9h83.3
		c11.5,0,20.9-9.3,20.9-20.9V270C620.5,258.4,611.2,249.1,599.6,249.1z"/>
	<g>
		<path class="st1" d="M316.5,340.8h-11.9v-11.9c0-13.2-10.7-23.9-23.9-23.9c-13.2,0-23.9,10.7-23.9,23.9v11.9h-11.9
			c-13.2,0-23.9,10.7-23.9,23.9c0,13.2,10.7,23.9,23.9,23.9h11.9v11.9c0,13.2,10.7,23.9,23.9,23.9c13.2,0,23.9-10.7,23.9-23.9v-11.9
			h11.9c13.2,0,23.9-10.7,23.9-23.9C340.3,351.4,329.6,340.8,316.5,340.8z"/>
		
			<ellipse transform="matrix(0.9732 -0.2298 0.2298 0.9732 -58.9134 127.7975)" class="st1" cx="519.3" cy="316.9" rx="23.9" ry="23.9"/>
		
			<ellipse transform="matrix(0.7071 -0.7071 0.7071 0.7071 -139.4738 488.0096)" class="st1" cx="519.3" cy="412.4" rx="23.9" ry="23.9"/>
		
			<ellipse transform="matrix(0.9871 -0.1602 0.1602 0.9871 -52.3172 80.2511)" class="st1" cx="471.6" cy="364.6" rx="23.9" ry="23.9"/>
		<circle class="st1" cx="567.1" cy="364.6" r="23.9"/>
		<path class="st1" d="M667.9,488.6c-2.4-28.9-4.7-59-5.7-80.5c-1.4-30-7.7-65.9-14.2-96.2c-11.5-54.2-55.7-94.3-110-102.1
			c-41.6-6-94.8-12.2-138-12.2s-96.4,6.2-138,12.2c-54.3,7.8-98.5,47.9-110,102.1c-6.4,30.3-12.7,66.2-14.2,96.2
			c-1,21.5-3.3,51.6-5.7,80.5c-2.5,30,7.5,61,25.9,83c18.7,22.5,48.4,37.6,82.7,28c21.9-6.1,39.4-21.5,52.4-36.7
			c13.3-15.5,23.9-33.2,31.4-47.6c5.8-11.1,16.1-17.3,25.8-17.3h99.5c9.7,0,20,6.2,25.8,17.3c7.5,14.4,18.1,32,31.4,47.6
			c13,15.2,30.5,30.6,52.4,36.7c34.2,9.6,63.9-5.6,82.7-28C660.4,549.5,670.4,518.6,667.9,488.6z M605.4,540.9
			c-9.9,11.9-21.4,15.9-33.1,12.6c-8.7-2.4-18.7-9.7-29-21.8c-10.1-11.8-18.7-26-25.4-38.7c-12.7-24.2-37.9-42.9-68.1-42.9h-99.5
			c-30.2,0-55.4,18.6-68.1,42.9c-6.6,12.7-15.3,26.9-25.4,38.7c-10.4,12.1-20.3,19.4-29,21.8c-11.8,3.3-23.2-0.8-33.1-12.6
			c-10.3-12.3-16.4-30.8-14.9-48.4c2.4-28.9,4.7-59.7,5.8-82.2c1.3-26.1,6.9-59,13.2-88.6c7.2-34.1,35-59.7,70.1-64.8
			c41.2-5.9,91.5-11.7,131.2-11.7s90,5.7,131.2,11.7c35,5,62.9,30.7,70.1,64.8c6.3,29.7,11.9,62.5,13.2,88.6
			c1.1,22.4,3.4,53.2,5.8,82.2C621.8,510.1,615.6,528.6,605.4,540.9z"/>
	</g>
</g>
</svg>
