<svg width="227" height="306" viewBox="0 0 227 306" fill="none" xmlns="http://www.w3.org/2000/svg">
<path d="M113.726 283.599L113.807 164.253" stroke="black" stroke-width="78" stroke-miterlimit="10"/>
<path d="M104.358 177.664C105.222 177.652 119.18 91.1822 22.3745 65.8323" stroke="#F6C400" stroke-width="15" stroke-miterlimit="10"/>
<path d="M36.5455 54.7385L27.0044 67.0468L29.2605 82.44L0 59.9746L36.5455 54.7385Z" fill="#F6C400"/>
<path d="M122.642 177.664C121.778 177.652 107.82 91.1822 204.625 65.8323" stroke="#F6C400" stroke-width="15" stroke-miterlimit="10"/>
<path d="M197.739 82.44L199.993 67.0468L190.454 54.7385L227 59.9746L197.739 82.44Z" fill="#F6C400"/>
<path d="M113.732 182.593V23.0841" stroke="#F6C400" stroke-width="15" stroke-miterlimit="10"/>
<path d="M128.084 33.9459L113.733 27.8619L99.3835 33.9459L113.733 0L128.084 33.9459Z" fill="#F6C400"/>
<path d="M37.9147 137.703C37.9147 134.962 41.0663 131.808 41.0663 131.808C41.0663 131.808 49.465 124.412 60.5332 123.524C62.508 123.229 72.9102 121.235 75.2553 122.341C77.873 123.573 86.0249 127.136 86.0249 127.136" fill="white"/>
<path d="M37.9147 137.703C37.9147 134.961 41.0663 131.808 41.0663 131.808C41.0663 131.808 49.465 124.412 60.5332 123.524C62.508 123.229 72.9102 121.235 75.2553 122.341C77.873 123.573 86.0249 127.136 86.0249 127.136" stroke="#1A1A1A" stroke-width="2" stroke-miterlimit="10"/>
<path d="M190.81 137.703C190.81 134.962 187.659 131.808 187.659 131.808C187.659 131.808 179.26 124.412 168.192 123.524C166.217 123.229 155.815 121.235 153.47 122.341C150.852 123.573 142.7 127.136 142.7 127.136" fill="white"/>
<path d="M190.81 137.703C190.81 134.961 187.659 131.808 187.659 131.808C187.659 131.808 179.26 124.412 168.192 123.524C166.217 123.229 155.815 121.235 153.47 122.341C150.852 123.573 142.7 127.136 142.7 127.136" stroke="#1A1A1A" stroke-width="2" stroke-miterlimit="10"/>
<path d="M211.974 224.368L211.922 224.147C211.23 221.641 199.872 148.112 196.221 144.168C196.195 144.142 196.184 144.107 196.184 144.073C196.158 143.535 192.292 139.381 192.105 139.181C192.099 139.175 188.724 136.74 178.964 131.811C169.291 126.924 120.963 126.503 114.246 126.469C114.246 126.469 114.111 126.469 113.859 126.469C113.606 126.469 113.471 126.469 113.471 126.469C106.755 126.506 58.4263 126.927 48.7532 131.814C38.9939 136.743 35.6184 139.178 35.6126 139.184C35.4261 139.381 31.5597 143.537 31.5338 144.076C31.5338 144.113 31.5195 144.145 31.4965 144.171C27.8454 148.115 16.4874 221.647 15.7956 224.15L15.744 224.371C11.8862 249.337 22.7218 255.529 23.9245 256.962C23.936 256.973 23.9475 256.985 23.9618 256.993C37.1913 264.813 46.5516 253.275 46.8329 252.997C56.8562 234.319 60.3121 227.633 63.2169 223.334C64.8559 220.908 67.6029 219.455 70.545 219.455H157.178C160.118 219.455 162.865 220.908 164.506 223.334C167.411 227.633 170.87 234.319 180.89 252.997C181.172 253.275 190.529 264.813 203.762 256.993C203.776 256.985 203.787 256.976 203.799 256.962C205.002 255.529 215.837 249.337 211.979 224.371L211.974 224.368Z" fill="white" stroke="#1A1A1A" stroke-width="2" stroke-miterlimit="10"/>
<path d="M25.7615 167.089C23.6862 178.234 59.1812 219.303 70.5392 219.45L25.7615 167.089Z" fill="white"/>
<path d="M25.7615 167.089C23.6862 178.234 59.1812 219.303 70.5392 219.45" stroke="#1A1A1A" stroke-width="2" stroke-miterlimit="10"/>
<path d="M201.904 167.089C203.98 178.234 168.485 219.303 157.127 219.45L201.904 167.089Z" fill="white"/>
<path d="M201.904 167.089C203.98 178.234 168.485 219.303 157.127 219.45" stroke="#1A1A1A" stroke-width="2" stroke-miterlimit="10"/>
<path d="M71.5984 186.237H80.2927C80.5109 186.237 80.6888 186.059 80.6888 185.842V176.77C80.6888 176.552 80.8668 176.375 81.0849 176.375H90.5715C90.7896 176.375 90.9676 176.552 90.9676 176.77V185.842C90.9676 186.059 91.1456 186.237 91.3637 186.237H100.454C100.672 186.237 100.85 186.415 100.85 186.632V196.297C100.85 196.514 100.672 196.692 100.454 196.692H91.3637C91.1456 196.692 90.9676 196.87 90.9676 197.087V205.961C90.9676 206.179 90.7896 206.356 90.5715 206.356H81.4724C81.2572 206.356 81.0821 206.185 81.0763 205.97L80.8955 196.881C80.8926 196.666 80.7147 196.494 80.4994 196.494H71.5984C71.3802 196.494 71.2023 196.317 71.2023 196.099V186.632C71.2023 186.415 71.3802 186.237 71.5984 186.237Z" fill="white" stroke="#1A1A1A" stroke-width="2" stroke-miterlimit="10"/>
<path d="M151.34 170.36C154.996 170.36 157.959 167.402 157.959 163.754C157.959 160.106 154.996 157.149 151.34 157.149C147.684 157.149 144.721 160.106 144.721 163.754C144.721 167.402 147.684 170.36 151.34 170.36Z" fill="white" stroke="#1A1A1A" stroke-width="2" stroke-miterlimit="10"/>
<path d="M166.903 156.802C170.559 156.802 173.522 153.845 173.522 150.197C173.522 146.549 170.559 143.592 166.903 143.592C163.248 143.592 160.284 146.549 160.284 150.197C160.284 153.845 163.248 156.802 166.903 156.802Z" fill="white" stroke="#1A1A1A" stroke-width="2" stroke-miterlimit="10"/>
<path d="M166.78 183.573C170.435 183.573 173.399 180.616 173.399 176.968C173.399 173.32 170.435 170.363 166.78 170.363C163.124 170.363 160.161 173.32 160.161 176.968C160.161 180.616 163.124 183.573 166.78 183.573Z" fill="white" stroke="#1A1A1A" stroke-width="2" stroke-miterlimit="10"/>
<path d="M182.466 170.36C186.122 170.36 189.085 167.402 189.085 163.754C189.085 160.106 186.122 157.149 182.466 157.149C178.811 157.149 175.847 160.106 175.847 163.754C175.847 167.402 178.811 170.36 182.466 170.36Z" fill="white" stroke="#1A1A1A" stroke-width="2" stroke-miterlimit="10"/>
<path d="M140.404 206.09C148.554 206.09 155.161 199.497 155.161 191.364C155.161 183.231 148.554 176.638 140.404 176.638C132.254 176.638 125.647 183.231 125.647 191.364C125.647 199.497 132.254 206.09 140.404 206.09Z" fill="white" stroke="#1A1A1A" stroke-width="2" stroke-miterlimit="10"/>
<path d="M140.404 201.095C145.789 201.095 150.155 196.738 150.155 191.364C150.155 185.99 145.789 181.634 140.404 181.634C135.019 181.634 130.653 185.99 130.653 191.364C130.653 196.738 135.019 201.095 140.404 201.095Z" fill="white" stroke="#1A1A1A" stroke-width="2" stroke-miterlimit="10"/>
<path d="M61.9683 176.378C70.1182 176.378 76.7249 169.785 76.7249 161.652C76.7249 153.519 70.1182 146.926 61.9683 146.926C53.8185 146.926 47.2118 153.519 47.2118 161.652C47.2118 169.785 53.8185 176.378 61.9683 176.378Z" fill="white" stroke="#1A1A1A" stroke-width="2" stroke-miterlimit="10"/>
<path d="M61.9683 171.382C67.3535 171.382 71.719 167.026 71.719 161.652C71.719 156.278 67.3535 151.922 61.9683 151.922C56.5832 151.922 52.2177 156.278 52.2177 161.652C52.2177 167.026 56.5832 171.382 61.9683 171.382Z" fill="white" stroke="#1A1A1A" stroke-width="2" stroke-miterlimit="10"/>
</svg>
