<svg width="379" height="873" viewBox="0 0 379 873" fill="none" xmlns="http://www.w3.org/2000/svg">
<path d="M189.878 474.519L190.013 274.828" stroke="black" stroke-width="152" stroke-miterlimit="10"/>
<path d="M174.236 297.268C175.679 297.248 198.984 152.566 37.3564 110.151" stroke="#F6C400" stroke-width="27" stroke-miterlimit="10"/>
<path d="M61.0165 91.5886L45.0866 112.183L48.8534 137.939L0 100.35L61.0165 91.5886Z" fill="#F6C400"/>
<path d="M204.764 297.268C203.321 297.248 180.016 152.566 341.643 110.151" stroke="#F6C400" stroke-width="27" stroke-miterlimit="10"/>
<path d="M330.146 137.939L333.908 112.183L317.983 91.5886L379 100.35L330.146 137.939Z" fill="#F6C400"/>
<path d="M189.888 305.516V38.6244" stroke="#F6C400" stroke-width="27" stroke-miterlimit="10"/>
<path d="M213.85 56.7984L189.888 46.6186L165.931 56.7984L189.888 0L213.85 56.7984Z" fill="#F6C400"/>
<path d="M63.3022 230.405C63.3022 225.818 68.5643 220.541 68.5643 220.541C68.5643 220.541 82.5868 208.166 101.066 206.681C104.363 206.187 121.731 202.851 125.646 204.701C130.017 206.762 143.627 212.724 143.627 212.724" fill="white"/>
<path d="M63.3022 230.405C63.3022 225.818 68.5643 220.541 68.5643 220.541C68.5643 220.541 82.5868 208.166 101.066 206.681C104.363 206.187 121.731 202.851 125.646 204.701C130.017 206.762 143.627 212.724 143.627 212.724" stroke="#1A1A1A" stroke-width="2" stroke-miterlimit="10"/>
<path d="M318.578 230.405C318.578 225.818 313.316 220.541 313.316 220.541C313.316 220.541 299.293 208.166 280.814 206.681C277.517 206.187 260.149 202.851 256.234 204.701C251.863 206.762 238.253 212.724 238.253 212.724" fill="white"/>
<path d="M318.578 230.405C318.578 225.818 313.316 220.541 313.316 220.541C313.316 220.541 299.293 208.166 280.814 206.681C277.517 206.187 260.149 202.851 256.234 204.701C251.863 206.762 238.253 212.724 238.253 212.724" stroke="#1A1A1A" stroke-width="2" stroke-miterlimit="10"/>
<path d="M353.912 375.413L353.826 375.044C352.671 370.85 333.707 247.821 327.611 241.222C327.568 241.179 327.549 241.121 327.549 241.064C327.506 240.162 321.051 233.213 320.739 232.878C320.729 232.868 315.094 228.794 298.8 220.546C282.649 212.37 201.96 211.665 190.746 211.608C190.746 211.608 190.521 211.608 190.099 211.608C189.677 211.608 189.452 211.608 189.452 211.608C178.238 211.67 97.5487 212.374 81.3984 220.551C65.1043 228.799 59.4685 232.873 59.4589 232.882C59.1474 233.213 52.6921 240.167 52.6489 241.068C52.6489 241.131 52.625 241.183 52.5866 241.226C46.4907 247.826 27.5273 370.86 26.3723 375.048L26.2861 375.417C19.8451 417.191 37.9363 427.552 39.9443 429.949C39.9635 429.968 39.9827 429.987 40.0066 430.002C62.0947 443.086 77.7226 423.781 78.1923 423.316C94.9272 392.062 100.697 380.876 105.547 373.682C108.284 369.623 112.87 367.193 117.782 367.193H262.425C267.333 367.193 271.919 369.623 274.66 373.682C279.51 380.876 285.285 392.062 302.015 423.316C302.485 423.781 318.108 443.086 340.201 430.002C340.225 429.987 340.244 429.973 340.263 429.949C342.271 427.552 360.362 417.191 353.921 375.417L353.912 375.413Z" fill="white" stroke="#1A1A1A" stroke-width="2" stroke-miterlimit="10"/>
<path d="M43.0115 279.573C39.5466 298.221 98.8091 366.939 117.773 367.184Z" fill="white"/>
<path d="M43.0115 279.573C39.5466 298.221 98.8091 366.939 117.773 367.184" stroke="#1A1A1A" stroke-width="2" stroke-miterlimit="10"/>
<path d="M337.1 279.573C340.565 298.221 281.303 366.939 262.339 367.184Z" fill="white"/>
<path d="M337.1 279.573C340.565 298.221 281.303 366.939 262.339 367.184" stroke="#1A1A1A" stroke-width="2" stroke-miterlimit="10"/>
<path d="M119.541 311.612H134.057C134.421 311.612 134.718 311.315 134.718 310.951V295.772C134.718 295.408 135.015 295.111 135.38 295.111H151.218C151.583 295.111 151.88 295.408 151.88 295.772V310.951C151.88 311.315 152.177 311.612 152.541 311.612H167.718C168.083 311.612 168.38 311.909 168.38 312.274V328.444C168.38 328.808 168.083 329.106 167.718 329.106H152.541C152.177 329.106 151.88 329.403 151.88 329.767V344.615C151.88 344.979 151.583 345.276 151.218 345.276H136.027C135.667 345.276 135.375 344.989 135.365 344.629L135.063 329.422C135.058 329.062 134.761 328.775 134.402 328.775H119.541C119.177 328.775 118.879 328.478 118.879 328.113V312.274C118.879 311.909 119.177 311.612 119.541 311.612Z" fill="white" stroke="#1A1A1A" stroke-width="2" stroke-miterlimit="10"/>
<path d="M252.678 285.046C258.781 285.046 263.729 280.098 263.729 273.994C263.729 267.89 258.781 262.942 252.678 262.942C246.574 262.942 241.626 267.89 241.626 273.994C241.626 280.098 246.574 285.046 252.678 285.046Z" fill="white" stroke="#1A1A1A" stroke-width="2" stroke-miterlimit="10"/>
<path d="M278.662 262.362C284.765 262.362 289.713 257.414 289.713 251.31C289.713 245.206 284.765 240.258 278.662 240.258C272.559 240.258 267.611 245.206 267.611 251.31C267.611 257.414 272.559 262.362 278.662 262.362Z" fill="white" stroke="#1A1A1A" stroke-width="2" stroke-miterlimit="10"/>
<path d="M278.456 307.155C284.559 307.155 289.507 302.207 289.507 296.103C289.507 289.999 284.559 285.051 278.456 285.051C272.353 285.051 267.405 289.999 267.405 296.103C267.405 302.207 272.353 307.155 278.456 307.155Z" fill="white" stroke="#1A1A1A" stroke-width="2" stroke-miterlimit="10"/>
<path d="M304.646 285.046C310.75 285.046 315.697 280.098 315.697 273.994C315.697 267.89 310.75 262.942 304.646 262.942C298.543 262.942 293.595 267.89 293.595 273.994C293.595 280.098 298.543 285.046 304.646 285.046Z" fill="white" stroke="#1A1A1A" stroke-width="2" stroke-miterlimit="10"/>
<path d="M234.419 344.83C248.026 344.83 259.056 333.799 259.056 320.191C259.056 306.583 248.026 295.552 234.419 295.552C220.812 295.552 209.781 306.583 209.781 320.191C209.781 333.799 220.812 344.83 234.419 344.83Z" fill="white" stroke="#1A1A1A" stroke-width="2" stroke-miterlimit="10"/>
<path d="M234.419 336.472C243.41 336.472 250.699 329.183 250.699 320.191C250.699 311.199 243.41 303.91 234.419 303.91C225.428 303.91 218.139 311.199 218.139 320.191C218.139 329.183 225.428 336.472 234.419 336.472Z" fill="white" stroke="#1A1A1A" stroke-width="2" stroke-miterlimit="10"/>
<path d="M103.463 295.116C117.07 295.116 128.1 284.084 128.1 270.476C128.1 256.868 117.07 245.837 103.463 245.837C89.8556 245.837 78.825 256.868 78.825 270.476C78.825 284.084 89.8556 295.116 103.463 295.116Z" fill="white" stroke="#1A1A1A" stroke-width="2" stroke-miterlimit="10"/>
<path d="M103.463 286.757C112.454 286.757 119.742 279.468 119.742 270.476C119.742 261.485 112.454 254.196 103.463 254.196C94.4715 254.196 87.1829 261.485 87.1829 270.476C87.1829 279.468 94.4715 286.757 103.463 286.757Z" fill="white" stroke="#1A1A1A" stroke-width="2" stroke-miterlimit="10"/>
<path d="M190 681.902L190.135 464" stroke="black" stroke-width="152" stroke-miterlimit="10"/>
<path d="M190 872.902L190.135 655" stroke="black" stroke-width="152" stroke-miterlimit="10"/>
</svg>
