<svg width="256" height="128" viewBox="0 0 256 128" fill="none" xmlns="http://www.w3.org/2000/svg">
<path d="M155.94 60.9799L156.24 61.0399C156.65 61.1199 157.06 61.0399 157.42 60.8399C165.33 56.2099 176.39 48.4799 186.92 36.2899C197.26 24.2999 203.34 12.3399 206.9 3.48989C207.17 2.80989 208.19 3.01989 208.17 3.75989C207.93 18.3599 212.72 30.0199 213.12 46.3699C213.4 57.6699 210.04 66.7799 203.89 72.1799C202.88 73.0699 203.2 74.7099 204.48 75.1099L220.47 80.1199C221.62 80.4799 222.04 81.8799 221.29 82.8299C220.34 84.0199 219.44 85.0899 218.17 86.2699C217.78 86.6399 211.39 92.6499 210.99 92.9999C206.3 97.1099 200.78 100.32 194.81 102.59C194.83 102.64 194.85 102.69 194.87 102.74C197 108.58 199.05 116.27 199.59 125.09C199.66 126.17 198.73 127.06 197.66 126.92C180.69 124.62 166.16 105.92 160.19 97.9699C159.39 96.9099 157.77 97.1399 157.26 98.3599C157.25 98.3899 157.23 98.4299 157.22 98.4599C156.52 100.2 153.93 99.7099 153.93 97.8299C153.93 87.8299 153.93 68.8999 153.93 62.6599C153.93 61.5899 154.9 60.7899 155.96 60.9899L155.94 60.9799Z" fill="white"/>
<path d="M100.61 59.9101L100.31 59.9701C99.9 60.0501 99.49 59.9701 99.13 59.7701C91.22 55.1401 80.16 47.4101 69.63 35.2201C59.29 23.2301 53.21 11.2701 49.65 2.42007C49.38 1.74007 48.36 1.95007 48.38 2.69007C48.62 17.2901 43.83 28.9501 43.43 45.3001C43.15 56.6001 46.51 65.7101 52.66 71.1101C53.67 72.0001 53.35 73.6401 52.07 74.0401L36.08 79.0501C34.93 79.4101 34.51 80.8101 35.26 81.7601C36.21 82.9501 37.11 84.0201 38.38 85.2001C38.77 85.5701 45.16 91.5801 45.56 91.9301C50.25 96.0401 55.77 99.2501 61.74 101.52C61.72 101.57 61.7 101.62 61.68 101.67C59.55 107.51 57.5 115.2 56.96 124.02C56.89 125.1 57.82 125.99 58.89 125.85C75.86 123.55 90.39 104.85 96.36 96.9001C97.16 95.8401 98.78 96.0701 99.29 97.2901C99.3 97.3201 99.32 97.3601 99.33 97.3901C100.03 99.1301 102.62 98.6401 102.62 96.7601C102.62 86.7601 102.62 67.8301 102.62 61.5901C102.62 60.5201 101.65 59.7201 100.59 59.9201L100.61 59.9101Z" fill="white"/>
<path d="M155.31 52.6699H101.01C89.0862 52.6699 79.42 62.3361 79.42 74.2599V79.8199C79.42 91.7438 89.0862 101.41 101.01 101.41H155.31C167.234 101.41 176.9 91.7438 176.9 79.8199V74.2599C176.9 62.3361 167.234 52.6699 155.31 52.6699Z" fill="white" stroke="white" stroke-width="5" stroke-miterlimit="10"/>
<path d="M114.93 73.0999H106.73V64.8999H98.84V73.0999H90.64V80.9799H98.84V89.1799H106.73V80.9799H114.93V73.0999Z" fill="black"/>
<path d="M157.84 64.29H149.64V72.82H157.84V64.29Z" fill="black"/>
<path d="M157.84 81.01H149.64V89.54H157.84V81.01Z" fill="black"/>
<path d="M149.65 72.8201H141.12V81.0201H149.65V72.8201Z" fill="black"/>
<path d="M166.37 72.8201H157.84V81.0201H166.37V72.8201Z" fill="black"/>
<path d="M126.632 92.8625L124.599 91.9208C124.153 91.7141 123.624 91.9082 123.418 92.3542L123.321 92.5628C123.114 93.0088 123.308 93.5379 123.754 93.7445L125.787 94.6862C126.233 94.8929 126.762 94.6988 126.968 94.2529L127.065 94.0442C127.272 93.5982 127.078 93.0691 126.632 92.8625Z" fill="black"/>
<path d="M129.792 94.7771L131.862 93.9217C132.317 93.734 132.533 93.2135 132.345 92.7592L132.257 92.5467C132.069 92.0924 131.549 91.8763 131.095 92.064L129.024 92.9194C128.57 93.1071 128.354 93.6275 128.542 94.0818L128.63 94.2944C128.817 94.7487 129.338 94.9648 129.792 94.7771Z" fill="black"/>
</svg>
