<?xml version="1.0" encoding="UTF-8"?>
<svg id="a" data-name="Layer 1" xmlns="http://www.w3.org/2000/svg" width="584" height="584" viewBox="0 0 584 584">
  <rect width="584" height="584" style="fill: #f6c400; stroke-width: 0px;"/>
  <path d="M366.93,216.71l.83.16c1.14.22,2.31.03,3.31-.56,22.2-13,53.25-34.68,82.8-68.92,29.03-33.65,46.08-67.22,56.08-92.06.77-1.92,3.61-1.32,3.58.75-.68,40.99,12.77,73.72,13.89,119.6.77,31.71-8.66,57.29-25.91,72.44-2.84,2.5-1.94,7.1,1.67,8.23l44.87,14.07c3.23,1.01,4.42,4.95,2.31,7.59-2.67,3.34-5.19,6.33-8.76,9.65-1.1,1.03-19.03,17.91-20.16,18.9-13.16,11.54-28.65,20.54-45.41,26.92.05.14.12.28.17.43,5.98,16.4,11.74,37.98,13.24,62.74.18,3.03-2.4,5.54-5.41,5.13-47.63-6.45-88.41-58.95-105.17-81.27-2.23-2.97-6.8-2.34-8.24,1.08-.04.1-.08.19-.12.29-1.96,4.9-9.24,3.51-9.24-1.77,0-28.08,0-81.21,0-98.73,0-3.01,2.73-5.25,5.69-4.69Z" style="fill: #000; stroke-width: 0px;"/>
  <path d="M211.63,213.71l-.83.16c-1.14.22-2.31.03-3.31-.56-22.2-13-53.25-34.68-82.8-68.92-29.03-33.65-46.08-67.22-56.08-92.06-.77-1.92-3.61-1.32-3.58.75.68,40.99-12.77,73.72-13.89,119.6-.77,31.71,8.66,57.29,25.91,72.44,2.84,2.5,1.94,7.1-1.67,8.23l-44.87,14.07c-3.23,1.01-4.42,4.95-2.31,7.59,2.67,3.34,5.19,6.33,8.76,9.65,1.1,1.03,19.03,17.91,20.16,18.9,13.16,11.54,28.65,20.54,45.41,26.92-.05.14-.12.28-.17.43-5.98,16.4-11.74,37.98-13.24,62.74-.18,3.03,2.4,5.54,5.41,5.13,47.63-6.45,88.41-58.95,105.17-81.27,2.23-2.97,6.8-2.34,8.24,1.08.04.1.08.19.12.29,1.96,4.9,9.24,3.51,9.24-1.77,0-28.08,0-81.21,0-98.73,0-3.01-2.73-5.25-5.69-4.69Z" style="fill: #000; stroke-width: 0px;"/>
  <rect x="152.13" y="193.39" width="273.61" height="136.8" rx="68.4" ry="68.4" style="fill: #fff; stroke: #000; stroke-miterlimit: 10; stroke-width: 5px;"/>
  <polygon points="251.81 250.73 228.78 250.73 228.78 227.71 206.66 227.71 206.66 250.73 183.64 250.73 183.64 272.86 206.66 272.86 206.66 295.88 228.78 295.88 228.78 272.86 251.81 272.86 251.81 250.73" style="fill: #000; stroke-width: 0px;"/>
  <g>
    <rect x="349.25" y="226" width="23" height="23.94" style="fill: #000; stroke-width: 0px;"/>
    <rect x="349.25" y="272.94" width="23" height="23.94" style="fill: #000; stroke-width: 0px;"/>
    <rect x="325.31" y="249.94" width="23.94" height="23" style="fill: #000; stroke-width: 0px;"/>
    <rect x="372.25" y="249.94" width="23.94" height="23" style="fill: #000; stroke-width: 0px;"/>
  </g>
  <rect x="275.01" y="304.62" width="11.27" height="5.63" rx="1.21" ry="1.21" transform="translate(155.23 -89.49) rotate(24.86)" style="fill: #000; stroke-width: 0px;"/>
  <g>
    <path d="M170.12,457.16v-68.37h14.5v56.39h27.73v11.97h-42.23Z" style="fill: #000; stroke-width: 0px;"/>
    <path d="M238.4,457.16v-68.37h14.5v68.37h-14.5Z" style="fill: #000; stroke-width: 0px;"/>
    <path d="M284.27,388.8h21.28c9.1,0,15.99,1.28,20.67,3.83,4.68,2.56,7.01,7.05,7.01,13.47,0,2.59-.41,4.93-1.24,7.01-.83,2.09-2.02,3.8-3.58,5.14-1.56,1.34-3.46,2.21-5.71,2.62v.47c2.28.47,4.33,1.27,6.17,2.41,1.84,1.14,3.31,2.79,4.42,4.96,1.11,2.17,1.66,5.04,1.66,8.63,0,4.15-1.01,7.7-3.04,10.66s-4.92,5.23-8.67,6.8c-3.76,1.57-8.22,2.36-13.4,2.36h-25.58v-68.37ZM298.77,415.87h8.42c4.21,0,7.12-.66,8.74-1.99,1.62-1.33,2.43-3.28,2.43-5.87s-.96-4.5-2.88-5.63c-1.92-1.14-4.95-1.71-9.09-1.71h-7.62v15.2ZM298.77,427.37v17.82h9.45c4.36,0,7.4-.84,9.12-2.53s2.57-3.94,2.57-6.78c0-1.68-.37-3.16-1.12-4.44s-2-2.28-3.76-2.99c-1.76-.72-4.18-1.08-7.27-1.08h-8.98Z" style="fill: #000; stroke-width: 0px;"/>
    <path d="M402.17,457.16h-39.37v-68.37h39.37v11.88h-24.88v15.01h23.15v11.88h-23.15v17.63h24.88v11.97Z" style="fill: #000; stroke-width: 0px;"/>
    <path d="M190.04,465.88c6.2,0,11.32.75,15.36,2.24,4.04,1.5,7.04,3.76,9,6.78,1.96,3.02,2.95,6.84,2.95,11.46,0,3.12-.59,5.84-1.78,8.18-1.19,2.34-2.74,4.32-4.68,5.94-1.93,1.62-4.02,2.95-6.27,3.97l20.11,29.79h-16.09l-16.32-26.23h-7.72v26.23h-14.5v-68.37h19.92ZM189.01,477.75h-4.4v18.47h4.68c4.8,0,8.24-.8,10.31-2.41,2.07-1.6,3.11-3.97,3.11-7.08s-1.11-5.55-3.34-6.92c-2.23-1.37-5.68-2.06-10.36-2.06Z" style="fill: #000; stroke-width: 0px;"/>
    <path d="M288.99,465.88v44.24c0,4.71-1.04,8.96-3.11,12.74-2.07,3.79-5.21,6.79-9.4,9-4.19,2.21-9.47,3.32-15.83,3.32-9.04,0-15.93-2.31-20.67-6.92-4.74-4.61-7.11-10.72-7.11-18.33v-44.05h14.45v41.85c0,5.64,1.15,9.6,3.46,11.88,2.31,2.28,5.72,3.41,10.24,3.41,3.18,0,5.76-.54,7.74-1.64,1.98-1.09,3.44-2.77,4.37-5.05.94-2.28,1.4-5.17,1.4-8.7v-41.76h14.45Z" style="fill: #000; stroke-width: 0px;"/>
    <path d="M305.73,534.24v-68.37h14.5v56.39h27.73v11.97h-42.23Z" style="fill: #000; stroke-width: 0px;"/>
    <path d="M401.68,534.24l-4.96-16.27h-24.92l-4.96,16.27h-15.62l24.13-68.65h17.72l24.22,68.65h-15.62ZM393.27,505.81l-4.96-15.9c-.31-1.06-.72-2.42-1.24-4.09-.51-1.67-1.03-3.37-1.54-5.1-.51-1.73-.93-3.23-1.24-4.51-.31,1.28-.74,2.86-1.29,4.75-.55,1.89-1.07,3.67-1.57,5.35-.5,1.68-.86,2.88-1.08,3.6l-4.91,15.9h17.82Z" style="fill: #000; stroke-width: 0px;"/>
  </g>
  <rect x="289.73" y="304.94" width="11.27" height="5.63" rx="1.21" ry="1.21" transform="translate(685.87 479.4) rotate(157.55)" style="fill: #000; stroke-width: 0px;"/>
</svg>